SILCHBmaster.ufo
<glyph name="PercentSgn" format="1">
  <advance width="1831"/>
  <unicode hex="0025"/>
  <outline>
    <contour>
      <point x="1772" y="395" type="curve" smooth="yes" name="hr01"/>
      <point x="1772" y="662"/>
      <point x="1653" y="823"/>
      <point x="1419" y="823" type="curve" smooth="yes"/>
      <point x="1186" y="823"/>
      <point x="1071" y="662"/>
      <point x="1071" y="395" type="curve" smooth="yes"/>
      <point x="1071" y="129"/>
      <point x="1186" y="-33"/>
      <point x="1419" y="-33" type="curve" smooth="yes"/>
      <point x="1653" y="-33"/>
      <point x="1772" y="129"/>
    </contour>
    <contour>
      <point x="1415" y="1374" type="line"/>
      <point x="1268" y="1374" type="line"/>
      <point x="418" y="0" type="line" name="hr02"/>
      <point x="563" y="0" type="line"/>
    </contour>
    <contour>
      <point x="762" y="979" type="curve" smooth="yes"/>
      <point x="762" y="1245"/>
      <point x="645" y="1407"/>
      <point x="412" y="1407" type="curve" smooth="yes"/>
      <point x="178" y="1407"/>
      <point x="59" y="1245"/>
      <point x="59" y="979" type="curve" smooth="yes"/>
      <point x="59" y="713"/>
      <point x="178" y="549"/>
      <point x="412" y="549" type="curve" smooth="yes"/>
      <point x="645" y="549"/>
      <point x="762" y="713"/>
    </contour>
    <contour>
      <point x="1548" y="395" type="curve" smooth="yes"/>
      <point x="1548" y="143"/>
      <point x="1495" y="63"/>
      <point x="1419" y="63" type="curve" smooth="yes" name="hr03"/>
      <point x="1346" y="63"/>
      <point x="1280" y="143"/>
      <point x="1280" y="395" type="curve" smooth="yes"/>
      <point x="1280" y="647"/>
      <point x="1346" y="727"/>
      <point x="1419" y="727" type="curve" smooth="yes"/>
      <point x="1495" y="727"/>
      <point x="1548" y="647"/>
    </contour>
    <contour>
      <point x="541" y="979" type="curve" smooth="yes"/>
      <point x="541" y="727"/>
      <point x="485" y="645"/>
      <point x="412" y="645" type="curve" smooth="yes"/>
      <point x="336" y="645"/>
      <point x="266" y="727"/>
      <point x="266" y="979" type="curve" smooth="yes"/>
      <point x="266" y="1231"/>
      <point x="336" y="1311"/>
      <point x="412" y="1311" type="curve" smooth="yes"/>
      <point x="485" y="1311"/>
      <point x="541" y="1231"/>
    </contour>
  </outline>
</glyph>
<glyph name="Apos" format="1">
  <advance width="360"/>
  <unicode hex="0027"/>
  <outline>
    <contour>
      <point x="217" y="854" type="line" name="hr00"/>
      <point x="299" y="1333" type="line"/>
      <point x="299" y="1409"/>
      <point x="262" y="1462"/>
      <point x="180" y="1462" type="curve" smooth="yes"/>
      <point x="96" y="1462"/>
      <point x="63" y="1409"/>
      <point x="63" y="1333" type="curve"/>
      <point x="143" y="854" type="line"/>
    </contour>
  </outline>
</glyph>
<glyph name="Comma" format="1">
  <advance width="651"/>
  <unicode hex="002C"/>
  <outline>
    <contour>
      <point x="496" y="121" type="curve" smooth="yes" name="hr01"/>
      <point x="496" y="240"/>
      <point x="424" y="317"/>
      <point x="301" y="317" type="curve" smooth="yes" name="hr02"/>
      <point x="213" y="317"/>
      <point x="129" y="248"/>
      <point x="129" y="145" type="curve" smooth="yes"/>
      <point x="129" y="104"/>
      <point x="143" y="53"/>
      <point x="193" y="14" type="curve"/>
      <point x="317" y="14" type="line"/>
      <point x="326" y="-178"/>
      <point x="176" y="-244"/>
      <point x="72" y="-260" type="curve"/>
      <point x="72" y="-360" type="line"/>
      <point x="268" y="-346"/>
      <point x="496" y="-133"/>
    </contour>
  </outline>
</glyph>
<glyph name="FullStop" format="1">
  <advance width="651"/>
  <unicode hex="002E"/>
  <outline>
    <contour>
      <point x="471" y="145" type="curve" smooth="yes" name="hr00"/>
      <point x="471" y="240"/>
      <point x="397" y="317"/>
      <point x="301" y="317" type="curve" smooth="yes"/>
      <point x="207" y="317"/>
      <point x="129" y="240"/>
      <point x="129" y="145" type="curve" smooth="yes"/>
      <point x="129" y="51"/>
      <point x="207" y="-25"/>
      <point x="301" y="-25" type="curve" smooth="yes"/>
      <point x="397" y="-25"/>
      <point x="471" y="51"/>
    </contour>
  </outline>
</glyph>
<glyph name="DigitSeven" format="1">
  <advance width="1202"/>
  <unicode hex="0037"/>
  <outline>
    <contour>
      <point x="1000" y="1229" type="line" name="hr00"/>
      <point x="1000" y="1374" type="line"/>
      <point x="-50" y="1374" type="line"/>
      <point x="-50" y="938" type="line"/>
      <point x="93" y="938" type="line"/>
      <point x="124" y="1128" type="line"/>
      <point x="716" y="1128" type="line"/>
      <point x="48" y="-33" type="line"/>
      <point x="310" y="-33" type="line"/>
      <point x="310" y="29" type="line"/>
    </contour>
    <contour>
      <point x="475" y="1500" type="move" name="U"/>
    </contour>
    <contour>
      <point x="475" y="-100" type="move" name="L"/>
    </contour>
  </outline>
</glyph>
<glyph name="DigitEight" format="1">
  <advance width="1202"/>
  <unicode hex="0038"/>
  <outline>
    <contour>
      <point x="1128" y="377" type="curve" smooth="yes" name="hr01"/>
      <point x="1128" y="643"/>
      <point x="877" y="711"/>
      <point x="821" y="731" type="curve"/>
      <point x="924" y="780"/>
      <point x="1075" y="852"/>
      <point x="1075" y="1047" type="curve" smooth="yes" name="hr02"/>
      <point x="1075" y="1290"/>
      <point x="846" y="1407"/>
      <point x="631" y="1407" type="curve" smooth="yes"/>
      <point x="391" y="1407"/>
      <point x="129" y="1303"/>
      <point x="129" y="993" type="curve" smooth="yes"/>
      <point x="129" y="823"/>
      <point x="276" y="717"/>
      <point x="358" y="686" type="curve"/>
      <point x="256" y="655"/>
      <point x="74" y="592"/>
      <point x="74" y="371" type="curve" smooth="yes" name="hr03"/>
      <point x="74" y="139"/>
      <point x="291" y="-33"/>
      <point x="588" y="-33" type="curve" smooth="yes"/>
      <point x="864" y="-33"/>
      <point x="1128" y="98"/>
    </contour>
    <contour>
      <point x="823" y="1030" type="curve" smooth="yes" name="hr04"/>
      <point x="823" y="909"/>
      <point x="764" y="823"/>
      <point x="723" y="780" type="curve"/>
      <point x="569" y="848"/>
      <point x="410" y="918"/>
      <point x="410" y="1081" type="curve" smooth="yes"/>
      <point x="410" y="1190"/>
      <point x="498" y="1278"/>
      <point x="606" y="1278" type="curve" smooth="yes"/>
      <point x="737" y="1278"/>
      <point x="823" y="1157"/>
    </contour>
    <contour>
      <point x="850" y="305" type="curve" smooth="yes" name="hr05"/>
      <point x="850" y="172"/>
      <point x="731" y="98"/>
      <point x="604" y="98" type="curve" smooth="yes"/>
      <point x="457" y="98"/>
      <point x="336" y="231"/>
      <point x="336" y="391" type="curve" smooth="yes"/>
      <point x="336" y="528"/>
      <point x="430" y="602"/>
      <point x="455" y="635" type="curve"/>
      <point x="582" y="575"/>
      <point x="850" y="506"/>
    </contour>
    <contour>
      <point x="601" y="1500" type="move" name="U"/>
    </contour>
    <contour>
      <point x="601" y="-100" type="move" name="L"/>
    </contour>
  </outline>
</glyph>
<glyph name="Colon" format="1">
  <advance width="651"/>
  <unicode hex="003A"/>
  <outline>
    <contour>
      <point x="471" y="145" type="curve" smooth="yes" name="hr00"/>
      <point x="471" y="240"/>
      <point x="397" y="317"/>
      <point x="301" y="317" type="curve" smooth="yes"/>
      <point x="207" y="317"/>
      <point x="129" y="240"/>
      <point x="129" y="145" type="curve" smooth="yes"/>
      <point x="129" y="51"/>
      <point x="207" y="-25"/>
      <point x="301" y="-25" type="curve" smooth="yes"/>
      <point x="397" y="-25"/>
      <point x="471" y="51"/>
    </contour>
    <contour>
      <point x="471" y="852" type="curve" smooth="yes"/>
      <point x="471" y="946"/>
      <point x="397" y="1024"/>
      <point x="301" y="1024" type="curve" smooth="yes"/>
      <point x="207" y="1024"/>
      <point x="129" y="946"/>
      <point x="129" y="852" type="curve" smooth="yes"/>
      <point x="129" y="756"/>
      <point x="207" y="682"/>
      <point x="301" y="682" type="curve" smooth="yes"/>
      <point x="397" y="682"/>
      <point x="471" y="756"/>
    </contour>
  </outline>
</glyph>
<glyph name="Semicolon" format="1">
  <advance width="651"/>
  <unicode hex="003B"/>
  <outline>
    <contour>
      <point x="496" y="121" type="curve" smooth="yes" name="hr01"/>
      <point x="496" y="240"/>
      <point x="424" y="317"/>
      <point x="301" y="317" type="curve" smooth="yes"/>
      <point x="213" y="317"/>
      <point x="129" y="248"/>
      <point x="129" y="145" type="curve" smooth="yes"/>
      <point x="129" y="104"/>
      <point x="143" y="53"/>
      <point x="193" y="14" type="curve"/>
      <point x="317" y="14" type="line"/>
      <point x="326" y="-178"/>
      <point x="176" y="-244"/>
      <point x="72" y="-260" type="curve"/>
      <point x="72" y="-360" type="line"/>
      <point x="268" y="-346"/>
      <point x="496" y="-133"/>
    </contour>
    <contour>
      <point x="471" y="852" type="curve" smooth="yes" name="hr02"/>
      <point x="471" y="946"/>
      <point x="397" y="1024"/>
      <point x="301" y="1024" type="curve" smooth="yes"/>
      <point x="207" y="1024"/>
      <point x="129" y="946"/>
      <point x="129" y="852" type="curve" smooth="yes"/>
      <point x="129" y="756"/>
      <point x="207" y="682"/>
      <point x="301" y="682" type="curve" smooth="yes"/>
      <point x="397" y="682"/>
      <point x="471" y="756"/>
    </contour>
  </outline>
</glyph>
<glyph name="LtnCapE" format="1">
  <advance width="1225"/>
  <unicode hex="0045"/>
  <outline>
    <contour>
      <point x="1163" y="0" type="line" name="hr01"/>
      <point x="1163" y="375" type="line"/>
      <point x="1014" y="375" type="line"/>
      <point x="983" y="162" type="line" smooth="yes"/>
      <point x="981" y="147"/>
      <point x="963" y="123"/>
      <point x="946" y="123" type="curve" smooth="yes"/>
      <point x="500" y="123" type="line"/>
      <point x="500" y="645" type="line"/>
      <point x="743" y="645" type="line" smooth="yes"/>
      <point x="762" y="645"/>
      <point x="776" y="623"/>
      <point x="778" y="608" type="curve" smooth="yes"/>
      <point x="797" y="469" type="line"/>
      <point x="924" y="469" type="line"/>
      <point x="924" y="950" type="line"/>
      <point x="797" y="950" type="line"/>
      <point x="778" y="811" type="line" smooth="yes"/>
      <point x="776" y="797"/>
      <point x="762" y="774"/>
      <point x="743" y="774" type="curve" smooth="yes"/>
      <point x="500" y="774" type="line"/>
      <point x="500" y="1255" type="line"/>
      <point x="881" y="1255" type="line" smooth="yes"/>
      <point x="899" y="1255"/>
      <point x="913" y="1237"/>
      <point x="918" y="1217" type="curve" smooth="yes"/>
      <point x="950" y="1047" type="line"/>
      <point x="1098" y="1047" type="line"/>
      <point x="1098" y="1374" type="line"/>
      <point x="53" y="1374" type="line"/>
      <point x="53" y="1270" type="line" name="hr02"/>
      <point x="166" y="1260" type="line" smooth="yes"/>
      <point x="190" y="1257"/>
      <point x="213" y="1241"/>
      <point x="213" y="1214" type="curve" smooth="yes"/>
      <point x="213" y="160" type="line" smooth="yes"/>
      <point x="213" y="133"/>
      <point x="190" y="117"/>
      <point x="166" y="115" type="curve" smooth="yes"/>
      <point x="53" y="104" type="line"/>
      <point x="53" y="0" type="line" name="hr03"/>
    </contour>
    <contour>
      <point x="608" y="1500" type="move" name="U"/>
    </contour>
    <contour>
      <point x="608" y="-100" type="move" name="L"/>
    </contour>
    <contour>
      <point x="1008" y="0" type="move" name="O"/>
    </contour>
    <contour>
      <point x="608" y="0" type="move" name="H"/>
    </contour>
    <contour>
      <point x="1225" y="1200" type="move" name="R"/>
    </contour>
  </outline>
</glyph>
<glyph name="LtnCapH" format="1">
  <advance width="1575"/>
  <unicode hex="0048"/>
  <outline>
    <contour>
      <point x="1513" y="0" type="line" name="hr00"/>
      <point x="1513" y="104" type="line"/>
      <point x="1407" y="115" type="line" smooth="yes"/>
      <point x="1382" y="117"/>
      <point x="1362" y="133"/>
      <point x="1362" y="160" type="curve" smooth="yes"/>
      <point x="1362" y="1214" type="line" smooth="yes"/>
      <point x="1362" y="1241"/>
      <point x="1384" y="1257"/>
      <point x="1407" y="1260" type="curve" smooth="yes"/>
      <point x="1513" y="1270" type="line"/>
      <point x="1513" y="1374" type="line"/>
      <point x="918" y="1374" type="line"/>
      <point x="918" y="1270" type="line"/>
      <point x="1024" y="1260" type="line" smooth="yes"/>
      <point x="1049" y="1257"/>
      <point x="1069" y="1241"/>
      <point x="1069" y="1214" type="curve" smooth="yes"/>
      <point x="1069" y="786" type="line"/>
      <point x="506" y="786" type="line"/>
      <point x="506" y="1214" type="line" smooth="yes"/>
      <point x="506" y="1241"/>
      <point x="526" y="1257"/>
      <point x="551" y="1260" type="curve" smooth="yes"/>
      <point x="659" y="1270" type="line"/>
      <point x="659" y="1374" type="line"/>
      <point x="61" y="1374" type="line"/>
      <point x="61" y="1270" type="line"/>
      <point x="168" y="1260" type="line" smooth="yes"/>
      <point x="193" y="1257"/>
      <point x="213" y="1241"/>
      <point x="213" y="1214" type="curve" smooth="yes"/>
      <point x="213" y="160" type="line" smooth="yes"/>
      <point x="213" y="133"/>
      <point x="193" y="117"/>
      <point x="168" y="115" type="curve" smooth="yes"/>
      <point x="61" y="104" type="line"/>
      <point x="61" y="0" type="line"/>
      <point x="659" y="0" type="line"/>
      <point x="659" y="104" type="line"/>
      <point x="551" y="115" type="line" smooth="yes"/>
      <point x="526" y="117"/>
      <point x="506" y="133"/>
      <point x="506" y="160" type="curve" smooth="yes"/>
      <point x="506" y="655" type="line"/>
      <point x="1069" y="655" type="line"/>
      <point x="1069" y="160" type="line" smooth="yes"/>
      <point x="1069" y="133"/>
      <point x="1049" y="117"/>
      <point x="1024" y="115" type="curve" smooth="yes"/>
      <point x="918" y="104" type="line"/>
      <point x="918" y="0" type="line"/>
    </contour>
    <contour>
      <point x="787" y="1500" type="move" name="U"/>
    </contour>
    <contour>
      <point x="787" y="-100" type="move" name="L"/>
    </contour>
    <contour>
      <point x="360" y="0" type="move" name="H"/>
    </contour>
  </outline>
</glyph>
<glyph name="LtnCapI" format="1">
  <advance width="735"/>
  <unicode hex="0049"/>
  <outline>
    <contour>
      <point x="686" y="0" type="line" name="hr00"/>
      <point x="686" y="104" type="line"/>
      <point x="559" y="115" type="line" smooth="yes"/>
      <point x="537" y="117"/>
      <point x="512" y="133"/>
      <point x="512" y="160" type="curve" smooth="yes"/>
      <point x="512" y="1214" type="line" smooth="yes"/>
      <point x="512" y="1241"/>
      <point x="537" y="1257"/>
      <point x="559" y="1260" type="curve" smooth="yes"/>
      <point x="686" y="1270" type="line"/>
      <point x="686" y="1374" type="line"/>
      <point x="47" y="1374" type="line"/>
      <point x="47" y="1270" type="line"/>
      <point x="174" y="1260" type="line" smooth="yes"/>
      <point x="199" y="1257"/>
      <point x="219" y="1241"/>
      <point x="219" y="1214" type="curve" smooth="yes"/>
      <point x="219" y="160" type="line" smooth="yes"/>
      <point x="219" y="133"/>
      <point x="199" y="117"/>
      <point x="174" y="115" type="curve" smooth="yes"/>
      <point x="47" y="104" type="line"/>
      <point x="47" y="0" type="line"/>
    </contour>
    <contour>
      <point x="366" y="1500" type="move" name="U"/>
    </contour>
    <contour>
      <point x="366" y="-100" type="move" name="L"/>
    </contour>
    <contour>
      <point x="551" y="0" type="move" name="O"/>
    </contour>
    <contour>
      <point x="366" y="0" type="move" name="H"/>
    </contour>
    <contour>
      <point x="735" y="1200" type="move" name="R"/>
    </contour>
  </outline>
</glyph>
<glyph name="LtnCapQ" format="1">
  <advance width="1548"/>
  <unicode hex="0051"/>
  <outline>
    <contour>
      <point x="1407" y="-330" type="curve" name="hr01"/>
      <point x="1407" y="-221" type="line"/>
      <point x="1317" y="-242"/>
      <point x="1257" y="-246"/>
      <point x="1217" y="-246" type="curve" smooth="yes"/>
      <point x="1067" y="-246"/>
      <point x="934" y="-164"/>
      <point x="938" y="-16" type="curve"/>
      <point x="1264" y="51"/>
      <point x="1475" y="340"/>
      <point x="1475" y="680" type="curve" smooth="yes"/>
      <point x="1475" y="1077"/>
      <point x="1194" y="1407"/>
      <point x="768" y="1407" type="curve" smooth="yes"/>
      <point x="332" y="1407"/>
      <point x="76" y="1100"/>
      <point x="76" y="696" type="curve" smooth="yes"/>
      <point x="76" y="291"/>
      <point x="303" y="39"/>
      <point x="633" y="-20" type="curve" name="hr02"/>
      <point x="635" y="-236"/>
      <point x="750" y="-377"/>
      <point x="1044" y="-377" type="curve" smooth="yes"/>
      <point x="1155" y="-377"/>
      <point x="1266" y="-362"/>
    </contour>
    <contour>
      <point x="1145" y="672" type="curve" smooth="yes"/>
      <point x="1145" y="408"/>
      <point x="1040" y="96"/>
      <point x="766" y="96" type="curve" smooth="yes"/>
      <point x="514" y="96"/>
      <point x="403" y="399"/>
      <point x="403" y="690" type="curve" smooth="yes"/>
      <point x="403" y="965"/>
      <point x="502" y="1270"/>
      <point x="786" y="1270" type="curve" smooth="yes"/>
      <point x="1024" y="1270"/>
      <point x="1145" y="993"/>
    </contour>
    <contour>
      <point x="775" y="1500" type="move" name="U"/>
    </contour>
    <contour>
      <point x="775" y="-270" type="move" name="L"/>
    </contour>
  </outline>
</glyph>
<glyph name="LtnCapS" format="1">
  <advance width="1098"/>
  <unicode hex="0053"/>
  <outline>
    <contour>
      <point x="1022" y="401" type="curve" smooth="yes" name="hr01"/>
      <point x="1022" y="627"/>
      <point x="836" y="715"/>
      <point x="666" y="801" type="curve" smooth="yes"/>
      <point x="522" y="872"/>
      <point x="389" y="940"/>
      <point x="389" y="1085" type="curve" smooth="yes"/>
      <point x="389" y="1206"/>
      <point x="506" y="1270"/>
      <point x="641" y="1270" type="curve" smooth="yes"/>
      <point x="729" y="1270"/>
      <point x="764" y="1237"/>
      <point x="764" y="1237" type="curve" name="hr02"/>
      <point x="764" y="1237"/>
      <point x="791" y="1219"/>
      <point x="793" y="1208" type="curve" smooth="yes"/>
      <point x="827" y="989" type="line"/>
      <point x="985" y="989" type="line"/>
      <point x="985" y="1325" type="line"/>
      <point x="985" y="1325"/>
      <point x="807" y="1407"/>
      <point x="598" y="1407" type="curve" smooth="yes"/>
      <point x="334" y="1407"/>
      <point x="104" y="1257"/>
      <point x="104" y="991" type="curve" smooth="yes"/>
      <point x="104" y="799"/>
      <point x="238" y="705"/>
      <point x="383" y="627" type="curve" smooth="yes"/>
      <point x="545" y="539"/>
      <point x="721" y="469"/>
      <point x="721" y="299" type="curve" smooth="yes" name="hr03"/>
      <point x="721" y="162"/>
      <point x="578" y="106"/>
      <point x="457" y="106" type="curve" smooth="yes"/>
      <point x="379" y="106"/>
      <point x="299" y="141"/>
      <point x="299" y="141" type="curve"/>
      <point x="293" y="141"/>
      <point x="274" y="156"/>
      <point x="272" y="172" type="curve" smooth="yes"/>
      <point x="238" y="420" type="line"/>
      <point x="76" y="420" type="line"/>
      <point x="76" y="45" type="line"/>
      <point x="76" y="45"/>
      <point x="262" y="-33"/>
      <point x="475" y="-33" type="curve" smooth="yes"/>
      <point x="764" y="-33"/>
      <point x="1022" y="113"/>
    </contour>
    <contour>
      <point x="579" y="1500" type="move" name="U"/>
    </contour>
    <contour>
      <point x="558" y="-100" type="move" name="L"/>
    </contour>
    <contour>
      <point x="558" y="0" type="move" name="H"/>
    </contour>
  </outline>
</glyph>
<glyph name="LtnCapV" format="1">
  <advance width="1446"/>
  <unicode hex="0056"/>
  <outline>
    <contour>
      <point x="1425" y="1270" type="line" name="hr01"/>
      <point x="1425" y="1374" type="line"/>
      <point x="967" y="1374" type="line"/>
      <point x="967" y="1270" type="line"/>
      <point x="1077" y="1255" type="line" smooth="yes" name="hr02"/>
      <point x="1108" y="1251"/>
      <point x="1110" y="1229"/>
      <point x="1106" y="1212" type="curve"/>
      <point x="793" y="319" type="line"/>
      <point x="469" y="1210" type="line" smooth="yes"/>
      <point x="463" y="1227"/>
      <point x="465" y="1251"/>
      <point x="489" y="1255" type="curve" smooth="yes"/>
      <point x="604" y="1270" type="line" name="hr03"/>
      <point x="604" y="1374" type="line"/>
      <point x="20" y="1374" type="line"/>
      <point x="20" y="1270" type="line"/>
      <point x="152" y="1251" type="line"/>
      <point x="631" y="-33" type="line"/>
      <point x="825" y="-33" type="line"/>
      <point x="1296" y="1253" type="line"/>
    </contour>
    <contour>
      <point x="747" y="1500" type="move" name="U"/>
    </contour>
    <contour>
      <point x="747" y="-100" type="move" name="L"/>
    </contour>
    <contour>
      <point x="881" y="0" type="move" name="O"/>
    </contour>
    <contour>
      <point x="730" y="0" type="move" name="H"/>
    </contour>
  </outline>
</glyph>
<glyph name="LftSqrBrac" format="1">
  <advance width="1122"/>
  <unicode hex="005B"/>
  <outline>
    <contour>
      <point x="1048" y="-270" type="line" name="hr00"/>
      <point x="1048" y="-152" type="line"/>
      <point x="734" y="-152" type="line"/>
      <point x="734" y="1327" type="line"/>
      <point x="1048" y="1327" type="line"/>
      <point x="1048" y="1450" type="line"/>
      <point x="480" y="1450" type="line"/>
      <point x="480" y="-270" type="line"/>
    </contour>
  </outline>
</glyph>
<glyph name="RtSqrBrac" format="1">
  <advance width="1206"/>
  <unicode hex="005D"/>
  <outline>
    <contour>
      <point x="641" y="-270" type="line" name="hr00"/>
      <point x="641" y="1450" type="line"/>
      <point x="74" y="1450" type="line"/>
      <point x="74" y="1327" type="line"/>
      <point x="387" y="1327" type="line"/>
      <point x="387" y="-152" type="line"/>
      <point x="74" y="-152" type="line"/>
      <point x="74" y="-270" type="line"/>
    </contour>
  </outline>
</glyph>
<glyph name="LtnSmK" format="1">
  <advance width="1212"/>
  <unicode hex="006B"/>
  <outline>
    <contour>
      <point x="1194" y="0" type="line" name="hr01"/>
      <point x="1194" y="96" type="line"/>
      <point x="1073" y="106" type="line"/>
      <point x="758" y="637" type="line"/>
      <point x="977" y="887" type="line"/>
      <point x="1112" y="903" type="line" name="hr02"/>
      <point x="1112" y="999" type="line"/>
      <point x="686" y="999" type="line"/>
      <point x="686" y="903" type="line"/>
      <point x="764" y="895" type="line" smooth="yes"/>
      <point x="784" y="893"/>
      <point x="791" y="874"/>
      <point x="778" y="860" type="curve" smooth="yes"/>
      <point x="504" y="532" type="line"/>
      <point x="459" y="532" type="line"/>
      <point x="459" y="1516" type="line"/>
      <point x="354" y="1516" type="line"/>
      <point x="41" y="1413" type="line"/>
      <point x="41" y="1329" type="line"/>
      <point x="184" y="1329" type="line"/>
      <point x="184" y="150" type="line" smooth="yes"/>
      <point x="184" y="125"/>
      <point x="164" y="104"/>
      <point x="139" y="102" type="curve" smooth="yes"/>
      <point x="53" y="96" type="line"/>
      <point x="53" y="0" type="line"/>
      <point x="586" y="0" type="line"/>
      <point x="586" y="96" type="line"/>
      <point x="504" y="102" type="line" smooth="yes"/>
      <point x="477" y="104"/>
      <point x="459" y="125"/>
      <point x="459" y="150" type="curve" smooth="yes"/>
      <point x="459" y="463" type="line"/>
      <point x="555" y="463" type="line"/>
      <point x="780" y="84" type="line" name="hr03"/>
      <point x="780" y="0" type="line"/>
    </contour>
    <contour>
      <point x="617" y="1540" type="move" name="U"/>
    </contour>
    <contour>
      <point x="617" y="-100" type="move" name="L"/>
    </contour>
    <contour>
      <point x="1212" y="1000" type="move" name="R"/>
    </contour>
    <contour>
      <point x="321" y="0" type="move" name="H"/>
    </contour>
  </outline>
</glyph>
<glyph name="LtnSmL" format="1">
  <advance width="682"/>
  <unicode hex="006C"/>
  <outline>
    <contour>
      <point x="625" y="0" type="line" name="hr00"/>
      <point x="625" y="96" type="line"/>
      <point x="522" y="102" type="line" smooth="yes"/>
      <point x="496" y="104"/>
      <point x="477" y="123"/>
      <point x="477" y="150" type="curve" smooth="yes"/>
      <point x="477" y="1516" type="line"/>
      <point x="373" y="1516" type="line"/>
      <point x="59" y="1413" type="line"/>
      <point x="59" y="1329" type="line"/>
      <point x="205" y="1329" type="line"/>
      <point x="205" y="150" type="line" smooth="yes"/>
      <point x="205" y="123"/>
      <point x="186" y="104"/>
      <point x="160" y="102" type="curve" smooth="yes"/>
      <point x="59" y="96" type="line"/>
      <point x="59" y="0" type="line"/>
    </contour>
    <contour>
      <point x="342" y="1580" type="move" name="U"/>
    </contour>
    <contour>
      <point x="342" y="-100" type="move" name="L"/>
    </contour>
    <contour>
      <point x="582" y="1000" type="move" name="R"/>
    </contour>
    <contour>
      <point x="342" y="0" type="move" name="H"/>
    </contour>
  </outline>
</glyph>
<glyph name="LtnSmS" format="1">
  <advance width="911"/>
  <unicode hex="0073"/>
  <outline>
    <contour>
      <point x="815" y="969" type="line" name="hr01"/>
      <point x="815" y="969"/>
      <point x="692" y="1024"/>
      <point x="489" y="1024" type="curve" smooth="yes"/>
      <point x="250" y="1024"/>
      <point x="78" y="903"/>
      <point x="78" y="713" type="curve" smooth="yes"/>
      <point x="78" y="578"/>
      <point x="178" y="508"/>
      <point x="293" y="451" type="curve" smooth="yes"/>
      <point x="430" y="383"/>
      <point x="586" y="338"/>
      <point x="586" y="227" type="curve" smooth="yes" name="hr02"/>
      <point x="586" y="180"/>
      <point x="549" y="96"/>
      <point x="410" y="96" type="curve" smooth="yes"/>
      <point x="344" y="96"/>
      <point x="225" y="141"/>
      <point x="219" y="154" type="curve"/>
      <point x="219" y="154"/>
      <point x="201" y="287"/>
      <point x="195" y="342" type="curve"/>
      <point x="66" y="342" type="line"/>
      <point x="66" y="31" type="line"/>
      <point x="66" y="31"/>
      <point x="229" y="-25"/>
      <point x="430" y="-25" type="curve" smooth="yes"/>
      <point x="633" y="-25"/>
      <point x="848" y="61"/>
      <point x="848" y="319" type="curve" smooth="yes"/>
      <point x="848" y="457"/>
      <point x="696" y="530"/>
      <point x="559" y="598" type="curve" smooth="yes"/>
      <point x="451" y="653"/>
      <point x="352" y="707"/>
      <point x="352" y="788" type="curve" smooth="yes" name="hr03"/>
      <point x="352" y="860"/>
      <point x="410" y="901"/>
      <point x="506" y="901" type="curve" smooth="yes"/>
      <point x="580" y="901"/>
      <point x="639" y="881"/>
      <point x="666" y="850" type="curve"/>
      <point x="688" y="686" type="line"/>
      <point x="815" y="686" type="line"/>
    </contour>
    <contour>
      <point x="480" y="1100" type="move" name="U"/>
    </contour>
    <contour>
      <point x="460" y="-100" type="move" name="L"/>
    </contour>
    <contour>
      <point x="460" y="0" type="move" name="H"/>
    </contour>
  </outline>
</glyph>
<glyph name="BrokenBar" format="1">
  <advance width="707"/>
  <unicode hex="00A6"/>
  <outline>
    <contour>
      <point x="406" y="688" type="line" name="hr00"/>
      <point x="406" y="1507" type="line"/>
      <point x="301" y="1507" type="line"/>
      <point x="301" y="688" type="line"/>
    </contour>
    <contour>
      <point x="406" y="-406" type="line"/>
      <point x="406" y="414" type="line"/>
      <point x="301" y="414" type="line"/>
      <point x="301" y="-406" type="line"/>
    </contour>
  </outline>
</glyph>
<glyph name="LftPtngDblAngQuotMrk" format="1">
  <advance width="920"/>
  <unicode hex="00AB"/>
  <outline>
    <contour>
      <point x="380" y="0" type="line" name="hr00"/>
      <point x="530" y="0" type="line"/>
      <point x="275" y="493" type="line"/>
      <point x="530" y="987" type="line"/>
      <point x="380" y="987" type="line"/>
      <point x="50" y="544" type="line"/>
      <point x="50" y="441" type="line"/>
    </contour>
    <contour>
      <point x="760" y="0" type="line"/>
      <point x="910" y="0" type="line"/>
      <point x="655" y="493" type="line"/>
      <point x="910" y="987" type="line"/>
      <point x="760" y="987" type="line"/>
      <point x="430" y="544" type="line"/>
      <point x="430" y="441" type="line"/>
    </contour>
  </outline>
</glyph>
<glyph name="SupTwo" format="1">
  <advance width="780"/>
  <unicode hex="00B2"/>
  <outline>
    <contour>
      <point x="723" y="784" type="line" name="hr01"/>
      <point x="723" y="1024" type="line" name="hr02"/>
      <point x="637" y="1024" type="line"/>
      <point x="612" y="918" type="line" name="hr03"/>
      <point x="233" y="918" type="line"/>
      <point x="498" y="1077"/>
      <point x="694" y="1208"/>
      <point x="694" y="1384" type="curve" smooth="yes" name="hr04"/>
      <point x="694" y="1532"/>
      <point x="561" y="1628"/>
      <point x="393" y="1628" type="curve" smooth="yes"/>
      <point x="276" y="1628"/>
      <point x="68" y="1585"/>
      <point x="68" y="1432" type="curve" smooth="yes"/>
      <point x="68" y="1376"/>
      <point x="102" y="1341"/>
      <point x="168" y="1341" type="curve" smooth="yes"/>
      <point x="209" y="1341"/>
      <point x="258" y="1364"/>
      <point x="258" y="1364" type="curve"/>
      <point x="258" y="1530" type="line"/>
      <point x="289" y="1538"/>
      <point x="299" y="1546"/>
      <point x="336" y="1546" type="curve" smooth="yes"/>
      <point x="434" y="1546"/>
      <point x="500" y="1470"/>
      <point x="500" y="1374" type="curve" smooth="yes"/>
      <point x="500" y="1157"/>
      <point x="164" y="969"/>
      <point x="57" y="887" type="curve"/>
      <point x="57" y="784" type="line"/>
    </contour>
    <contour>
      <point x="390" y="1650" type="move" name="U"/>
    </contour>
    <contour>
      <point x="390" y="725" type="move" name="L"/>
    </contour>
  </outline>
</glyph>
<glyph name="PilcrowSgn" format="1">
  <advance width="1065"/>
  <unicode hex="00B6"/>
  <outline>
    <contour>
      <point x="883" y="1239" type="line" name="hr01"/>
      <point x="1010" y="1257" type="line"/>
      <point x="1010" y="1374" type="line" name="hr02"/>
      <point x="559" y="1374" type="line" smooth="yes"/>
      <point x="248" y="1374"/>
      <point x="55" y="1272"/>
      <point x="55" y="961" type="curve" smooth="yes"/>
      <point x="55" y="633"/>
      <point x="283" y="551"/>
      <point x="606" y="551" type="curve"/>
      <point x="606" y="1245" type="line"/>
      <point x="733" y="1245" type="line"/>
      <point x="733" y="-162" type="line"/>
      <point x="883" y="-162" type="line"/>
    </contour>
  </outline>
</glyph>
<glyph name="MascOrdIndicator" format="1">
  <advance width="778"/>
  <unicode hex="00BA"/>
  <outline>
    <contour>
      <point x="735" y="1079" type="curve" smooth="yes" name="hr00"/>
      <point x="735" y="1268"/>
      <point x="614" y="1399"/>
      <point x="395" y="1399" type="curve" smooth="yes"/>
      <point x="188" y="1399"/>
      <point x="43" y="1282"/>
      <point x="43" y="1081" type="curve" smooth="yes"/>
      <point x="43" y="887"/>
      <point x="182" y="770"/>
      <point x="385" y="770" type="curve" smooth="yes"/>
      <point x="606" y="770"/>
      <point x="735" y="897"/>
    </contour>
    <contour>
      <point x="696" y="612" type="line"/>
      <point x="696" y="684" type="line"/>
      <point x="84" y="684" type="line"/>
      <point x="84" y="612" type="line"/>
    </contour>
    <contour>
      <point x="539" y="1081" type="curve" smooth="yes"/>
      <point x="539" y="973"/>
      <point x="512" y="838"/>
      <point x="391" y="838" type="curve" smooth="yes"/>
      <point x="266" y="838"/>
      <point x="242" y="981"/>
      <point x="242" y="1085" type="curve" smooth="yes"/>
      <point x="242" y="1192"/>
      <point x="268" y="1329"/>
      <point x="389" y="1329" type="curve" smooth="yes"/>
      <point x="510" y="1329"/>
      <point x="539" y="1186"/>
    </contour>
  </outline>
</glyph>
<glyph name="InvQstnMrk" format="1">
  <advance width="1069"/>
  <unicode hex="00BF"/>
  <outline>
    <contour>
      <point x="801" y="858" type="curve" smooth="yes" name="hr01"/>
      <point x="801" y="946"/>
      <point x="733" y="1024"/>
      <point x="645" y="1024" type="curve" smooth="yes"/>
      <point x="555" y="1024"/>
      <point x="477" y="956"/>
      <point x="477" y="866" type="curve" smooth="yes"/>
      <point x="477" y="774"/>
      <point x="545" y="694"/>
      <point x="643" y="694" type="curve" smooth="yes"/>
      <point x="731" y="694"/>
      <point x="801" y="768"/>
    </contour>
    <contour>
      <point x="979" y="-164" type="curve" smooth="yes"/>
      <point x="979" y="-37"/>
      <point x="856" y="-33"/>
      <point x="803" y="-33" type="curve" smooth="yes"/>
      <point x="782" y="-33"/>
      <point x="778" y="-37"/>
      <point x="778" y="-37" type="curve"/>
      <point x="686" y="-283" type="line"/>
      <point x="506" y="-283"/>
      <point x="418" y="-174"/>
      <point x="418" y="-23" type="curve" smooth="yes"/>
      <point x="418" y="258"/>
      <point x="715" y="322"/>
      <point x="715" y="322" type="curve" name="hr02"/>
      <point x="715" y="594" type="line"/>
      <point x="575" y="594" type="line"/>
      <point x="575" y="420" type="line"/>
      <point x="575" y="420"/>
      <point x="131" y="330"/>
      <point x="131" y="-18" type="curve" smooth="yes"/>
      <point x="131" y="-256"/>
      <point x="332" y="-408"/>
      <point x="596" y="-408" type="curve" smooth="yes"/>
      <point x="762" y="-408"/>
      <point x="979" y="-342"/>
    </contour>
  </outline>
</glyph>
<glyph name="LtnCapOStrk" format="1">
  <advance width="1548"/>
  <unicode hex="00D8"/>
  <outline>
    <contour>
      <point x="481" y="299" type="line" name="hr00"/>
      <point x="428" y="410"/>
      <point x="403" y="551"/>
      <point x="403" y="690" type="curve" smooth="yes"/>
      <point x="403" y="965"/>
      <point x="502" y="1270"/>
      <point x="786" y="1270" type="curve" smooth="yes"/>
      <point x="866" y="1270"/>
      <point x="934" y="1239"/>
      <point x="987" y="1184" type="curve"/>
    </contour>
    <contour>
      <point x="1063" y="1073" type="line"/>
      <point x="1116" y="967"/>
      <point x="1145" y="823"/>
      <point x="1145" y="672" type="curve" smooth="yes"/>
      <point x="1145" y="408"/>
      <point x="1040" y="96"/>
      <point x="766" y="96" type="curve" smooth="yes"/>
      <point x="680" y="96"/>
      <point x="610" y="131"/>
      <point x="557" y="188" type="curve"/>
    </contour>
    <contour>
      <point x="1292" y="1473" type="line"/>
      <point x="1186" y="1532" type="line"/>
      <point x="1077" y="1341" type="line"/>
      <point x="987" y="1382"/>
      <point x="883" y="1407"/>
      <point x="768" y="1407" type="curve" smooth="yes"/>
      <point x="332" y="1407"/>
      <point x="76" y="1100"/>
      <point x="76" y="696" type="curve" smooth="yes"/>
      <point x="76" y="416"/>
      <point x="184" y="209"/>
      <point x="360" y="88" type="curve"/>
      <point x="244" y="-117" type="line"/>
      <point x="348" y="-178" type="line"/>
      <point x="467" y="29" type="line"/>
      <point x="561" y="-12"/>
      <point x="670" y="-33"/>
      <point x="786" y="-33" type="curve" smooth="yes"/>
      <point x="1198" y="-33"/>
      <point x="1475" y="289"/>
      <point x="1475" y="680" type="curve" smooth="yes"/>
      <point x="1475" y="928"/>
      <point x="1366" y="1147"/>
      <point x="1182" y="1280" type="curve"/>
    </contour>
    <contour>
      <point x="775" y="1500" type="move" name="U"/>
    </contour>
    <contour>
      <point x="775" y="-100" type="move" name="L"/>
    </contour>
  </outline>
</glyph>
<glyph name="LtnSmDCaron" format="1">
  <advance width="1529"/>
  <unicode hex="010F"/>
  <outline>
    <contour>
      <point x="1194" y="0" type="line" name="hr01"/>
      <point x="1194" y="96" type="line"/>
      <point x="1108" y="102" type="line" smooth="yes"/>
      <point x="1083" y="104"/>
      <point x="1063" y="125"/>
      <point x="1063" y="150" type="curve" smooth="yes"/>
      <point x="1063" y="1516" type="line"/>
      <point x="958" y="1516" type="line"/>
      <point x="639" y="1413" type="line"/>
      <point x="639" y="1329" type="line"/>
      <point x="791" y="1329" type="line"/>
      <point x="791" y="999" type="line" name="hr02"/>
      <point x="791" y="999"/>
      <point x="678" y="1024"/>
      <point x="600" y="1024" type="curve" smooth="yes" name="hr03"/>
      <point x="291" y="1024"/>
      <point x="66" y="829"/>
      <point x="66" y="477" type="curve" smooth="yes"/>
      <point x="66" y="188"/>
      <point x="217" y="-25"/>
      <point x="467" y="-25" type="curve" smooth="yes"/>
      <point x="616" y="-25"/>
      <point x="760" y="102"/>
      <point x="791" y="119" type="curve"/>
      <point x="791" y="0" type="line" name="hr04"/>
    </contour>
    <contour>
      <point x="791" y="203" type="line" name="hr05"/>
      <point x="791" y="203"/>
      <point x="705" y="164"/>
      <point x="631" y="164" type="curve" smooth="yes"/>
      <point x="453" y="164"/>
      <point x="365" y="309"/>
      <point x="365" y="524" type="curve" smooth="yes"/>
      <point x="365" y="735"/>
      <point x="455" y="901"/>
      <point x="645" y="901" type="curve" smooth="yes"/>
      <point x="707" y="901"/>
      <point x="791" y="864"/>
      <point x="791" y="864" type="curve"/>
    </contour>
    <contour>
      <point x="1464" y="1389" type="curve" smooth="yes"/>
      <point x="1464" y="1485"/>
      <point x="1393" y="1561"/>
      <point x="1288" y="1561" type="curve" smooth="yes"/>
      <point x="1217" y="1561"/>
      <point x="1149" y="1524"/>
      <point x="1149" y="1442" type="curve" smooth="yes"/>
      <point x="1149" y="1409"/>
      <point x="1163" y="1376"/>
      <point x="1190" y="1352" type="curve" name="hr06"/>
      <point x="1319" y="1352" type="line"/>
      <point x="1319" y="1286"/>
      <point x="1253" y="1223"/>
      <point x="1174" y="1200" type="curve"/>
      <point x="1174" y="1118" type="line"/>
      <point x="1331" y="1149"/>
      <point x="1464" y="1247"/>
    </contour>
    <contour>
      <point x="669" y="0" type="move" name="H"/>
    </contour>
    <contour>
      <point x="665" y="1540" type="move" name="U"/>
    </contour>
    <contour>
      <point x="669" y="-100" type="move" name="L"/>
    </contour>
  </outline>
</glyph>
<glyph name="LtnSmEOgonek" format="1">
  <advance width="1083"/>
  <unicode hex="0119"/>
  <outline>
    <contour>
      <point x="942" y="-362" type="curve" name="hr00"/>
      <point x="878" y="-256" type="line"/>
      <point x="866" y="-264"/>
      <point x="815" y="-307"/>
      <point x="788" y="-307" type="curve" smooth="yes"/>
      <point x="721" y="-307"/>
      <point x="686" y="-260"/>
      <point x="686" y="-201" type="curve" smooth="yes"/>
      <point x="686" y="-121"/>
      <point x="758" y="-26"/>
      <point x="846" y="17" type="curve"/>
      <point x="686" y="2" type="line"/>
      <point x="624" y="-41"/>
      <point x="520" y="-133"/>
      <point x="520" y="-254" type="curve" smooth="yes"/>
      <point x="520" y="-362"/>
      <point x="618" y="-426"/>
      <point x="747" y="-426" type="curve" smooth="yes"/>
      <point x="809" y="-426"/>
      <point x="942" y="-362"/>
    </contour>
    <contour>
      <point x="568" y="1100" type="move" name="U"/>
    </contour>
    <contour>
      <point x="568" y="-500" type="move" name="L"/>
    </contour>
    <component base="LtnSmE"/>
  </outline>
</glyph>
<glyph name="LtnSmHCircum" format="1">
  <advance width="1282"/>
  <unicode hex="0125"/>
  <outline>
    <contour>
      <point x="1229" y="0" type="line" name="hr01"/>
      <point x="1229" y="96" type="line"/>
      <point x="1143" y="102" type="line" smooth="yes"/>
      <point x="1118" y="104"/>
      <point x="1098" y="125"/>
      <point x="1098" y="150" type="curve" smooth="yes"/>
      <point x="1098" y="702" type="line" smooth="yes"/>
      <point x="1098" y="823"/>
      <point x="1059" y="1024"/>
      <point x="817" y="1024" type="curve" smooth="yes"/>
      <point x="657" y="1024"/>
      <point x="459" y="897"/>
      <point x="459" y="897" type="curve"/>
      <point x="459" y="1516" type="line"/>
      <point x="352" y="1516" type="line"/>
      <point x="39" y="1413" type="line"/>
      <point x="39" y="1329" type="line"/>
      <point x="184" y="1329" type="line"/>
      <point x="184" y="150" type="line" smooth="yes"/>
      <point x="184" y="125"/>
      <point x="164" y="104"/>
      <point x="139" y="102" type="curve" smooth="yes"/>
      <point x="55" y="96" type="line" name="hr02"/>
      <point x="55" y="0" type="line"/>
      <point x="575" y="0" type="line" name="hr03"/>
      <point x="575" y="96" type="line"/>
      <point x="504" y="102" type="line" smooth="yes" name="hr04"/>
      <point x="479" y="104"/>
      <point x="459" y="125"/>
      <point x="459" y="150" type="curve" smooth="yes"/>
      <point x="459" y="809" type="line"/>
      <point x="459" y="809"/>
      <point x="569" y="836"/>
      <point x="651" y="836" type="curve" smooth="yes"/>
      <point x="803" y="836"/>
      <point x="823" y="700"/>
      <point x="823" y="633" type="curve" smooth="yes"/>
      <point x="823" y="150" type="line" smooth="yes"/>
      <point x="823" y="125"/>
      <point x="803" y="104"/>
      <point x="778" y="102" type="curve" smooth="yes"/>
      <point x="713" y="96" type="line"/>
      <point x="713" y="0" type="line"/>
    </contour>
    <contour>
      <point x="678" y="1568" type="line"/>
      <point x="451" y="1919" type="line"/>
      <point x="209" y="1919" type="line" name="hr05"/>
      <point x="-18" y="1568" type="line"/>
      <point x="152" y="1568" type="line"/>
      <point x="330" y="1763" type="line" name="hr06"/>
      <point x="508" y="1568" type="line"/>
    </contour>
    <contour>
      <point x="321" y="0" type="move" name="H"/>
    </contour>
    <contour>
      <point x="330" y="1940" type="move" name="U"/>
    </contour>
    <contour>
      <point x="634" y="-100" type="move" name="L"/>
    </contour>
  </outline>
</glyph>
<glyph name="LtnSmLCaron" format="1">
  <advance width="947"/>
  <unicode hex="013E"/>
  <outline>
    <contour>
      <point x="625" y="0" type="line" name="hr01"/>
      <point x="625" y="96" type="line"/>
      <point x="522" y="102" type="line" smooth="yes"/>
      <point x="496" y="104"/>
      <point x="477" y="123"/>
      <point x="477" y="150" type="curve" smooth="yes"/>
      <point x="477" y="1516" type="line"/>
      <point x="373" y="1516" type="line"/>
      <point x="59" y="1413" type="line"/>
      <point x="59" y="1329" type="line"/>
      <point x="205" y="1329" type="line"/>
      <point x="205" y="150" type="line" smooth="yes"/>
      <point x="205" y="123"/>
      <point x="186" y="104"/>
      <point x="160" y="102" type="curve" smooth="yes"/>
      <point x="59" y="96" type="line"/>
      <point x="59" y="0" type="line"/>
    </contour>
    <contour>
      <point x="882" y="1389" type="curve" smooth="yes"/>
      <point x="882" y="1485"/>
      <point x="811" y="1561"/>
      <point x="706" y="1561" type="curve" smooth="yes" name="hr02"/>
      <point x="635" y="1561"/>
      <point x="567" y="1524"/>
      <point x="567" y="1442" type="curve" smooth="yes"/>
      <point x="567" y="1409"/>
      <point x="581" y="1376"/>
      <point x="608" y="1352" type="curve" name="hr03"/>
      <point x="737" y="1352" type="line"/>
      <point x="737" y="1286"/>
      <point x="671" y="1223"/>
      <point x="592" y="1200" type="curve"/>
      <point x="592" y="1118" type="line"/>
      <point x="749" y="1149"/>
      <point x="882" y="1247"/>
    </contour>
    <contour>
      <point x="366" y="0" type="move" name="H"/>
    </contour>
    <contour>
      <point x="365" y="1580" type="move" name="U"/>
    </contour>
    <contour>
      <point x="365" y="-100" type="move" name="L"/>
    </contour>
  </outline>
</glyph>
<glyph name="LtnSmLStrk" format="1">
  <advance width="682"/>
  <unicode hex="0142"/>
  <outline>
    <contour>
      <point x="698" y="930" type="line" name="hr00"/>
      <point x="639" y="1026" type="line"/>
      <point x="477" y="913" type="line"/>
      <point x="477" y="1516" type="line"/>
      <point x="385" y="1516" type="line"/>
      <point x="59" y="1413" type="line"/>
      <point x="59" y="1325" type="line"/>
      <point x="205" y="1325" type="line"/>
      <point x="205" y="723" type="line"/>
      <point x="-14" y="569" type="line"/>
      <point x="43" y="471" type="line"/>
      <point x="205" y="586" type="line"/>
      <point x="205" y="150" type="line" smooth="yes"/>
      <point x="205" y="123"/>
      <point x="184" y="104"/>
      <point x="160" y="102" type="curve" smooth="yes"/>
      <point x="59" y="96" type="line"/>
      <point x="59" y="0" type="line"/>
      <point x="627" y="0" type="line"/>
      <point x="627" y="96" type="line"/>
      <point x="524" y="102" type="line" smooth="yes"/>
      <point x="500" y="104"/>
      <point x="477" y="123"/>
      <point x="477" y="150" type="curve" smooth="yes"/>
      <point x="477" y="774" type="line"/>
    </contour>
    <contour>
      <point x="342" y="1540" type="move" name="U"/>
    </contour>
    <contour>
      <point x="342" y="-100" type="move" name="L"/>
    </contour>
  </outline>
</glyph>
<glyph name="LtnCapLigOe" format="1">
  <advance width="2073"/>
  <unicode hex="0152"/>
  <outline>
    <contour>
      <point x="2009" y="0" type="line" name="hr01"/>
      <point x="2009" y="375" type="line"/>
      <point x="1862" y="375" type="line"/>
      <point x="1831" y="162" type="line"/>
      <point x="1827" y="147"/>
      <point x="1808" y="123"/>
      <point x="1792" y="123" type="curve" smooth="yes"/>
      <point x="1364" y="123" type="line"/>
      <point x="1364" y="645" type="line"/>
      <point x="1587" y="645" type="line" smooth="yes"/>
      <point x="1606" y="645"/>
      <point x="1624" y="623"/>
      <point x="1624" y="608" type="curve"/>
      <point x="1642" y="469" type="line"/>
      <point x="1767" y="469" type="line"/>
      <point x="1767" y="950" type="line"/>
      <point x="1640" y="950" type="line"/>
      <point x="1624" y="811" type="line"/>
      <point x="1624" y="797"/>
      <point x="1608" y="774"/>
      <point x="1589" y="774" type="curve" smooth="yes"/>
      <point x="1364" y="774" type="line"/>
      <point x="1364" y="1255" type="line"/>
      <point x="1733" y="1255" type="line" smooth="yes"/>
      <point x="1751" y="1255"/>
      <point x="1763" y="1237"/>
      <point x="1767" y="1217" type="curve" smooth="yes"/>
      <point x="1794" y="1047" type="line"/>
      <point x="1946" y="1047" type="line"/>
      <point x="1946" y="1374" type="line"/>
      <point x="1096" y="1374" type="line"/>
      <point x="1096" y="1200" type="line"/>
      <point x="1096" y="1200"/>
      <point x="997" y="1397"/>
      <point x="725" y="1397" type="curve" smooth="yes" name="hr02"/>
      <point x="190" y="1397"/>
      <point x="76" y="961"/>
      <point x="76" y="686" type="curve" smooth="yes"/>
      <point x="76" y="328"/>
      <point x="287" y="-25"/>
      <point x="682" y="-25" type="curve" smooth="yes"/>
      <point x="967" y="-25"/>
      <point x="1096" y="190"/>
      <point x="1096" y="190" type="curve"/>
      <point x="1096" y="0" type="line" name="hr03"/>
    </contour>
    <contour>
      <point x="1100" y="676" type="curve" smooth="yes"/>
      <point x="1100" y="352"/>
      <point x="969" y="119"/>
      <point x="748" y="119" type="curve" smooth="yes" name="hr04"/>
      <point x="500" y="119"/>
      <point x="397" y="420"/>
      <point x="397" y="690" type="curve" smooth="yes"/>
      <point x="397" y="940"/>
      <point x="477" y="1257"/>
      <point x="762" y="1257" type="curve" smooth="yes"/>
      <point x="987" y="1257"/>
      <point x="1100" y="981"/>
    </contour>
    <contour>
      <point x="1042" y="1500" type="move" name="U"/>
    </contour>
    <contour>
      <point x="1042" y="-100" type="move" name="L"/>
    </contour>
  </outline>
</glyph>
<glyph name="LtnCapTStrk" format="1">
  <advance width="1247"/>
  <unicode hex="0166"/>
  <outline>
    <contour>
      <point x="1214" y="999" type="line" name="hr00"/>
      <point x="1214" y="1374" type="line"/>
      <point x="33" y="1374" type="line"/>
      <point x="33" y="999" type="line"/>
      <point x="180" y="999" type="line"/>
      <point x="217" y="1227" type="line" smooth="yes"/>
      <point x="219" y="1243"/>
      <point x="231" y="1251"/>
      <point x="248" y="1251" type="curve" smooth="yes"/>
      <point x="477" y="1251" type="line"/>
      <point x="477" y="791" type="line"/>
      <point x="231" y="791" type="line"/>
      <point x="231" y="662" type="line"/>
      <point x="477" y="662" type="line"/>
      <point x="477" y="160" type="line" smooth="yes"/>
      <point x="477" y="133"/>
      <point x="455" y="117"/>
      <point x="430" y="115" type="curve" smooth="yes"/>
      <point x="311" y="104" type="line"/>
      <point x="311" y="0" type="line"/>
      <point x="936" y="0" type="line"/>
      <point x="936" y="104" type="line"/>
      <point x="815" y="115" type="line" smooth="yes"/>
      <point x="791" y="117"/>
      <point x="770" y="133"/>
      <point x="770" y="160" type="curve" smooth="yes"/>
      <point x="770" y="662" type="line"/>
      <point x="1016" y="662" type="line"/>
      <point x="1016" y="791" type="line"/>
      <point x="770" y="791" type="line"/>
      <point x="770" y="1251" type="line"/>
      <point x="999" y="1251" type="line" smooth="yes"/>
      <point x="1016" y="1251"/>
      <point x="1026" y="1243"/>
      <point x="1028" y="1227" type="curve" smooth="yes"/>
      <point x="1065" y="999" type="line"/>
    </contour>
    <contour>
      <point x="623" y="1500" type="move" name="U"/>
    </contour>
    <contour>
      <point x="623" y="-100" type="move" name="L"/>
    </contour>
  </outline>
</glyph>
<glyph name="LtnSmBBarredStem" format="1">
  <advance width="1225"/>
  <unicode hex="0180"/>
  <outline>
    <contour>
      <point x="1159" y="561" type="curve" smooth="yes" name="hr00"/>
      <point x="1159" y="854"/>
      <point x="975" y="1024"/>
      <point x="756" y="1024" type="curve" smooth="yes"/>
      <point x="602" y="1024"/>
      <point x="459" y="930"/>
      <point x="459" y="930" type="curve"/>
      <point x="459" y="1092" type="line"/>
      <point x="672" y="1092" type="line"/>
      <point x="672" y="1221" type="line"/>
      <point x="459" y="1221" type="line"/>
      <point x="459" y="1516" type="line"/>
      <point x="354" y="1516" type="line"/>
      <point x="41" y="1413" type="line"/>
      <point x="41" y="1329" type="line"/>
      <point x="184" y="1329" type="line"/>
      <point x="184" y="1221" type="line"/>
      <point x="10" y="1221" type="line"/>
      <point x="10" y="1092" type="line"/>
      <point x="184" y="1092" type="line"/>
      <point x="184" y="0" type="line"/>
      <point x="559" y="0" type="line" smooth="yes"/>
      <point x="942" y="0"/>
      <point x="1159" y="246"/>
    </contour>
    <contour>
      <point x="862" y="500" type="curve" smooth="yes"/>
      <point x="862" y="209"/>
      <point x="729" y="113"/>
      <point x="502" y="113" type="curve" smooth="yes"/>
      <point x="489" y="113"/>
      <point x="483" y="115"/>
      <point x="459" y="115" type="curve"/>
      <point x="459" y="842" type="line"/>
      <point x="459" y="842"/>
      <point x="518" y="854"/>
      <point x="567" y="854" type="curve" smooth="yes"/>
      <point x="760" y="854"/>
      <point x="862" y="721"/>
    </contour>
    <contour>
      <point x="649" y="1540" type="move" name="U"/>
    </contour>
    <contour>
      <point x="649" y="-100" type="move" name="L"/>
    </contour>
  </outline>
</glyph>
<glyph name="LtnCapTnSix" format="1">
  <advance width="1309"/>
  <unicode hex="0184"/>
  <outline>
    <contour>
      <point x="1233" y="399" type="curve" smooth="yes" name="hr01"/>
      <point x="1233" y="679"/>
      <point x="969" y="766"/>
      <point x="612" y="766" type="curve" smooth="yes"/>
      <point x="580" y="766"/>
      <point x="539" y="762"/>
      <point x="506" y="760" type="curve"/>
      <point x="506" y="1293"/>
      <point x="506" y="1414"/>
      <point x="506" y="1414" type="curve"/>
      <point x="23" y="934" type="line"/>
      <point x="213" y="774" type="line"/>
      <point x="213" y="160" type="line" smooth="yes" name="hr02"/>
      <point x="213" y="133"/>
      <point x="193" y="117"/>
      <point x="168" y="115" type="curve" smooth="yes"/>
      <point x="43" y="104" type="line"/>
      <point x="43" y="0" type="line" name="hr03"/>
      <point x="506" y="0"/>
      <point x="428" y="0"/>
      <point x="578" y="0" type="curve" smooth="yes"/>
      <point x="1044" y="0"/>
      <point x="1233" y="120"/>
    </contour>
    <contour>
      <point x="926" y="385" type="curve" smooth="yes"/>
      <point x="926" y="180"/>
      <point x="801" y="113"/>
      <point x="567" y="113" type="curve" smooth="yes"/>
      <point x="545" y="113"/>
      <point x="522" y="115"/>
      <point x="506" y="115" type="curve"/>
      <point x="506" y="641" type="line"/>
      <point x="532" y="645"/>
      <point x="573" y="650"/>
      <point x="594" y="650" type="curve" smooth="yes"/>
      <point x="764" y="650"/>
      <point x="926" y="612"/>
    </contour>
    <contour>
      <point x="628" y="1500" type="move" name="U"/>
    </contour>
    <contour>
      <point x="628" y="-100" type="move" name="L"/>
    </contour>
  </outline>
</glyph>
<glyph name="LtnCapOpnO" format="1">
  <advance width="1303"/>
  <unicode hex="0186"/>
  <outline>
    <contour>
      <point x="1229" y="686" type="curve" smooth="yes" name="hr00"/>
      <point x="1229" y="1108"/>
      <point x="930" y="1407"/>
      <point x="510" y="1407" type="curve" smooth="yes"/>
      <point x="297" y="1407"/>
      <point x="127" y="1346"/>
      <point x="76" y="1325" type="curve"/>
      <point x="76" y="967" type="line"/>
      <point x="236" y="967" type="line"/>
      <point x="283" y="1208" type="line" smooth="yes"/>
      <point x="285" y="1221"/>
      <point x="305" y="1243"/>
      <point x="315" y="1247" type="curve" smooth="yes"/>
      <point x="338" y="1257"/>
      <point x="385" y="1274"/>
      <point x="434" y="1274" type="curve" smooth="yes"/>
      <point x="778" y="1274"/>
      <point x="905" y="977"/>
      <point x="905" y="690" type="curve" smooth="yes"/>
      <point x="905" y="336"/>
      <point x="731" y="106"/>
      <point x="453" y="106" type="curve" smooth="yes"/>
      <point x="401" y="106"/>
      <point x="328" y="129"/>
      <point x="305" y="139" type="curve" smooth="yes"/>
      <point x="293" y="145"/>
      <point x="279" y="166"/>
      <point x="279" y="172" type="curve" smooth="yes"/>
      <point x="233" y="401" type="line"/>
      <point x="76" y="401" type="line"/>
      <point x="76" y="53" type="line"/>
      <point x="264" y="-8"/>
      <point x="350" y="-33"/>
      <point x="508" y="-33" type="curve" smooth="yes"/>
      <point x="913" y="-33"/>
      <point x="1229" y="258"/>
    </contour>
    <contour>
      <point x="624" y="1500" type="move" name="U"/>
    </contour>
    <contour>
      <point x="624" y="-100" type="move" name="L"/>
    </contour>
  </outline>
</glyph>
<glyph name="LtnCapAfricanD" format="1">
  <advance width="1483"/>
  <unicode hex="0189"/>
  <outline>
    <contour>
      <point x="29" y="653" type="line" name="hr00"/>
      <point x="812" y="653" type="line"/>
      <point x="812" y="786" type="line"/>
      <point x="29" y="786" type="line"/>
    </contour>
    <contour>
      <point x="718" y="1500" type="move" name="U"/>
    </contour>
    <contour>
      <point x="718" y="-100" type="move" name="L"/>
    </contour>
    <component base="LtnCapD"/>
  </outline>
</glyph>
<glyph name="LtnCapDTopbar" format="1">
  <advance width="1286"/>
  <unicode hex="018B"/>
  <outline>
    <contour>
      <point x="1243" y="104" type="line" name="hr01"/>
      <point x="1118" y="115" type="line" smooth="yes"/>
      <point x="1093" y="117"/>
      <point x="1073" y="133"/>
      <point x="1073" y="160" type="curve" smooth="yes"/>
      <point x="1073" y="1214" type="line" smooth="yes"/>
      <point x="1073" y="1241"/>
      <point x="1093" y="1257"/>
      <point x="1118" y="1260" type="curve"/>
      <point x="1243" y="1270" type="line"/>
      <point x="1243" y="1374" type="line" name="hr02"/>
      <point x="219" y="1374" type="line"/>
      <point x="219" y="1038" type="line"/>
      <point x="366" y="1038" type="line"/>
      <point x="393" y="1212" type="line"/>
      <point x="399" y="1245"/>
      <point x="412" y="1257"/>
      <point x="438" y="1257" type="curve" smooth="yes"/>
      <point x="749" y="1257" type="line" smooth="yes"/>
      <point x="770" y="1257"/>
      <point x="780" y="1239"/>
      <point x="780" y="1227" type="curve" smooth="yes"/>
      <point x="780" y="760" type="line"/>
      <point x="780" y="760"/>
      <point x="716" y="770"/>
      <point x="674" y="770" type="curve"/>
      <point x="317" y="770"/>
      <point x="56" y="668"/>
      <point x="56" y="368" type="curve" smooth="yes"/>
      <point x="56" y="69"/>
      <point x="322" y="0"/>
      <point x="708" y="0" type="curve"/>
      <point x="1243" y="0" type="line"/>
    </contour>
    <contour>
      <point x="780" y="115" type="line"/>
      <point x="719" y="115" type="line"/>
      <point x="485" y="115"/>
      <point x="361" y="187"/>
      <point x="361" y="378" type="curve" smooth="yes"/>
      <point x="361" y="622"/>
      <point x="522" y="650"/>
      <point x="692" y="650" type="curve" smooth="yes"/>
      <point x="725" y="650"/>
      <point x="754" y="644"/>
      <point x="780" y="640" type="curve"/>
    </contour>
    <contour>
      <point x="649" y="1500" type="move" name="U"/>
    </contour>
    <contour>
      <point x="649" y="-100" type="move" name="L"/>
    </contour>
  </outline>
</glyph>
<glyph name="LtnCapGamma" format="1">
  <advance width="1425"/>
  <unicode hex="0194"/>
  <outline>
    <contour>
      <point x="1405" y="1270" type="line" name="hr01"/>
      <point x="1405" y="1374" type="line"/>
      <point x="946" y="1374" type="line"/>
      <point x="946" y="1270" type="line"/>
      <point x="1057" y="1255" type="line" smooth="yes" name="hr02"/>
      <point x="1087" y="1251"/>
      <point x="1094" y="1227"/>
      <point x="1085" y="1212" type="curve" smooth="yes"/>
      <point x="748" y="709" type="line"/>
      <point x="469" y="1210" type="line" smooth="yes"/>
      <point x="461" y="1227"/>
      <point x="465" y="1251"/>
      <point x="489" y="1255" type="curve" smooth="yes"/>
      <point x="604" y="1270" type="line" name="hr03"/>
      <point x="604" y="1374" type="line"/>
      <point x="20" y="1374" type="line"/>
      <point x="20" y="1270" type="line"/>
      <point x="152" y="1251" type="line"/>
      <point x="582" y="459" type="line"/>
      <point x="469" y="293" type="line" smooth="yes"/>
      <point x="453" y="268"/>
      <point x="428" y="213"/>
      <point x="428" y="150" type="curve" smooth="yes"/>
      <point x="428" y="0"/>
      <point x="578" y="-33"/>
      <point x="707" y="-33" type="curve" smooth="yes"/>
      <point x="885" y="-33"/>
      <point x="997" y="68"/>
      <point x="997" y="180" type="curve" smooth="yes"/>
      <point x="997" y="244"/>
      <point x="989" y="272"/>
      <point x="967" y="311" type="curve" smooth="yes"/>
      <point x="831" y="555" type="line"/>
      <point x="1276" y="1253" type="line"/>
    </contour>
    <contour>
      <point x="727" y="162" type="curve" smooth="yes"/>
      <point x="727" y="121"/>
      <point x="727" y="90"/>
      <point x="674" y="90" type="curve" smooth="yes"/>
      <point x="621" y="90"/>
      <point x="602" y="106"/>
      <point x="602" y="166" type="curve" smooth="yes"/>
      <point x="602" y="193"/>
      <point x="612" y="211"/>
      <point x="623" y="227" type="curve" smooth="yes"/>
      <point x="668" y="297" type="line"/>
      <point x="707" y="227" type="line" smooth="yes"/>
      <point x="721" y="201"/>
      <point x="727" y="182"/>
    </contour>
    <contour>
      <point x="761" y="1500" type="move" name="U"/>
    </contour>
    <contour>
      <point x="761" y="-100" type="move" name="L"/>
    </contour>
  </outline>
</glyph>
<glyph name="LtnSmHv" format="1">
  <advance width="1889"/>
  <unicode hex="0195"/>
  <outline>
    <contour>
      <point x="823" y="295" type="line" name="hr01"/>
      <point x="823" y="88"/>
      <point x="1017" y="-33"/>
      <point x="1265" y="-33" type="curve" smooth="yes" name="hr02"/>
      <point x="1488" y="-33"/>
      <point x="1724" y="88"/>
      <point x="1724" y="295" type="curve" smooth="yes"/>
      <point x="1724" y="1024" type="line"/>
      <point x="1620" y="1024" type="line"/>
      <point x="1321" y="922" type="line" name="hr03"/>
      <point x="1321" y="838" type="line"/>
      <point x="1450" y="838" type="line"/>
      <point x="1450" y="280" type="line" smooth="yes"/>
      <point x="1450" y="178"/>
      <point x="1370" y="115"/>
      <point x="1286" y="115" type="curve" smooth="yes"/>
      <point x="1182" y="115"/>
      <point x="1098" y="184"/>
      <point x="1098" y="280" type="curve"/>
      <point x="1098" y="702" type="line" smooth="yes"/>
      <point x="1098" y="823"/>
      <point x="1059" y="1024"/>
      <point x="817" y="1024" type="curve" smooth="yes" name="hr04"/>
      <point x="657" y="1024"/>
      <point x="459" y="897"/>
      <point x="459" y="897" type="curve"/>
      <point x="459" y="1516" type="line"/>
      <point x="352" y="1516" type="line"/>
      <point x="39" y="1413" type="line"/>
      <point x="39" y="1329" type="line"/>
      <point x="184" y="1329" type="line"/>
      <point x="184" y="150" type="line" smooth="yes"/>
      <point x="184" y="125"/>
      <point x="164" y="104"/>
      <point x="139" y="102" type="curve" smooth="yes"/>
      <point x="55" y="96" type="line"/>
      <point x="55" y="0" type="line"/>
      <point x="575" y="0" type="line"/>
      <point x="575" y="96" type="line"/>
      <point x="504" y="102" type="line" smooth="yes"/>
      <point x="479" y="104"/>
      <point x="459" y="125"/>
      <point x="459" y="150" type="curve" smooth="yes"/>
      <point x="459" y="809" type="line"/>
      <point x="459" y="809"/>
      <point x="569" y="836"/>
      <point x="651" y="836" type="curve" smooth="yes"/>
      <point x="803" y="836"/>
      <point x="823" y="700"/>
      <point x="823" y="633" type="curve" smooth="yes"/>
    </contour>
    <contour>
      <point x="971" y="1100" type="move" name="U"/>
    </contour>
    <contour>
      <point x="971" y="-100" type="move" name="L"/>
    </contour>
  </outline>
</glyph>
<glyph name="LtnSmKHook" format="1">
  <advance width="1212"/>
  <unicode hex="0199"/>
  <outline>
    <contour>
      <point x="1194" y="0" type="line" name="hr01"/>
      <point x="1194" y="96" type="line"/>
      <point x="1073" y="106" type="line"/>
      <point x="758" y="637" type="line"/>
      <point x="977" y="887" type="line"/>
      <point x="1112" y="903" type="line" name="hr02"/>
      <point x="1112" y="999" type="line"/>
      <point x="686" y="999" type="line"/>
      <point x="686" y="903" type="line"/>
      <point x="764" y="895" type="line" smooth="yes"/>
      <point x="784" y="893"/>
      <point x="791" y="874"/>
      <point x="778" y="860" type="curve" smooth="yes"/>
      <point x="504" y="532" type="line"/>
      <point x="459" y="532" type="line"/>
      <point x="459" y="1102" type="line" smooth="yes"/>
      <point x="459" y="1288"/>
      <point x="485" y="1354"/>
      <point x="526" y="1415" type="curve"/>
      <point x="729" y="1225" type="line"/>
      <point x="795" y="1247"/>
      <point x="856" y="1296"/>
      <point x="856" y="1360" type="curve" smooth="yes"/>
      <point x="856" y="1477"/>
      <point x="741" y="1516"/>
      <point x="659" y="1516" type="curve" smooth="yes"/>
      <point x="377" y="1516"/>
      <point x="184" y="1249"/>
      <point x="184" y="985" type="curve" smooth="yes"/>
      <point x="184" y="150" type="line" smooth="yes"/>
      <point x="184" y="125"/>
      <point x="164" y="104"/>
      <point x="139" y="102" type="curve" smooth="yes"/>
      <point x="53" y="96" type="line"/>
      <point x="53" y="0" type="line"/>
      <point x="586" y="0" type="line"/>
      <point x="586" y="96" type="line"/>
      <point x="504" y="102" type="line" smooth="yes"/>
      <point x="477" y="104"/>
      <point x="459" y="125"/>
      <point x="459" y="150" type="curve" smooth="yes"/>
      <point x="459" y="463" type="line"/>
      <point x="555" y="463" type="line"/>
      <point x="780" y="84" type="line" name="hr03"/>
      <point x="780" y="0" type="line"/>
    </contour>
    <contour>
      <point x="623" y="1540" type="move" name="U"/>
    </contour>
    <contour>
      <point x="623" y="-100" type="move" name="L"/>
    </contour>
  </outline>
</glyph>
<glyph name="LtnCapOMiddleTilde" format="1">
  <advance width="1548"/>
  <unicode hex="019F"/>
  <outline>
    <contour>
      <point x="1475" y="680" type="curve" smooth="yes" name="hr00"/>
      <point x="1475" y="1077"/>
      <point x="1194" y="1407"/>
      <point x="768" y="1407" type="curve" smooth="yes"/>
      <point x="332" y="1407"/>
      <point x="76" y="1100"/>
      <point x="76" y="696" type="curve" smooth="yes"/>
      <point x="76" y="231"/>
      <point x="377" y="-33"/>
      <point x="786" y="-33" type="curve" smooth="yes"/>
      <point x="1198" y="-33"/>
      <point x="1475" y="289"/>
    </contour>
    <contour>
      <point x="1139" y="786" type="curve"/>
      <point x="408" y="786" type="line"/>
      <point x="428" y="1032"/>
      <point x="535" y="1270"/>
      <point x="786" y="1270" type="curve" smooth="yes"/>
      <point x="995" y="1270"/>
      <point x="1114" y="1057"/>
    </contour>
    <contour>
      <point x="1145" y="653" type="line"/>
      <point x="1139" y="393"/>
      <point x="1034" y="96"/>
      <point x="766" y="96" type="curve" smooth="yes"/>
      <point x="524" y="96"/>
      <point x="414" y="375"/>
      <point x="403" y="653" type="curve"/>
    </contour>
    <contour>
      <point x="775" y="1500" type="move" name="U"/>
    </contour>
    <contour>
      <point x="775" y="-100" type="move" name="L"/>
    </contour>
  </outline>
</glyph>
<glyph name="LtnCapOi" format="1">
  <advance width="2177"/>
  <unicode hex="01A2"/>
  <outline>
    <contour>
      <point x="2112" y="-340" type="line" name="hr01"/>
      <point x="1954" y="-333" type="line"/>
      <point x="1927" y="-331"/>
      <point x="1908" y="-311"/>
      <point x="1908" y="-288" type="curve" smooth="yes"/>
      <point x="1908" y="1407" type="line" name="hr02"/>
      <point x="1754" y="1407" type="line"/>
      <point x="1638" y="1350"/>
      <point x="1563" y="1332"/>
      <point x="1456" y="1332" type="curve" smooth="yes"/>
      <point x="1252" y="1332"/>
      <point x="1150" y="1407"/>
      <point x="775" y="1407" type="curve" smooth="yes"/>
      <point x="321" y="1407"/>
      <point x="74" y="1102"/>
      <point x="74" y="688" type="curve" smooth="yes" name="hr03"/>
      <point x="74" y="293"/>
      <point x="317" y="-33"/>
      <point x="784" y="-33" type="curve" smooth="yes"/>
      <point x="1046" y="-33"/>
      <point x="1332" y="118"/>
      <point x="1332" y="339" type="curve" smooth="yes"/>
      <point x="1332" y="1140" type="line" name="hr04"/>
      <point x="1399" y="1128"/>
      <point x="1548" y="1123"/>
      <point x="1615" y="1137" type="curve"/>
      <point x="1615" y="-288" type="line" smooth="yes"/>
      <point x="1615" y="-314"/>
      <point x="1593" y="-331"/>
      <point x="1570" y="-333" type="curve"/>
      <point x="1396" y="-340" type="line"/>
      <point x="1396" y="-446" type="line"/>
      <point x="2112" y="-446" type="line"/>
    </contour>
    <contour>
      <point x="1039" y="384" type="line"/>
      <point x="1039" y="163"/>
      <point x="873" y="96"/>
      <point x="764" y="96" type="curve" smooth="yes"/>
      <point x="540" y="96"/>
      <point x="401" y="341"/>
      <point x="401" y="690" type="curve" smooth="yes"/>
      <point x="401" y="996"/>
      <point x="519" y="1270"/>
      <point x="784" y="1270" type="curve" smooth="yes" name="hr05"/>
      <point x="903" y="1270"/>
      <point x="933" y="1259"/>
      <point x="1039" y="1209" type="curve"/>
    </contour>
    <contour>
      <point x="1093" y="1500" type="move" name="U"/>
    </contour>
    <contour>
      <point x="1093" y="-100" type="move" name="L"/>
    </contour>
  </outline>
</glyph>
<glyph name="LtnSmOi" format="1">
  <advance width="1758"/>
  <unicode hex="01A3"/>
  <outline>
    <contour>
      <point x="373" y="504" type="curve" smooth="yes" name="hr01"/>
      <point x="373" y="727"/>
      <point x="435" y="907"/>
      <point x="598" y="907" type="curve" smooth="yes"/>
      <point x="685" y="907"/>
      <point x="706" y="884"/>
      <point x="790" y="840" type="curve"/>
      <point x="790" y="276" type="line" smooth="yes"/>
      <point x="790" y="166"/>
      <point x="694" y="90"/>
      <point x="600" y="90" type="curve" smooth="yes"/>
      <point x="431" y="90"/>
      <point x="373" y="282"/>
    </contour>
    <contour>
      <point x="1283" y="-296" type="line"/>
      <point x="1283" y="-321"/>
      <point x="1265" y="-343"/>
      <point x="1240" y="-344" type="curve" smooth="yes"/>
      <point x="1137" y="-350" type="line"/>
      <point x="1137" y="-446" type="line"/>
      <point x="1703" y="-446" type="line"/>
      <point x="1703" y="-350" type="line"/>
      <point x="1598" y="-344" type="line" smooth="yes"/>
      <point x="1574" y="-343"/>
      <point x="1555" y="-321"/>
      <point x="1555" y="-296" type="curve" smooth="yes"/>
      <point x="1555" y="1024" type="line"/>
      <point x="1450" y="1024" type="line"/>
      <point x="1362" y="984"/>
      <point x="1282" y="949"/>
      <point x="1159" y="949" type="curve" smooth="yes" name="hr02"/>
      <point x="1035" y="949"/>
      <point x="828" y="1024"/>
      <point x="606" y="1024" type="curve" smooth="yes"/>
      <point x="272" y="1024"/>
      <point x="66" y="820"/>
      <point x="66" y="492" type="curve" smooth="yes" name="hr03"/>
      <point x="66" y="181"/>
      <point x="270" y="-25"/>
      <point x="592" y="-25" type="curve" smooth="yes"/>
      <point x="825" y="-25"/>
      <point x="1049" y="97"/>
      <point x="1049" y="259" type="curve" smooth="yes"/>
      <point x="1049" y="786" type="line" name="hr04"/>
      <point x="1103" y="776"/>
      <point x="1230" y="777"/>
      <point x="1283" y="787" type="curve"/>
    </contour>
    <contour>
      <point x="884" y="1100" type="move" name="U"/>
    </contour>
    <contour>
      <point x="884" y="-100" type="move" name="L"/>
    </contour>
  </outline>
</glyph>
<glyph name="LtnSmTnTwo" format="1">
  <advance width="937"/>
  <unicode hex="01A8"/>
  <outline>
    <contour>
      <point x="719" y="342" type="line" name="hr01"/>
      <point x="713" y="287"/>
      <point x="689" y="154"/>
      <point x="689" y="154" type="curve"/>
      <point x="683" y="141"/>
      <point x="562" y="96"/>
      <point x="496" y="96" type="curve" smooth="yes"/>
      <point x="364" y="96"/>
      <point x="326" y="163"/>
      <point x="326" y="227" type="curve" smooth="yes"/>
      <point x="326" y="340"/>
      <point x="486" y="365"/>
      <point x="625" y="451" type="curve" smooth="yes"/>
      <point x="786" y="551"/>
      <point x="870" y="611"/>
      <point x="870" y="755" type="curve" smooth="yes" name="hr02"/>
      <point x="870" y="927"/>
      <point x="703" y="1024"/>
      <point x="469" y="1024" type="curve" smooth="yes"/>
      <point x="286" y="1024"/>
      <point x="183" y="986"/>
      <point x="141" y="969" type="curve"/>
      <point x="131" y="686" type="line"/>
      <point x="258" y="686" type="line"/>
      <point x="286" y="850" type="line"/>
      <point x="315" y="881"/>
      <point x="374" y="901"/>
      <point x="448" y="901" type="curve" smooth="yes"/>
      <point x="542" y="901"/>
      <point x="598" y="842"/>
      <point x="598" y="772" type="curve" smooth="yes"/>
      <point x="598" y="697"/>
      <point x="478" y="652"/>
      <point x="365" y="598" type="curve" smooth="yes"/>
      <point x="176" y="507"/>
      <point x="64" y="413"/>
      <point x="64" y="266" type="curve" smooth="yes"/>
      <point x="64" y="38"/>
      <point x="273" y="-25"/>
      <point x="472" y="-25" type="curve" smooth="yes"/>
      <point x="653" y="-25"/>
      <point x="778" y="8"/>
      <point x="838" y="31" type="curve" name="hr03"/>
      <point x="848" y="342" type="line"/>
    </contour>
    <contour>
      <point x="467" y="1100" type="move" name="U"/>
    </contour>
    <contour>
      <point x="467" y="-100" type="move" name="L"/>
    </contour>
  </outline>
</glyph>
<glyph name="LtnCapTHook" format="1">
  <advance width="1247"/>
  <unicode hex="01AC"/>
  <outline>
    <contour>
      <point x="1214" y="999" type="line" name="hr00"/>
      <point x="1214" y="1374" type="line"/>
      <point x="332" y="1374" type="line" smooth="yes"/>
      <point x="176" y="1374"/>
      <point x="10" y="1333"/>
      <point x="10" y="1098" type="curve" smooth="yes"/>
      <point x="10" y="979"/>
      <point x="82" y="885"/>
      <point x="197" y="885" type="curve" smooth="yes"/>
      <point x="250" y="885"/>
      <point x="317" y="928"/>
      <point x="317" y="1022" type="curve"/>
      <point x="182" y="1145" type="line"/>
      <point x="182" y="1167" type="line" smooth="yes"/>
      <point x="182" y="1223"/>
      <point x="233" y="1251"/>
      <point x="279" y="1251" type="curve" smooth="yes"/>
      <point x="477" y="1251" type="line"/>
      <point x="477" y="160" type="line" smooth="yes"/>
      <point x="477" y="133"/>
      <point x="455" y="117"/>
      <point x="432" y="115" type="curve" smooth="yes"/>
      <point x="311" y="104" type="line"/>
      <point x="311" y="0" type="line"/>
      <point x="936" y="0" type="line"/>
      <point x="936" y="104" type="line"/>
      <point x="817" y="115" type="line" smooth="yes"/>
      <point x="793" y="117"/>
      <point x="770" y="133"/>
      <point x="770" y="160" type="curve" smooth="yes"/>
      <point x="770" y="1251" type="line"/>
      <point x="999" y="1251" type="line" smooth="yes"/>
      <point x="1016" y="1251"/>
      <point x="1028" y="1243"/>
      <point x="1030" y="1227" type="curve" smooth="yes"/>
      <point x="1067" y="999" type="line"/>
    </contour>
    <contour>
      <point x="612" y="1500" type="move" name="U"/>
    </contour>
    <contour>
      <point x="612" y="-100" type="move" name="L"/>
    </contour>
  </outline>
</glyph>
<glyph name="LtnSmTHook" format="1">
  <advance width="768"/>
  <unicode hex="01AD"/>
  <outline>
    <contour>
      <point x="834" y="1360" type="curve" smooth="yes" name="hr01"/>
      <point x="834" y="1477"/>
      <point x="719" y="1516"/>
      <point x="639" y="1516" type="curve" smooth="yes"/>
      <point x="354" y="1516"/>
      <point x="195" y="1284"/>
      <point x="195" y="1022" type="curve" name="hr02"/>
      <point x="49" y="950" type="line" name="hr03"/>
      <point x="49" y="868" type="line"/>
      <point x="184" y="868" type="line"/>
      <point x="184" y="227" type="line" smooth="yes"/>
      <point x="184" y="55"/>
      <point x="250" y="-25"/>
      <point x="432" y="-25" type="curve" smooth="yes"/>
      <point x="598" y="-25"/>
      <point x="760" y="45"/>
      <point x="760" y="45" type="curve"/>
      <point x="760" y="147" type="line"/>
      <point x="760" y="147"/>
      <point x="692" y="133"/>
      <point x="627" y="133" type="curve" smooth="yes"/>
      <point x="518" y="133"/>
      <point x="459" y="180"/>
      <point x="459" y="311" type="curve" smooth="yes"/>
      <point x="459" y="868" type="line"/>
      <point x="743" y="868" type="line"/>
      <point x="743" y="999" type="line"/>
      <point x="459" y="999" type="line"/>
      <point x="459" y="1102" type="line" smooth="yes"/>
      <point x="459" y="1288"/>
      <point x="483" y="1343"/>
      <point x="524" y="1405" type="curve"/>
      <point x="707" y="1225" type="line"/>
      <point x="774" y="1247"/>
      <point x="834" y="1296"/>
    </contour>
    <contour>
      <point x="441" y="1540" type="move" name="U"/>
    </contour>
    <contour>
      <point x="441" y="-100" type="move" name="L"/>
    </contour>
  </outline>
</glyph>
<glyph name="LtnSmUHorn" format="1">
  <advance width="1417"/>
  <unicode hex="01B0"/>
  <outline>
    <contour>
      <point x="1397" y="1167" type="curve" smooth="yes" name="hr01"/>
      <point x="1397" y="1300"/>
      <point x="1325" y="1368"/>
      <point x="1225" y="1368" type="curve" smooth="yes"/>
      <point x="1153" y="1368"/>
      <point x="1067" y="1335"/>
      <point x="1067" y="1235" type="curve" smooth="yes"/>
      <point x="1067" y="1178"/>
      <point x="1112" y="1120"/>
      <point x="1112" y="1120" type="curve"/>
      <point x="1276" y="1120" type="line"/>
      <point x="1276" y="1001"/>
      <point x="1171" y="920"/>
      <point x="1085" y="885" type="curve"/>
      <point x="1085" y="1024" type="line"/>
      <point x="981" y="1024" type="line"/>
      <point x="682" y="922" type="line"/>
      <point x="682" y="838" type="line" name="hr02"/>
      <point x="811" y="838" type="line"/>
      <point x="811" y="197" type="line"/>
      <point x="811" y="197"/>
      <point x="733" y="162"/>
      <point x="647" y="162" type="curve" smooth="yes"/>
      <point x="473" y="162"/>
      <point x="459" y="289"/>
      <point x="459" y="389" type="curve" smooth="yes"/>
      <point x="459" y="1024" type="line"/>
      <point x="352" y="1024" type="line"/>
      <point x="51" y="922" type="line" name="hr03"/>
      <point x="51" y="838" type="line" name="hr04"/>
      <point x="184" y="838" type="line"/>
      <point x="184" y="309" type="line" smooth="yes"/>
      <point x="184" y="100"/>
      <point x="254" y="-25"/>
      <point x="487" y="-25" type="curve" smooth="yes"/>
      <point x="637" y="-25"/>
      <point x="811" y="113"/>
      <point x="811" y="113" type="curve"/>
      <point x="811" y="0" type="line" name="hr05"/>
      <point x="1223" y="0" type="line"/>
      <point x="1223" y="96" type="line"/>
      <point x="1133" y="102" type="line" smooth="yes"/>
      <point x="1108" y="104"/>
      <point x="1085" y="125"/>
      <point x="1085" y="150" type="curve" smooth="yes"/>
      <point x="1085" y="797" type="line"/>
      <point x="1270" y="852"/>
      <point x="1397" y="1032"/>
    </contour>
    <contour>
      <point x="668" y="-100" type="move" name="L"/>
    </contour>
    <contour>
      <point x="668" y="1100" type="move" name="U"/>
    </contour>
  </outline>
</glyph>
<glyph name="LtnSmZStrk" format="1">
  <advance width="1006"/>
  <unicode hex="01B6"/>
  <outline>
    <contour>
      <point x="803" y="455" type="line" name="hr00"/>
      <point x="803" y="576" type="line"/>
      <point x="169" y="576" type="line"/>
      <point x="169" y="455" type="line"/>
    </contour>
    <contour>
      <point x="940" y="0" type="line"/>
      <point x="940" y="344" type="line"/>
      <point x="799" y="344" type="line"/>
      <point x="772" y="170" type="line"/>
      <point x="768" y="150"/>
      <point x="745" y="121"/>
      <point x="727" y="121" type="curve" smooth="yes"/>
      <point x="375" y="121" type="line"/>
      <point x="911" y="885" type="line"/>
      <point x="911" y="999" type="line"/>
      <point x="82" y="999" type="line"/>
      <point x="82" y="682" type="line"/>
      <point x="227" y="682" type="line"/>
      <point x="242" y="840" type="line"/>
      <point x="242" y="858"/>
      <point x="260" y="883"/>
      <point x="281" y="883" type="curve" smooth="yes"/>
      <point x="590" y="883" type="line"/>
      <point x="66" y="133" type="line"/>
      <point x="66" y="0" type="line"/>
    </contour>
    <contour>
      <point x="513" y="1100" type="move" name="U"/>
    </contour>
    <contour>
      <point x="513" y="-100" type="move" name="L"/>
    </contour>
  </outline>
</glyph>
<glyph name="LtnSmEzhTail" format="1">
  <advance width="1042"/>
  <unicode hex="01BA"/>
  <outline>
    <contour>
      <point x="979" y="905" type="line" name="hr01"/>
      <point x="979" y="999" type="line"/>
      <point x="66" y="999" type="line"/>
      <point x="66" y="541" type="line"/>
      <point x="211" y="541" type="line"/>
      <point x="223" y="723" type="line" smooth="yes"/>
      <point x="225" y="741"/>
      <point x="246" y="766"/>
      <point x="264" y="766" type="curve" smooth="yes"/>
      <point x="688" y="766" type="line"/>
      <point x="354" y="387" type="line"/>
      <point x="406" y="324" type="line"/>
      <point x="469" y="375"/>
      <point x="539" y="416"/>
      <point x="584" y="416" type="curve" smooth="yes"/>
      <point x="653" y="416"/>
      <point x="715" y="373"/>
      <point x="715" y="313" type="curve" smooth="yes"/>
      <point x="715" y="141"/>
      <point x="209" y="43"/>
      <point x="209" y="-186" type="curve" smooth="yes" name="hr02"/>
      <point x="209" y="-399"/>
      <point x="358" y="-473"/>
      <point x="537" y="-473" type="curve" smooth="yes"/>
      <point x="817" y="-473"/>
      <point x="965" y="-371"/>
      <point x="965" y="-240" type="curve" smooth="yes"/>
      <point x="965" y="-168"/>
      <point x="920" y="-117"/>
      <point x="850" y="-117" type="curve" smooth="yes"/>
      <point x="831" y="-117"/>
      <point x="766" y="-139"/>
      <point x="754" y="-145" type="curve"/>
      <point x="694" y="-311" type="line"/>
      <point x="668" y="-344"/>
      <point x="621" y="-362"/>
      <point x="555" y="-362" type="curve" smooth="yes"/>
      <point x="461" y="-362"/>
      <point x="438" y="-287"/>
      <point x="438" y="-242" type="curve" smooth="yes"/>
      <point x="438" y="-55"/>
      <point x="956" y="-14"/>
      <point x="956" y="262" type="curve" smooth="yes"/>
      <point x="956" y="434"/>
      <point x="862" y="506"/>
      <point x="682" y="522" type="curve"/>
    </contour>
    <contour>
      <point x="522" y="1100" type="move" name="U"/>
    </contour>
    <contour>
      <point x="522" y="-500" type="move" name="L"/>
    </contour>
  </outline>
</glyph>
<glyph name="LtnWynn" format="1">
  <advance width="1224"/>
  <unicode hex="01BF"/>
  <outline>
    <contour>
      <point x="613" y="-352" type="line" name="hr01"/>
      <point x="506" y="-346" type="line"/>
      <point x="478" y="-346"/>
      <point x="460" y="-326"/>
      <point x="460" y="-299" type="curve" smooth="yes"/>
      <point x="460" y="-168" type="line"/>
      <point x="808" y="13"/>
      <point x="1158" y="287"/>
      <point x="1158" y="660" type="curve" smooth="yes"/>
      <point x="1158" y="852"/>
      <point x="1075" y="1024"/>
      <point x="809" y="1024" type="curve" smooth="yes"/>
      <point x="630" y="1024"/>
      <point x="460" y="855"/>
      <point x="460" y="855" type="curve"/>
      <point x="460" y="1024" type="line"/>
      <point x="353" y="1024" type="line"/>
      <point x="49" y="920" type="line" name="hr02"/>
      <point x="49" y="836" type="line"/>
      <point x="185" y="836" type="line"/>
      <point x="185" y="-299" type="line" smooth="yes"/>
      <point x="185" y="-323"/>
      <point x="169" y="-345"/>
      <point x="140" y="-346" type="curve"/>
      <point x="49" y="-352" type="line"/>
      <point x="49" y="-449" type="line" name="hr03"/>
      <point x="613" y="-449" type="line"/>
    </contour>
    <contour>
      <point x="460" y="706" type="line"/>
      <point x="488" y="738"/>
      <point x="582" y="838"/>
      <point x="697" y="838" type="curve" smooth="yes"/>
      <point x="808" y="838"/>
      <point x="858" y="769"/>
      <point x="858" y="600" type="curve" smooth="yes"/>
      <point x="858" y="412"/>
      <point x="767" y="174"/>
      <point x="460" y="-19" type="curve"/>
    </contour>
    <contour>
      <point x="603" y="1100" type="move" name="U"/>
    </contour>
    <contour>
      <point x="603" y="-500" type="move" name="L"/>
    </contour>
  </outline>
</glyph>
<glyph name="LtnDentalClick" format="1">
  <advance width="453"/>
  <unicode hex="01C0"/>
  <outline>
    <contour>
      <point x="309" y="-440" type="line" name="hr00"/>
      <point x="309" y="1507" type="line"/>
      <point x="144" y="1507" type="line"/>
      <point x="144" y="-440" type="line"/>
    </contour>
    <contour>
      <point x="226" y="1540" type="move" name="U"/>
    </contour>
    <contour>
      <point x="226" y="-500" type="move" name="L"/>
    </contour>
  </outline>
</glyph>
<glyph name="LtnLateralClick" format="1">
  <advance width="753"/>
  <unicode hex="01C1"/>
  <outline>
    <contour>
      <point x="609" y="-440" type="line" name="hr00"/>
      <point x="609" y="1507" type="line"/>
      <point x="444" y="1507" type="line"/>
      <point x="444" y="-440" type="line"/>
    </contour>
    <contour>
      <point x="309" y="-440" type="line"/>
      <point x="309" y="1507" type="line"/>
      <point x="144" y="1507" type="line"/>
      <point x="144" y="-440" type="line"/>
    </contour>
    <contour>
      <point x="376" y="1540" type="move" name="U"/>
    </contour>
    <contour>
      <point x="376" y="-500" type="move" name="L"/>
    </contour>
  </outline>
</glyph>
<glyph name="LtnAlveolarClick" format="1">
  <advance width="853"/>
  <unicode hex="01C2"/>
  <outline>
    <contour>
      <point x="50" y="599" type="line" name="hr00"/>
      <point x="803" y="599" type="line"/>
      <point x="803" y="743" type="line"/>
      <point x="50" y="743" type="line"/>
    </contour>
    <contour>
      <point x="50" y="323" type="line"/>
      <point x="803" y="323" type="line"/>
      <point x="803" y="467" type="line"/>
      <point x="50" y="467" type="line"/>
    </contour>
    <contour>
      <point x="426" y="1540" type="move" name="U"/>
    </contour>
    <contour>
      <point x="426" y="-500" type="move" name="L"/>
    </contour>
    <component base="LtnDentalClick" xOffset="200"/>
  </outline>
</glyph>
<glyph name="LtnCapHwair" format="1">
  <advance width="2153"/>
  <unicode hex="01F6"/>
  <outline>
    <contour>
      <point x="1988" y="1024" type="line" name="hr01"/>
      <point x="1884" y="1024" type="line"/>
      <point x="1585" y="922" type="line"/>
      <point x="1585" y="838" type="line"/>
      <point x="1714" y="838" type="line"/>
      <point x="1714" y="280" type="line"/>
      <point x="1714" y="178"/>
      <point x="1634" y="115"/>
      <point x="1550" y="115" type="curve" smooth="yes" name="hr02"/>
      <point x="1446" y="115"/>
      <point x="1362" y="184"/>
      <point x="1362" y="280" type="curve" smooth="yes"/>
      <point x="1362" y="1214" type="line" smooth="yes"/>
      <point x="1362" y="1241"/>
      <point x="1384" y="1257"/>
      <point x="1407" y="1260" type="curve"/>
      <point x="1513" y="1270" type="line"/>
      <point x="1513" y="1374" type="line"/>
      <point x="918" y="1374" type="line"/>
      <point x="918" y="1270" type="line"/>
      <point x="1024" y="1260" type="line" smooth="yes"/>
      <point x="1049" y="1257"/>
      <point x="1069" y="1241"/>
      <point x="1069" y="1214" type="curve" smooth="yes"/>
      <point x="1069" y="786" type="line"/>
      <point x="506" y="786" type="line"/>
      <point x="506" y="1214" type="line" smooth="yes"/>
      <point x="506" y="1241"/>
      <point x="526" y="1257"/>
      <point x="551" y="1260" type="curve"/>
      <point x="659" y="1270" type="line"/>
      <point x="659" y="1374" type="line"/>
      <point x="61" y="1374" type="line"/>
      <point x="61" y="1270" type="line"/>
      <point x="168" y="1260" type="line" smooth="yes"/>
      <point x="193" y="1257"/>
      <point x="213" y="1241"/>
      <point x="213" y="1214" type="curve" smooth="yes"/>
      <point x="213" y="160" type="line" smooth="yes" name="hr03"/>
      <point x="213" y="133"/>
      <point x="193" y="117"/>
      <point x="168" y="115" type="curve" smooth="yes"/>
      <point x="61" y="104" type="line"/>
      <point x="61" y="0" type="line"/>
      <point x="659" y="0" type="line"/>
      <point x="659" y="104" type="line"/>
      <point x="551" y="115" type="line" smooth="yes"/>
      <point x="526" y="117"/>
      <point x="506" y="133"/>
      <point x="506" y="160" type="curve" smooth="yes"/>
      <point x="506" y="655" type="line"/>
      <point x="1069" y="655" type="line"/>
      <point x="1069" y="295" type="line" smooth="yes"/>
      <point x="1069" y="88"/>
      <point x="1281" y="-33"/>
      <point x="1529" y="-33" type="curve" smooth="yes" name="hr04"/>
      <point x="1752" y="-33"/>
      <point x="1988" y="88"/>
      <point x="1988" y="295" type="curve" smooth="yes"/>
    </contour>
    <contour>
      <point x="1024" y="1500" type="move" name="U"/>
    </contour>
    <contour>
      <point x="1024" y="-100" type="move" name="L"/>
    </contour>
  </outline>
</glyph>
<glyph name="LtnCapOu" format="1">
  <advance width="1251"/>
  <unicode hex="0222"/>
  <outline>
    <contour>
      <point x="1178" y="369" type="curve" smooth="yes" name="hr01"/>
      <point x="1178" y="574"/>
      <point x="1006" y="703"/>
      <point x="806" y="732" type="curve"/>
      <point x="955" y="757"/>
      <point x="1122" y="839"/>
      <point x="1122" y="1051" type="curve" smooth="yes" name="hr02"/>
      <point x="1122" y="1286"/>
      <point x="881" y="1407"/>
      <point x="627" y="1407" type="curve" smooth="yes"/>
      <point x="380" y="1407"/>
      <point x="133" y="1286"/>
      <point x="133" y="1051" type="curve" smooth="yes"/>
      <point x="133" y="839"/>
      <point x="300" y="752"/>
      <point x="446" y="732" type="curve"/>
      <point x="248" y="708"/>
      <point x="76" y="575"/>
      <point x="76" y="369" type="curve" smooth="yes" name="hr03"/>
      <point x="76" y="133"/>
      <point x="322" y="-33"/>
      <point x="627" y="-33" type="curve" smooth="yes"/>
      <point x="914" y="-33"/>
      <point x="1178" y="134"/>
    </contour>
    <contour>
      <point x="839" y="1045" type="curve" smooth="yes" name="hr05"/>
      <point x="839" y="931"/>
      <point x="755" y="794"/>
      <point x="626" y="794" type="curve" smooth="yes"/>
      <point x="494" y="794"/>
      <point x="409" y="931"/>
      <point x="409" y="1045" type="curve" smooth="yes"/>
      <point x="409" y="1183"/>
      <point x="494" y="1303"/>
      <point x="627" y="1303" type="curve" smooth="yes"/>
      <point x="745" y="1303"/>
      <point x="839" y="1183"/>
    </contour>
    <contour>
      <point x="877" y="385" type="curve" smooth="yes" name="hr06"/>
      <point x="877" y="247"/>
      <point x="777" y="88"/>
      <point x="627" y="88" type="curve" smooth="yes"/>
      <point x="458" y="88"/>
      <point x="372" y="239"/>
      <point x="372" y="385" type="curve" smooth="yes"/>
      <point x="372" y="519"/>
      <point x="487" y="670"/>
      <point x="626" y="670" type="curve" smooth="yes"/>
      <point x="758" y="670"/>
      <point x="877" y="541"/>
    </contour>
    <contour>
      <point x="595" y="1585" type="move" name="U"/>
    </contour>
    <contour>
      <point x="595" y="-100" type="move" name="L"/>
    </contour>
  </outline>
</glyph>
<glyph name="LtnSmOu" format="1">
  <advance width="1149"/>
  <unicode hex="0223"/>
  <outline>
    <contour>
      <point x="575" y="-25" type="curve" smooth="yes" name="hr01"/>
      <point x="866" y="-25"/>
      <point x="1086" y="166"/>
      <point x="1086" y="398" type="curve" smooth="yes"/>
      <point x="1086" y="597"/>
      <point x="929" y="746"/>
      <point x="726" y="789" type="curve"/>
      <point x="877" y="816"/>
      <point x="1042" y="940"/>
      <point x="1042" y="1132" type="curve" smooth="yes" name="hr02"/>
      <point x="1042" y="1346"/>
      <point x="832" y="1516"/>
      <point x="575" y="1516" type="curve" smooth="yes"/>
      <point x="324" y="1516"/>
      <point x="109" y="1364"/>
      <point x="109" y="1132" type="curve" smooth="yes"/>
      <point x="109" y="931"/>
      <point x="274" y="810"/>
      <point x="422" y="789" type="curve"/>
      <point x="220" y="752"/>
      <point x="66" y="598"/>
      <point x="66" y="398" type="curve" smooth="yes" name="hr03"/>
      <point x="66" y="165"/>
      <point x="265" y="-25"/>
    </contour>
    <contour>
      <point x="740" y="1136" type="curve" smooth="yes" name="hr04"/>
      <point x="740" y="985"/>
      <point x="703" y="855"/>
      <point x="574" y="855" type="curve" smooth="yes"/>
      <point x="448" y="855"/>
      <point x="410" y="982"/>
      <point x="410" y="1136" type="curve" smooth="yes"/>
      <point x="410" y="1274"/>
      <point x="436" y="1413"/>
      <point x="575" y="1413" type="curve" smooth="yes"/>
      <point x="693" y="1413"/>
      <point x="740" y="1296"/>
    </contour>
    <contour>
      <point x="575" y="84" type="curve" smooth="yes" name="hr05"/>
      <point x="404" y="84"/>
      <point x="373" y="246"/>
      <point x="373" y="415" type="curve" smooth="yes"/>
      <point x="373" y="593"/>
      <point x="429" y="722"/>
      <point x="574" y="722" type="curve" smooth="yes"/>
      <point x="721" y="722"/>
      <point x="779" y="597"/>
      <point x="779" y="415" type="curve" smooth="yes"/>
      <point x="779" y="252"/>
      <point x="737" y="84"/>
    </contour>
    <contour>
      <point x="576" y="1580" type="move" name="U"/>
    </contour>
    <contour>
      <point x="576" y="-100" type="move" name="L"/>
    </contour>
  </outline>
</glyph>
<glyph name="LtnSmDBDigraph" format="1">
  <advance width="1829"/>
  <unicode hex="0238"/>
  <outline>
    <contour>
      <point x="791" y="203" type="line" name="hr01"/>
      <point x="791" y="203"/>
      <point x="705" y="164"/>
      <point x="631" y="164" type="curve" smooth="yes"/>
      <point x="453" y="164"/>
      <point x="365" y="309"/>
      <point x="365" y="524" type="curve" smooth="yes"/>
      <point x="365" y="735"/>
      <point x="455" y="901"/>
      <point x="645" y="901" type="curve" smooth="yes"/>
      <point x="707" y="901"/>
      <point x="791" y="864"/>
      <point x="791" y="864" type="curve"/>
    </contour>
    <contour>
      <point x="791" y="0" type="line" name="hr02"/>
      <point x="1163" y="0" type="line" smooth="yes"/>
      <point x="1546" y="0"/>
      <point x="1763" y="246"/>
      <point x="1763" y="561" type="curve" smooth="yes"/>
      <point x="1763" y="854"/>
      <point x="1579" y="1024"/>
      <point x="1360" y="1024" type="curve" smooth="yes"/>
      <point x="1206" y="1024"/>
      <point x="1063" y="930"/>
      <point x="1063" y="930" type="curve"/>
      <point x="1063" y="1516" type="line"/>
      <point x="958" y="1516" type="line"/>
      <point x="639" y="1413" type="line"/>
      <point x="639" y="1329" type="line"/>
      <point x="791" y="1329" type="line"/>
      <point x="791" y="999" type="line" name="hr03"/>
      <point x="791" y="999"/>
      <point x="678" y="1024"/>
      <point x="600" y="1024" type="curve" smooth="yes" name="hr04"/>
      <point x="291" y="1024"/>
      <point x="66" y="829"/>
      <point x="66" y="477" type="curve" smooth="yes"/>
      <point x="66" y="188"/>
      <point x="217" y="-25"/>
      <point x="467" y="-25" type="curve" smooth="yes"/>
      <point x="616" y="-25"/>
      <point x="760" y="102"/>
      <point x="791" y="119" type="curve"/>
    </contour>
    <contour>
      <point x="1466" y="500" type="curve" smooth="yes" name="hr05"/>
      <point x="1466" y="209"/>
      <point x="1333" y="113"/>
      <point x="1106" y="113" type="curve" smooth="yes"/>
      <point x="1093" y="113"/>
      <point x="1087" y="115"/>
      <point x="1063" y="115" type="curve"/>
      <point x="1063" y="842" type="line"/>
      <point x="1063" y="842"/>
      <point x="1122" y="854"/>
      <point x="1171" y="854" type="curve" smooth="yes"/>
      <point x="1364" y="854"/>
      <point x="1466" y="721"/>
    </contour>
    <contour>
      <point x="914" y="1540" type="move" name="U"/>
    </contour>
    <contour>
      <point x="914" y="-100" type="move" name="L"/>
    </contour>
  </outline>
</glyph>
<glyph name="LtnCapAStrk" format="1">
  <advance width="1405"/>
  <unicode hex="023A"/>
  <outline>
    <contour>
      <point x="1096" y="1532" type="line" name="hr00"/>
      <point x="154" y="-117" type="line"/>
      <point x="258" y="-178" type="line"/>
      <point x="1202" y="1473" type="line"/>
    </contour>
    <contour>
      <point x="702" y="1500" type="move" name="U"/>
    </contour>
    <contour>
      <point x="702" y="-100" type="move" name="L"/>
    </contour>
    <contour>
      <point x="1290" y="0" type="move" name="O"/>
    </contour>
    <contour>
      <point x="1129" y="0" type="move" name="H"/>
    </contour>
    <component base="LtnCapA"/>
  </outline>
</glyph>
<glyph name="LtnCapCStrk" format="1">
  <advance width="1303"/>
  <unicode hex="023B"/>
  <outline>
    <contour>
      <point x="1066" y="1532" type="line" name="hr00"/>
      <point x="124" y="-117" type="line"/>
      <point x="228" y="-178" type="line"/>
      <point x="1172" y="1473" type="line"/>
    </contour>
    <contour>
      <point x="700" y="1500" type="move" name="U"/>
    </contour>
    <contour>
      <point x="700" y="-100" type="move" name="L"/>
    </contour>
    <contour>
      <point x="652" y="0" type="move" name="H"/>
    </contour>
    <component base="LtnCapC"/>
  </outline>
</glyph>
<glyph name="LtnCapTDiagStrk" format="1">
  <advance width="1247"/>
  <unicode hex="023E"/>
  <outline>
    <contour>
      <point x="1036" y="1532" type="line" name="hr00"/>
      <point x="94" y="-117" type="line"/>
      <point x="198" y="-178" type="line"/>
      <point x="1142" y="1473" type="line"/>
    </contour>
    <contour>
      <point x="623" y="1500" type="move" name="U"/>
    </contour>
    <contour>
      <point x="623" y="-100" type="move" name="L"/>
    </contour>
    <contour>
      <point x="623" y="0" type="move" name="H"/>
    </contour>
    <component base="LtnCapT"/>
  </outline>
</glyph>
<glyph name="LtnSmSSwashTail" format="1">
  <advance width="911"/>
  <unicode hex="023F"/>
  <outline>
    <contour>
      <point x="848" y="319" type="curve" smooth="yes" name="hr01"/>
      <point x="848" y="457"/>
      <point x="696" y="530"/>
      <point x="559" y="599" type="curve" smooth="yes"/>
      <point x="451" y="653"/>
      <point x="352" y="707"/>
      <point x="352" y="788" type="curve" smooth="yes"/>
      <point x="352" y="860"/>
      <point x="410" y="901"/>
      <point x="506" y="901" type="curve" smooth="yes"/>
      <point x="580" y="901"/>
      <point x="639" y="881"/>
      <point x="666" y="850" type="curve" name="hr02"/>
      <point x="688" y="686" type="line"/>
      <point x="815" y="686" type="line"/>
      <point x="815" y="969" type="line"/>
      <point x="815" y="969"/>
      <point x="692" y="1024"/>
      <point x="489" y="1024" type="curve" smooth="yes"/>
      <point x="250" y="1024"/>
      <point x="78" y="903"/>
      <point x="78" y="713" type="curve" smooth="yes"/>
      <point x="78" y="578"/>
      <point x="178" y="508"/>
      <point x="293" y="451" type="curve" smooth="yes"/>
      <point x="430" y="383"/>
      <point x="586" y="338"/>
      <point x="586" y="227" type="curve" smooth="yes" name="hr03"/>
      <point x="586" y="180"/>
      <point x="549" y="96"/>
      <point x="410" y="96" type="curve" smooth="yes"/>
      <point x="344" y="96"/>
      <point x="225" y="141"/>
      <point x="219" y="154" type="curve"/>
      <point x="219" y="154"/>
      <point x="201" y="287"/>
      <point x="195" y="342" type="curve" name="hr04"/>
      <point x="66" y="342" type="line"/>
      <point x="66" y="31" type="line"/>
      <point x="226" y="31"/>
      <point x="483" y="-473"/>
      <point x="737" y="-473" type="curve" smooth="yes"/>
      <point x="801" y="-473"/>
      <point x="935" y="-444"/>
      <point x="935" y="-317" type="curve" smooth="yes"/>
      <point x="935" y="-220"/>
      <point x="808" y="-182"/>
      <point x="808" y="-182" type="curve"/>
      <point x="664" y="-317" type="line"/>
      <point x="631" y="-317"/>
      <point x="462" y="-69"/>
      <point x="378" y="-18" type="curve"/>
      <point x="404" y="-25"/>
      <point x="411" y="-25"/>
      <point x="430" y="-25" type="curve" name="hr05"/>
      <point x="630" y="-25"/>
      <point x="848" y="61"/>
    </contour>
    <contour>
      <point x="500" y="1100" type="move" name="U"/>
    </contour>
    <contour>
      <point x="500" y="-500" type="move" name="L"/>
    </contour>
  </outline>
</glyph>
<glyph name="LtnSmZSwashTail" format="1">
  <advance width="1006"/>
  <unicode hex="0240"/>
  <outline>
    <contour>
      <point x="911" y="885" type="line" name="hr00"/>
      <point x="911" y="999" type="line"/>
      <point x="82" y="999" type="line"/>
      <point x="82" y="682" type="line"/>
      <point x="227" y="682" type="line"/>
      <point x="242" y="840" type="line"/>
      <point x="242" y="858"/>
      <point x="260" y="883"/>
      <point x="281" y="883" type="curve" smooth="yes"/>
      <point x="590" y="883" type="line"/>
      <point x="66" y="133" type="line"/>
      <point x="66" y="0" type="line"/>
      <point x="132" y="0" type="line"/>
      <point x="329" y="0"/>
      <point x="489" y="-473"/>
      <point x="817" y="-473" type="curve" smooth="yes"/>
      <point x="881" y="-473"/>
      <point x="1015" y="-444"/>
      <point x="1015" y="-317" type="curve" smooth="yes"/>
      <point x="1015" y="-220"/>
      <point x="888" y="-182"/>
      <point x="888" y="-182" type="curve"/>
      <point x="744" y="-317" type="line"/>
      <point x="656" y="-317"/>
      <point x="494" y="61"/>
      <point x="375" y="121" type="curve"/>
    </contour>
    <contour>
      <point x="540" y="1100" type="move" name="U"/>
    </contour>
    <contour>
      <point x="540" y="-500" type="move" name="L"/>
    </contour>
  </outline>
</glyph>
<glyph name="LtnCapGlottalStop" format="1">
  <advance width="1042"/>
  <unicode hex="0241"/>
  <outline>
    <contour>
      <point x="967" y="1018" type="curve" smooth="yes" name="hr01"/>
      <point x="967" y="1231"/>
      <point x="782" y="1407"/>
      <point x="487" y="1407" type="curve" smooth="yes"/>
      <point x="252" y="1407"/>
      <point x="76" y="1270"/>
      <point x="76" y="1169" type="curve" smooth="yes"/>
      <point x="76" y="1104"/>
      <point x="137" y="1004"/>
      <point x="227" y="1004" type="curve" smooth="yes"/>
      <point x="291" y="1004"/>
      <point x="360" y="1042"/>
      <point x="360" y="1042" type="curve"/>
      <point x="416" y="1257" type="line"/>
      <point x="451" y="1284"/>
      <point x="483" y="1286"/>
      <point x="494" y="1286" type="curve" smooth="yes"/>
      <point x="598" y="1288"/>
      <point x="666" y="1188"/>
      <point x="666" y="1018" type="curve" smooth="yes"/>
      <point x="666" y="819"/>
      <point x="475" y="715"/>
      <point x="346" y="672" type="curve" name="hr02"/>
      <point x="346" y="150" type="line" smooth="yes"/>
      <point x="346" y="127"/>
      <point x="338" y="117"/>
      <point x="311" y="115" type="curve" smooth="yes"/>
      <point x="197" y="104" type="line"/>
      <point x="197" y="0" type="line"/>
      <point x="791" y="0" type="line"/>
      <point x="791" y="104" type="line"/>
      <point x="674" y="115" type="line" smooth="yes"/>
      <point x="647" y="117"/>
      <point x="639" y="125"/>
      <point x="639" y="150" type="curve" smooth="yes"/>
      <point x="639" y="633" type="line"/>
      <point x="817" y="713"/>
      <point x="967" y="795"/>
    </contour>
    <contour>
      <point x="533" y="1435" type="move" name="U"/>
    </contour>
    <contour>
      <point x="533" y="-35" type="move" name="L"/>
    </contour>
  </outline>
</glyph>
<glyph name="LtnCapTurnedV" format="1">
  <advance width="1446"/>
  <unicode hex="0245"/>
  <outline>
    <contour>
      <point x="1425" y="0" type="line" name="hr01"/>
      <point x="1425" y="104" type="line"/>
      <point x="1294" y="123" type="line"/>
      <point x="813" y="1407" type="line"/>
      <point x="618" y="1407" type="line"/>
      <point x="150" y="121" type="line"/>
      <point x="20" y="104" type="line" name="hr02"/>
      <point x="20" y="0" type="line"/>
      <point x="479" y="0" type="line"/>
      <point x="479" y="104" type="line"/>
      <point x="369" y="119" type="line" smooth="yes" name="hr03"/>
      <point x="338" y="123"/>
      <point x="334" y="145"/>
      <point x="340" y="162" type="curve" smooth="yes"/>
      <point x="653" y="1055" type="line"/>
      <point x="977" y="164" type="line" smooth="yes"/>
      <point x="983" y="147"/>
      <point x="981" y="123"/>
      <point x="956" y="119" type="curve" smooth="yes"/>
      <point x="842" y="104" type="line" name="hr04"/>
      <point x="842" y="0" type="line"/>
    </contour>
    <contour>
      <point x="722" y="1500" type="move" name="U"/>
    </contour>
    <contour>
      <point x="722" y="-100" type="move" name="L"/>
    </contour>
  </outline>
</glyph>
<glyph name="LtnCapEStrk" format="1">
  <advance width="1225"/>
  <unicode hex="0246"/>
  <outline>
    <contour>
      <point x="996" y="1532" type="line" name="hr00"/>
      <point x="54" y="-117" type="line"/>
      <point x="158" y="-178" type="line"/>
      <point x="1102" y="1473" type="line"/>
    </contour>
    <contour>
      <point x="632" y="1500" type="move" name="U"/>
    </contour>
    <contour>
      <point x="632" y="-100" type="move" name="L"/>
    </contour>
    <component base="LtnCapE"/>
  </outline>
</glyph>
<glyph name="LtnCapRBarredStem" format="1">
  <advance width="1442"/>
  <unicode hex="024C"/>
  <outline>
    <contour>
      <point x="1442" y="0" type="curve" name="hr01"/>
      <point x="1442" y="104" type="line"/>
      <point x="991" y="51"/>
      <point x="1276" y="588"/>
      <point x="827" y="676" type="curve" name="hr02"/>
      <point x="938" y="692"/>
      <point x="1184" y="758"/>
      <point x="1184" y="1034" type="curve" smooth="yes"/>
      <point x="1184" y="1325"/>
      <point x="889" y="1374"/>
      <point x="737" y="1374" type="curve" smooth="yes"/>
      <point x="57" y="1374" type="line"/>
      <point x="57" y="1270" type="line" name="hr03"/>
      <point x="166" y="1260" type="line" smooth="yes"/>
      <point x="190" y="1257"/>
      <point x="213" y="1241"/>
      <point x="213" y="1214" type="curve" smooth="yes"/>
      <point x="213" y="727" type="line"/>
      <point x="10" y="727" type="line"/>
      <point x="10" y="602" type="line"/>
      <point x="213" y="602" type="line"/>
      <point x="213" y="160" type="line" smooth="yes"/>
      <point x="213" y="133"/>
      <point x="190" y="117"/>
      <point x="166" y="115" type="curve" smooth="yes"/>
      <point x="57" y="104" type="line"/>
      <point x="57" y="0" type="line"/>
      <point x="664" y="0" type="line"/>
      <point x="664" y="104" type="line"/>
      <point x="551" y="115" type="line" smooth="yes"/>
      <point x="526" y="117"/>
      <point x="506" y="133"/>
      <point x="506" y="160" type="curve" smooth="yes"/>
      <point x="506" y="602" type="line" name="hr04"/>
      <point x="547" y="602" type="line" smooth="yes"/>
      <point x="948" y="602"/>
      <point x="711" y="-33"/>
      <point x="1239" y="-33" type="curve" smooth="yes"/>
      <point x="1290" y="-33"/>
      <point x="1352" y="-10"/>
    </contour>
    <contour>
      <point x="877" y="995" type="curve" smooth="yes"/>
      <point x="877" y="762"/>
      <point x="702" y="723"/>
      <point x="573" y="723" type="curve" smooth="yes" name="hr06"/>
      <point x="563" y="723"/>
      <point x="541" y="725"/>
      <point x="506" y="727" type="curve"/>
      <point x="506" y="1251" type="line"/>
      <point x="541" y="1253"/>
      <point x="571" y="1251"/>
      <point x="571" y="1251" type="curve"/>
      <point x="770" y="1251"/>
      <point x="877" y="1167"/>
    </contour>
    <contour>
      <point x="726" y="1500" type="move" name="U"/>
    </contour>
    <contour>
      <point x="726" y="-100" type="move" name="L"/>
    </contour>
  </outline>
</glyph>
<glyph name="LtnSmOpnO" format="1">
  <advance width="1028"/>
  <unicode hex="0254"/>
  <outline>
    <contour>
      <point x="965" y="518" type="curve" smooth="yes" name="hr00"/>
      <point x="965" y="788"/>
      <point x="788" y="1024"/>
      <point x="467" y="1024" type="curve" smooth="yes"/>
      <point x="262" y="1024"/>
      <point x="133" y="940"/>
      <point x="66" y="907" type="curve"/>
      <point x="66" y="752" type="line"/>
      <point x="90" y="772"/>
      <point x="225" y="852"/>
      <point x="352" y="852" type="curve" smooth="yes"/>
      <point x="543" y="852"/>
      <point x="664" y="700"/>
      <point x="664" y="461" type="curve" smooth="yes"/>
      <point x="664" y="207"/>
      <point x="528" y="80"/>
      <point x="403" y="80" type="curve" smooth="yes"/>
      <point x="387" y="80"/>
      <point x="381" y="80"/>
      <point x="365" y="82" type="curve"/>
      <point x="365" y="309" type="line"/>
      <point x="334" y="330"/>
      <point x="311" y="352"/>
      <point x="227" y="352" type="curve" smooth="yes"/>
      <point x="152" y="352"/>
      <point x="80" y="293"/>
      <point x="80" y="201" type="curve" smooth="yes"/>
      <point x="80" y="70"/>
      <point x="219" y="-25"/>
      <point x="436" y="-25" type="curve" smooth="yes"/>
      <point x="727" y="-25"/>
      <point x="965" y="197"/>
    </contour>
    <contour>
      <point x="515" y="1100" type="move" name="U"/>
    </contour>
    <contour>
      <point x="515" y="-100" type="move" name="L"/>
    </contour>
    <contour>
      <point x="1028" y="1000" type="move" name="R"/>
    </contour>
    <contour>
      <point x="573" y="0" type="move" name="O"/>
    </contour>
    <contour>
      <point x="515" y="0" type="move" name="H"/>
    </contour>
  </outline>
</glyph>
<glyph name="LtnSmIStrk" format="1">
  <advance width="682"/>
  <unicode hex="0268"/>
  <outline>
    <contour>
      <point x="506" y="1358" type="curve" smooth="yes" name="hr01"/>
      <point x="506" y="1446"/>
      <point x="434" y="1516"/>
      <point x="346" y="1516" type="curve" smooth="yes"/>
      <point x="258" y="1516"/>
      <point x="188" y="1446"/>
      <point x="188" y="1358" type="curve" smooth="yes"/>
      <point x="188" y="1270"/>
      <point x="258" y="1198"/>
      <point x="346" y="1198" type="curve" smooth="yes"/>
      <point x="434" y="1198"/>
      <point x="506" y="1270"/>
    </contour>
    <contour>
      <point x="629" y="444" type="line"/>
      <point x="629" y="575" type="line"/>
      <point x="477" y="575" type="line" name="hr02"/>
      <point x="477" y="1024" type="line"/>
      <point x="373" y="1024" type="line"/>
      <point x="74" y="922" type="line"/>
      <point x="74" y="838" type="line"/>
      <point x="205" y="838" type="line"/>
      <point x="205" y="575" type="line"/>
      <point x="55" y="575" type="line"/>
      <point x="55" y="444" type="line"/>
      <point x="205" y="444" type="line"/>
      <point x="205" y="150" type="line" smooth="yes"/>
      <point x="205" y="125"/>
      <point x="184" y="104"/>
      <point x="160" y="102" type="curve" smooth="yes"/>
      <point x="66" y="96" type="line"/>
      <point x="66" y="0" type="line"/>
      <point x="623" y="0" type="line"/>
      <point x="623" y="96" type="line"/>
      <point x="524" y="102" type="line" smooth="yes"/>
      <point x="500" y="104"/>
      <point x="477" y="125"/>
      <point x="477" y="150" type="curve" smooth="yes"/>
      <point x="477" y="444" type="line"/>
    </contour>
    <contour>
      <point x="342" y="1100" type="move" name="U"/>
    </contour>
    <contour>
      <point x="342" y="-100" type="move" name="L"/>
    </contour>
    <contour>
      <point x="682" y="1000" type="move" name="R"/>
    </contour>
    <contour>
      <point x="401" y="0" type="move" name="O"/>
    </contour>
    <contour>
      <point x="342" y="0" type="move" name="H"/>
    </contour>
  </outline>
</glyph>
<glyph name="LtnSmCapN" format="1">
  <advance width="1219"/>
  <unicode hex="0274"/>
  <outline>
    <contour>
      <point x="1171" y="903" type="line" name="hr00"/>
      <point x="1171" y="999" type="line"/>
      <point x="776" y="999" type="line"/>
      <point x="776" y="903" type="line"/>
      <point x="879" y="895" type="line" smooth="yes"/>
      <point x="895" y="893"/>
      <point x="903" y="885"/>
      <point x="903" y="874" type="curve" smooth="yes"/>
      <point x="903" y="328" type="line"/>
      <point x="465" y="952" type="line"/>
      <point x="465" y="999" type="line"/>
      <point x="45" y="999" type="line"/>
      <point x="45" y="903" type="line"/>
      <point x="143" y="895" type="line" smooth="yes"/>
      <point x="158" y="893"/>
      <point x="168" y="885"/>
      <point x="168" y="874" type="curve" smooth="yes"/>
      <point x="168" y="125" type="line" smooth="yes"/>
      <point x="168" y="115"/>
      <point x="158" y="106"/>
      <point x="141" y="104" type="curve" smooth="yes"/>
      <point x="43" y="96" type="line"/>
      <point x="43" y="0" type="line"/>
      <point x="436" y="0" type="line"/>
      <point x="436" y="96" type="line"/>
      <point x="338" y="104" type="line" smooth="yes"/>
      <point x="322" y="106"/>
      <point x="313" y="115"/>
      <point x="313" y="125" type="curve" smooth="yes"/>
      <point x="313" y="745" type="line"/>
      <point x="836" y="0" type="line"/>
      <point x="1049" y="0" type="line"/>
      <point x="1049" y="874" type="line" smooth="yes"/>
      <point x="1049" y="885"/>
      <point x="1059" y="893"/>
      <point x="1073" y="895" type="curve" smooth="yes"/>
    </contour>
    <contour>
      <point x="607" y="1100" type="move" name="U"/>
    </contour>
    <contour>
      <point x="607" y="-100" type="move" name="L"/>
    </contour>
  </outline>
</glyph>
<glyph name="LtnSmPhi" format="1">
  <advance width="1231"/>
  <unicode hex="0278"/>
  <outline>
    <contour>
      <point x="1176" y="506" type="curve" smooth="yes" name="hr01"/>
      <point x="1176" y="793"/>
      <point x="999" y="967"/>
      <point x="752" y="1014" type="curve"/>
      <point x="752" y="1225" type="line" smooth="yes"/>
      <point x="752" y="1251"/>
      <point x="772" y="1270"/>
      <point x="799" y="1272" type="curve" smooth="yes"/>
      <point x="899" y="1278" type="line" name="hr02"/>
      <point x="899" y="1374" type="line"/>
      <point x="332" y="1374" type="line"/>
      <point x="332" y="1278" type="line"/>
      <point x="432" y="1272" type="line" smooth="yes" name="hr03"/>
      <point x="459" y="1270"/>
      <point x="479" y="1251"/>
      <point x="479" y="1225" type="curve" smooth="yes"/>
      <point x="479" y="1014" type="line"/>
      <point x="231" y="967"/>
      <point x="55" y="793"/>
      <point x="55" y="506" type="curve" smooth="yes"/>
      <point x="55" y="231"/>
      <point x="236" y="49"/>
      <point x="479" y="-2" type="curve"/>
      <point x="479" y="-299" type="line" smooth="yes"/>
      <point x="479" y="-326"/>
      <point x="459" y="-342"/>
      <point x="432" y="-344" type="curve" smooth="yes"/>
      <point x="332" y="-350" type="line" name="hr04"/>
      <point x="332" y="-449" type="line"/>
      <point x="899" y="-449" type="line"/>
      <point x="899" y="-350" type="line"/>
      <point x="799" y="-344" type="line" smooth="yes" name="hr05"/>
      <point x="772" y="-342"/>
      <point x="752" y="-326"/>
      <point x="752" y="-299" type="curve" smooth="yes"/>
      <point x="752" y="-2" type="line"/>
      <point x="995" y="49"/>
      <point x="1176" y="231"/>
    </contour>
    <contour>
      <point x="905" y="506" type="curve" smooth="yes"/>
      <point x="905" y="381"/>
      <point x="854" y="221"/>
      <point x="752" y="143" type="curve"/>
      <point x="752" y="866" type="line"/>
      <point x="852" y="788"/>
      <point x="905" y="633"/>
    </contour>
    <contour>
      <point x="479" y="143" type="line"/>
      <point x="377" y="221"/>
      <point x="326" y="381"/>
      <point x="326" y="506" type="curve" smooth="yes" name="hr07"/>
      <point x="326" y="633"/>
      <point x="381" y="788"/>
      <point x="479" y="866" type="curve"/>
    </contour>
    <contour>
      <point x="615" y="1540" type="move" name="U"/>
    </contour>
    <contour>
      <point x="615" y="-500" type="move" name="L"/>
    </contour>
  </outline>
</glyph>
<glyph name="LtnSmTurnedR" format="1">
  <advance width="885"/>
  <unicode hex="0279"/>
  <outline>
    <contour>
      <point x="850" y="80" type="line" name="hr00"/>
      <point x="850" y="164" type="line"/>
      <point x="700" y="164" type="line"/>
      <point x="700" y="850" type="line" smooth="yes"/>
      <point x="700" y="874"/>
      <point x="721" y="895"/>
      <point x="745" y="897" type="curve" smooth="yes"/>
      <point x="836" y="903" type="line"/>
      <point x="836" y="999" type="line"/>
      <point x="252" y="999" type="line"/>
      <point x="252" y="903" type="line"/>
      <point x="383" y="897" type="line" smooth="yes"/>
      <point x="408" y="895"/>
      <point x="426" y="874"/>
      <point x="426" y="850" type="curve" smooth="yes"/>
      <point x="426" y="279" type="line"/>
      <point x="426" y="279"/>
      <point x="371" y="242"/>
      <point x="295" y="242" type="curve" smooth="yes"/>
      <point x="213" y="242"/>
      <point x="178" y="297"/>
      <point x="162" y="324" type="curve"/>
      <point x="20" y="324" type="line"/>
      <point x="20" y="12" type="line"/>
      <point x="45" y="-6"/>
      <point x="102" y="-25"/>
      <point x="150" y="-25" type="curve" smooth="yes"/>
      <point x="244" y="-25"/>
      <point x="375" y="127"/>
      <point x="426" y="193" type="curve"/>
      <point x="426" y="-25" type="line"/>
      <point x="532" y="-25" type="line"/>
    </contour>
    <contour>
      <point x="435" y="1100" type="move" name="U"/>
    </contour>
    <contour>
      <point x="435" y="-100" type="move" name="L"/>
    </contour>
  </outline>
</glyph>
<glyph name="LtnSmTurnedRLngLeg" format="1">
  <advance width="885"/>
  <unicode hex="027A"/>
  <outline>
    <contour>
      <point x="850" y="80" type="line" name="hr00"/>
      <point x="850" y="164" type="line"/>
      <point x="700" y="164" type="line"/>
      <point x="700" y="1516" type="line"/>
      <point x="596" y="1516" type="line"/>
      <point x="283" y="1413" type="line"/>
      <point x="283" y="1329" type="line"/>
      <point x="426" y="1329" type="line"/>
      <point x="426" y="279" type="line"/>
      <point x="426" y="279"/>
      <point x="371" y="242"/>
      <point x="295" y="242" type="curve" smooth="yes"/>
      <point x="213" y="242"/>
      <point x="178" y="297"/>
      <point x="162" y="324" type="curve"/>
      <point x="20" y="324" type="line"/>
      <point x="20" y="12" type="line"/>
      <point x="45" y="-6"/>
      <point x="102" y="-25"/>
      <point x="150" y="-25" type="curve" smooth="yes"/>
      <point x="244" y="-25"/>
      <point x="375" y="127"/>
      <point x="426" y="193" type="curve"/>
      <point x="426" y="-25" type="line"/>
      <point x="532" y="-25" type="line"/>
    </contour>
    <contour>
      <point x="435" y="1540" type="move" name="U"/>
    </contour>
    <contour>
      <point x="435" y="-100" type="move" name="L"/>
    </contour>
  </outline>
</glyph>
<glyph name="LtnSmRFishhook" format="1">
  <advance width="883"/>
  <unicode hex="027E"/>
  <outline>
    <contour>
      <point x="838" y="889" type="curve" smooth="yes" name="hr00"/>
      <point x="838" y="940"/>
      <point x="797" y="1024"/>
      <point x="633" y="1024" type="curve" smooth="yes"/>
      <point x="381" y="1024"/>
      <point x="184" y="868"/>
      <point x="184" y="629" type="curve" smooth="yes"/>
      <point x="184" y="147" type="line" smooth="yes"/>
      <point x="184" y="129"/>
      <point x="156" y="109"/>
      <point x="139" y="106" type="curve" smooth="yes"/>
      <point x="47" y="96" type="line"/>
      <point x="47" y="0" type="line"/>
      <point x="602" y="0" type="line"/>
      <point x="602" y="96" type="line"/>
      <point x="500" y="106" type="line" smooth="yes"/>
      <point x="483" y="109"/>
      <point x="457" y="129"/>
      <point x="457" y="147" type="curve" smooth="yes"/>
      <point x="457" y="629" type="line" smooth="yes"/>
      <point x="457" y="852"/>
      <point x="483" y="905"/>
      <point x="561" y="903" type="curve"/>
      <point x="729" y="735" type="line"/>
      <point x="729" y="735"/>
      <point x="838" y="801"/>
    </contour>
    <contour>
      <point x="460" y="1100" type="move" name="U"/>
    </contour>
    <contour>
      <point x="323" y="-100" type="move" name="L"/>
    </contour>
  </outline>
</glyph>
<glyph name="LtnSmCapInvR" format="1">
  <advance width="1153"/>
  <unicode hex="0281"/>
  <outline>
    <contour>
      <point x="1153" y="901" type="curve" name="hr01"/>
      <point x="1153" y="997" type="line"/>
      <point x="1100" y="1004"/>
      <point x="1036" y="1024"/>
      <point x="983" y="1024" type="curve" smooth="yes" name="hr02"/>
      <point x="768" y="1024"/>
      <point x="709" y="905"/>
      <point x="664" y="791" type="curve" smooth="yes"/>
      <point x="621" y="678"/>
      <point x="594" y="571"/>
      <point x="471" y="571" type="curve" smooth="yes"/>
      <point x="420" y="571" type="line"/>
      <point x="420" y="872" type="line" smooth="yes" name="hr03"/>
      <point x="420" y="885"/>
      <point x="426" y="895"/>
      <point x="444" y="897" type="curve" smooth="yes"/>
      <point x="545" y="903" type="line"/>
      <point x="545" y="999" type="line"/>
      <point x="45" y="999" type="line"/>
      <point x="45" y="903" type="line" name="hr04"/>
      <point x="74" y="901"/>
      <point x="141" y="897"/>
      <point x="141" y="897" type="curve"/>
      <point x="160" y="895"/>
      <point x="168" y="885"/>
      <point x="168" y="872" type="curve" smooth="yes"/>
      <point x="168" y="129" type="line" smooth="yes"/>
      <point x="168" y="111"/>
      <point x="158" y="104"/>
      <point x="141" y="104" type="curve"/>
      <point x="45" y="96" type="line"/>
      <point x="45" y="0" type="line"/>
      <point x="590" y="0" type="line" smooth="yes"/>
      <point x="707" y="0"/>
      <point x="950" y="33"/>
      <point x="950" y="254" type="curve" smooth="yes"/>
      <point x="950" y="424"/>
      <point x="811" y="487"/>
      <point x="715" y="510" type="curve"/>
      <point x="842" y="551"/>
      <point x="874" y="633"/>
      <point x="911" y="745" type="curve" smooth="yes"/>
      <point x="944" y="842"/>
      <point x="973" y="920"/>
    </contour>
    <contour>
      <point x="688" y="281" type="curve" smooth="yes" name="hr06"/>
      <point x="688" y="168"/>
      <point x="612" y="115"/>
      <point x="461" y="111" type="curve"/>
      <point x="461" y="111"/>
      <point x="442" y="109"/>
      <point x="420" y="111" type="curve"/>
      <point x="420" y="461" type="line"/>
      <point x="440" y="461"/>
      <point x="455" y="463"/>
      <point x="463" y="463" type="curve" smooth="yes"/>
      <point x="563" y="463"/>
      <point x="688" y="436"/>
    </contour>
    <contour>
      <point x="599" y="1100" type="move" name="U"/>
    </contour>
    <contour>
      <point x="599" y="-100" type="move" name="L"/>
    </contour>
  </outline>
</glyph>
<glyph name="LtnSmSHook" format="1">
  <advance width="911"/>
  <unicode hex="0282"/>
  <outline>
    <contour>
      <point x="848" y="319" type="curve" smooth="yes" name="hr01"/>
      <point x="848" y="567"/>
      <point x="352" y="602"/>
      <point x="352" y="791" type="curve" smooth="yes" name="hr02"/>
      <point x="352" y="860"/>
      <point x="410" y="901"/>
      <point x="506" y="901" type="curve" smooth="yes"/>
      <point x="575" y="901"/>
      <point x="641" y="877"/>
      <point x="668" y="846" type="curve" name="hr03"/>
      <point x="688" y="686" type="line"/>
      <point x="817" y="686" type="line"/>
      <point x="817" y="971" type="line"/>
      <point x="817" y="971"/>
      <point x="692" y="1024"/>
      <point x="489" y="1024" type="curve" smooth="yes"/>
      <point x="250" y="1024"/>
      <point x="78" y="907"/>
      <point x="78" y="715" type="curve" smooth="yes"/>
      <point x="78" y="414"/>
      <point x="586" y="430"/>
      <point x="586" y="227" type="curve" smooth="yes" name="hr04"/>
      <point x="586" y="180"/>
      <point x="549" y="96"/>
      <point x="410" y="96" type="curve" smooth="yes"/>
      <point x="338" y="96"/>
      <point x="287" y="109"/>
      <point x="219" y="156" type="curve" name="hr05"/>
      <point x="195" y="342" type="line"/>
      <point x="66" y="342" type="line"/>
      <point x="66" y="-219" type="line" smooth="yes"/>
      <point x="66" y="-399"/>
      <point x="248" y="-473"/>
      <point x="377" y="-473" type="curve" smooth="yes"/>
      <point x="477" y="-473"/>
      <point x="631" y="-430"/>
      <point x="631" y="-332" type="curve" smooth="yes"/>
      <point x="631" y="-223"/>
      <point x="580" y="-180"/>
      <point x="512" y="-143" type="curve"/>
      <point x="317" y="-330" type="line"/>
      <point x="238" y="-330"/>
      <point x="195" y="-311"/>
      <point x="195" y="-223" type="curve" smooth="yes"/>
      <point x="195" y="10" type="line"/>
      <point x="272" y="-10"/>
      <point x="350" y="-25"/>
      <point x="430" y="-25" type="curve" smooth="yes"/>
      <point x="633" y="-25"/>
      <point x="848" y="61"/>
    </contour>
    <contour>
      <point x="457" y="1100" type="move" name="U"/>
    </contour>
    <contour>
      <point x="457" y="-500" type="move" name="L"/>
    </contour>
  </outline>
</glyph>
<glyph name="LtnSmEsh" format="1">
  <advance width="803"/>
  <unicode hex="0283"/>
  <outline>
    <contour>
      <point x="813" y="1343" type="curve" smooth="yes" name="hr01"/>
      <point x="813" y="1413"/>
      <point x="711" y="1516"/>
      <point x="584" y="1516" type="curve" smooth="yes"/>
      <point x="317" y="1516"/>
      <point x="160" y="1337"/>
      <point x="190" y="1100" type="curve" smooth="yes" name="hr02"/>
      <point x="342" y="-78" type="line" name="hr03"/>
      <point x="369" y="-270"/>
      <point x="342" y="-309"/>
      <point x="295" y="-332" type="curve"/>
      <point x="117" y="-143" type="line"/>
      <point x="117" y="-143"/>
      <point x="-10" y="-186"/>
      <point x="-10" y="-299" type="curve" smooth="yes" name="hr04"/>
      <point x="-10" y="-369"/>
      <point x="92" y="-473"/>
      <point x="219" y="-473" type="curve" smooth="yes"/>
      <point x="485" y="-473"/>
      <point x="643" y="-293"/>
      <point x="612" y="-57" type="curve" name="hr05"/>
      <point x="612" y="-57"/>
      <point x="457" y="1100"/>
      <point x="461" y="1120" type="curve" name="hr06"/>
      <point x="436" y="1313"/>
      <point x="461" y="1352"/>
      <point x="510" y="1374" type="curve"/>
      <point x="686" y="1186" type="line"/>
      <point x="686" y="1186"/>
      <point x="813" y="1231"/>
    </contour>
    <contour>
      <point x="401" y="1540" type="move" name="U"/>
    </contour>
    <contour>
      <point x="401" y="-500" type="move" name="L"/>
    </contour>
  </outline>
</glyph>
<glyph name="LtnSmEshCurl" format="1">
  <advance width="803"/>
  <unicode hex="0286"/>
  <outline>
    <contour>
      <point x="813" y="1343" type="curve" smooth="yes" name="hr01"/>
      <point x="813" y="1413"/>
      <point x="711" y="1516"/>
      <point x="584" y="1516" type="curve" smooth="yes"/>
      <point x="317" y="1516"/>
      <point x="162" y="1337"/>
      <point x="190" y="1100" type="curve" smooth="yes"/>
      <point x="336" y="-63" type="line"/>
      <point x="307" y="-59"/>
      <point x="268" y="-47"/>
      <point x="236" y="-47" type="curve" smooth="yes"/>
      <point x="127" y="-47"/>
      <point x="-12" y="-139"/>
      <point x="-12" y="-254" type="curve" smooth="yes"/>
      <point x="-12" y="-442"/>
      <point x="135" y="-473"/>
      <point x="264" y="-473" type="curve" smooth="yes" name="hr02"/>
      <point x="391" y="-473"/>
      <point x="489" y="-418"/>
      <point x="547" y="-334" type="curve"/>
      <point x="580" y="-373"/>
      <point x="608" y="-416"/>
      <point x="633" y="-459" type="curve" name="hr03"/>
      <point x="745" y="-430" type="line"/>
      <point x="713" y="-360"/>
      <point x="670" y="-274"/>
      <point x="600" y="-203" type="curve" name="hr04"/>
      <point x="610" y="-158"/>
      <point x="612" y="-109"/>
      <point x="606" y="-59" type="curve" smooth="yes"/>
      <point x="461" y="1120" type="line" smooth="yes" name="hr05"/>
      <point x="436" y="1313"/>
      <point x="461" y="1352"/>
      <point x="510" y="1374" type="curve"/>
      <point x="686" y="1186" type="line"/>
      <point x="686" y="1186"/>
      <point x="813" y="1231"/>
    </contour>
    <contour>
      <point x="346" y="-182" type="curve" name="hr07"/>
      <point x="350" y="-305"/>
      <point x="322" y="-365"/>
      <point x="250" y="-365" type="curve" smooth="yes"/>
      <point x="139" y="-365"/>
      <point x="137" y="-287"/>
      <point x="137" y="-260" type="curve" smooth="yes"/>
      <point x="137" y="-201"/>
      <point x="201" y="-168"/>
      <point x="238" y="-168" type="curve" smooth="yes"/>
      <point x="272" y="-168"/>
      <point x="315" y="-174"/>
    </contour>
    <contour>
      <point x="400" y="1540" type="move" name="U"/>
    </contour>
    <contour>
      <point x="400" y="-500" type="move" name="L"/>
    </contour>
  </outline>
</glyph>
<glyph name="LtnSmTurnedT" format="1">
  <advance width="768"/>
  <unicode hex="0287"/>
  <outline>
    <contour>
      <point x="719" y="49" type="line" name="hr01"/>
      <point x="719" y="131" type="line" name="hr02"/>
      <point x="584" y="131" type="line"/>
      <point x="584" y="770" type="line" smooth="yes"/>
      <point x="584" y="944"/>
      <point x="518" y="1024"/>
      <point x="338" y="1024" type="curve" smooth="yes"/>
      <point x="172" y="1024"/>
      <point x="10" y="954"/>
      <point x="10" y="954" type="curve"/>
      <point x="10" y="852" type="line"/>
      <point x="10" y="852"/>
      <point x="78" y="866"/>
      <point x="143" y="866" type="curve" smooth="yes"/>
      <point x="250" y="866"/>
      <point x="311" y="819"/>
      <point x="311" y="686" type="curve" smooth="yes"/>
      <point x="311" y="131" type="line"/>
      <point x="27" y="131" type="line"/>
      <point x="27" y="0" type="line"/>
      <point x="311" y="0" type="line"/>
      <point x="311" y="-262" type="line"/>
      <point x="451" y="-262" type="line"/>
      <point x="561" y="-45" type="line" name="hr03"/>
    </contour>
    <contour>
      <point x="364" y="1100" type="move" name="U"/>
    </contour>
    <contour>
      <point x="364" y="-500" type="move" name="L"/>
    </contour>
  </outline>
</glyph>
<glyph name="LtnSmTurnedV" format="1">
  <advance width="1159"/>
  <unicode hex="028C"/>
  <outline>
    <contour>
      <point x="1141" y="0" type="line" name="hr01"/>
      <point x="1141" y="96" type="line" name="hr02"/>
      <point x="1020" y="109" type="line"/>
      <point x="690" y="999" type="line"/>
      <point x="489" y="999" type="line"/>
      <point x="135" y="111" type="line"/>
      <point x="20" y="96" type="line" name="hr03"/>
      <point x="20" y="0" type="line"/>
      <point x="418" y="0" type="line"/>
      <point x="418" y="96" type="line"/>
      <point x="332" y="102" type="line" smooth="yes"/>
      <point x="309" y="104"/>
      <point x="291" y="127"/>
      <point x="299" y="147" type="curve" smooth="yes"/>
      <point x="524" y="715" type="line"/>
      <point x="725" y="147" type="line"/>
      <point x="731" y="125"/>
      <point x="719" y="104"/>
      <point x="696" y="102" type="curve" smooth="yes"/>
      <point x="600" y="96" type="line"/>
      <point x="600" y="0" type="line"/>
    </contour>
    <contour>
      <point x="580" y="1100" type="move" name="U"/>
    </contour>
    <contour>
      <point x="580" y="-100" type="move" name="L"/>
    </contour>
    <contour>
      <point x="1159" y="1000" type="move" name="R"/>
    </contour>
    <contour>
      <point x="636" y="0" type="move" name="O"/>
    </contour>
    <contour>
      <point x="580" y="0" type="move" name="H"/>
    </contour>
  </outline>
</glyph>
<glyph name="LtnSmCapY" format="1">
  <advance width="1116"/>
  <unicode hex="028F"/>
  <outline>
    <contour>
      <point x="1096" y="903" type="line" name="hr01"/>
      <point x="1096" y="999" type="line"/>
      <point x="711" y="999" type="line"/>
      <point x="711" y="903" type="line"/>
      <point x="821" y="897" type="line" smooth="yes"/>
      <point x="829" y="897"/>
      <point x="825" y="889"/>
      <point x="819" y="879" type="curve" smooth="yes"/>
      <point x="608" y="549" type="line"/>
      <point x="412" y="877" type="line" smooth="yes"/>
      <point x="406" y="887"/>
      <point x="403" y="895"/>
      <point x="410" y="895" type="curve" smooth="yes"/>
      <point x="508" y="903" type="line"/>
      <point x="508" y="999" type="line"/>
      <point x="20" y="999" type="line"/>
      <point x="20" y="903" type="line"/>
      <point x="129" y="891" type="line"/>
      <point x="440" y="389" type="line" name="hr02"/>
      <point x="440" y="125" type="line" smooth="yes"/>
      <point x="440" y="94"/>
      <point x="356" y="100"/>
      <point x="303" y="96" type="curve"/>
      <point x="303" y="0" type="line"/>
      <point x="834" y="0" type="line"/>
      <point x="834" y="96" type="line"/>
      <point x="723" y="104" type="line" smooth="yes"/>
      <point x="707" y="104"/>
      <point x="698" y="115"/>
      <point x="698" y="125" type="curve" smooth="yes"/>
      <point x="698" y="430" type="line"/>
      <point x="995" y="891" type="line"/>
    </contour>
    <contour>
      <point x="558" y="1100" type="move" name="U"/>
    </contour>
    <contour>
      <point x="558" y="-100" type="move" name="L"/>
    </contour>
    <contour>
      <point x="1116" y="1000" type="move" name="R"/>
    </contour>
  </outline>
</glyph>
<glyph name="LtnSmCapH" format="1">
  <advance width="1274"/>
  <unicode hex="029C"/>
  <outline>
    <contour>
      <point x="1219" y="0" type="line" name="hr00"/>
      <point x="1219" y="96" type="line"/>
      <point x="1124" y="104" type="line" smooth="yes"/>
      <point x="1108" y="106"/>
      <point x="1100" y="115"/>
      <point x="1100" y="125" type="curve" smooth="yes"/>
      <point x="1100" y="874" type="line" smooth="yes"/>
      <point x="1100" y="885"/>
      <point x="1108" y="893"/>
      <point x="1124" y="895" type="curve" smooth="yes"/>
      <point x="1219" y="903" type="line"/>
      <point x="1219" y="999" type="line"/>
      <point x="727" y="999" type="line"/>
      <point x="727" y="903" type="line"/>
      <point x="821" y="895" type="line" smooth="yes"/>
      <point x="838" y="893"/>
      <point x="846" y="885"/>
      <point x="846" y="874" type="curve" smooth="yes"/>
      <point x="846" y="582" type="line"/>
      <point x="428" y="582" type="line"/>
      <point x="428" y="874" type="line" smooth="yes"/>
      <point x="428" y="885"/>
      <point x="436" y="893"/>
      <point x="453" y="895" type="curve" smooth="yes"/>
      <point x="547" y="903" type="line"/>
      <point x="547" y="999" type="line"/>
      <point x="55" y="999" type="line"/>
      <point x="55" y="903" type="line"/>
      <point x="150" y="895" type="line" smooth="yes"/>
      <point x="166" y="893"/>
      <point x="174" y="885"/>
      <point x="174" y="874" type="curve" smooth="yes"/>
      <point x="174" y="125" type="line" smooth="yes"/>
      <point x="174" y="115"/>
      <point x="166" y="106"/>
      <point x="150" y="104" type="curve" smooth="yes"/>
      <point x="55" y="96" type="line"/>
      <point x="55" y="0" type="line"/>
      <point x="547" y="0" type="line"/>
      <point x="547" y="96" type="line"/>
      <point x="453" y="104" type="line" smooth="yes"/>
      <point x="436" y="106"/>
      <point x="428" y="115"/>
      <point x="428" y="125" type="curve" smooth="yes"/>
      <point x="428" y="465" type="line"/>
      <point x="846" y="465" type="line"/>
      <point x="846" y="125" type="line" smooth="yes"/>
      <point x="846" y="115"/>
      <point x="838" y="106"/>
      <point x="821" y="104" type="curve" smooth="yes"/>
      <point x="727" y="96" type="line"/>
      <point x="727" y="0" type="line"/>
    </contour>
    <contour>
      <point x="637" y="1100" type="move" name="U"/>
    </contour>
    <contour>
      <point x="637" y="-100" type="move" name="L"/>
    </contour>
  </outline>
</glyph>
<glyph name="LtnSmCapL" format="1">
  <advance width="932"/>
  <unicode hex="029F"/>
  <outline>
    <contour>
      <point x="899" y="0" type="line" name="hr01"/>
      <point x="899" y="313" type="line"/>
      <point x="750" y="313" type="line"/>
      <point x="745" y="279"/>
      <point x="754" y="111"/>
      <point x="702" y="111" type="curve" smooth="yes"/>
      <point x="436" y="111" type="line"/>
      <point x="436" y="874" type="line" smooth="yes"/>
      <point x="436" y="885"/>
      <point x="444" y="893"/>
      <point x="461" y="895" type="curve" smooth="yes"/>
      <point x="559" y="903" type="line"/>
      <point x="559" y="999" type="line"/>
      <point x="51" y="999" type="line"/>
      <point x="51" y="903" type="line"/>
      <point x="160" y="895" type="line" smooth="yes"/>
      <point x="176" y="893"/>
      <point x="184" y="885"/>
      <point x="184" y="874" type="curve" smooth="yes"/>
      <point x="184" y="135" type="line" smooth="yes" name="hr02"/>
      <point x="184" y="117"/>
      <point x="176" y="106"/>
      <point x="160" y="104" type="curve" smooth="yes"/>
      <point x="51" y="96" type="line"/>
      <point x="51" y="0" type="line" name="hr03"/>
    </contour>
    <contour>
      <point x="475" y="1100" type="move" name="U"/>
    </contour>
    <contour>
      <point x="475" y="-100" type="move" name="L"/>
    </contour>
  </outline>
</glyph>
<glyph name="LtnSmDzDigraphCurl" format="1">
  <advance width="1847"/>
  <unicode hex="02A5"/>
  <outline>
    <contour>
      <point x="1808" y="279" type="curve" smooth="yes" name="hr01"/>
      <point x="1808" y="371"/>
      <point x="1751" y="428"/>
      <point x="1632" y="428" type="curve" smooth="yes"/>
      <point x="1475" y="428"/>
      <point x="1384" y="291"/>
      <point x="1329" y="121" type="curve"/>
      <point x="1196" y="121" type="line"/>
      <point x="1733" y="885" type="line"/>
      <point x="1733" y="999" type="line"/>
      <point x="1063" y="999" type="line"/>
      <point x="1063" y="1516" type="line"/>
      <point x="958" y="1516" type="line"/>
      <point x="639" y="1413" type="line"/>
      <point x="639" y="1329" type="line"/>
      <point x="788" y="1329" type="line"/>
      <point x="788" y="999" type="line"/>
      <point x="788" y="999"/>
      <point x="678" y="1024"/>
      <point x="600" y="1024" type="curve" smooth="yes" name="hr02"/>
      <point x="291" y="1024"/>
      <point x="66" y="829"/>
      <point x="66" y="477" type="curve" smooth="yes"/>
      <point x="66" y="188"/>
      <point x="217" y="-25"/>
      <point x="467" y="-25" type="curve" smooth="yes"/>
      <point x="616" y="-25"/>
      <point x="788" y="119"/>
      <point x="788" y="119" type="curve"/>
      <point x="788" y="0" type="line" name="hr03"/>
      <point x="1307" y="0" type="line"/>
      <point x="1282" y="-100"/>
      <point x="1270" y="-195"/>
      <point x="1266" y="-272" type="curve"/>
      <point x="1386" y="-272" type="line"/>
      <point x="1389" y="-207"/>
      <point x="1405" y="-109"/>
      <point x="1425" y="0" type="curve"/>
      <point x="1485" y="0" type="line" smooth="yes"/>
      <point x="1651" y="0"/>
      <point x="1808" y="78"/>
    </contour>
    <contour>
      <point x="1411" y="883" type="line"/>
      <point x="1063" y="383" type="line"/>
      <point x="1063" y="883" type="line"/>
    </contour>
    <contour>
      <point x="1673" y="248" type="curve" smooth="yes"/>
      <point x="1673" y="174"/>
      <point x="1608" y="121"/>
      <point x="1530" y="121" type="curve" smooth="yes"/>
      <point x="1450" y="121" type="line"/>
      <point x="1483" y="229"/>
      <point x="1522" y="305"/>
      <point x="1583" y="305" type="curve" smooth="yes"/>
      <point x="1647" y="305"/>
      <point x="1673" y="301"/>
    </contour>
    <contour>
      <point x="788" y="203" type="line" name="hr04"/>
      <point x="788" y="203"/>
      <point x="705" y="162"/>
      <point x="631" y="162" type="curve" smooth="yes"/>
      <point x="453" y="162"/>
      <point x="365" y="309"/>
      <point x="365" y="524" type="curve" smooth="yes"/>
      <point x="365" y="735"/>
      <point x="455" y="901"/>
      <point x="645" y="901" type="curve" smooth="yes"/>
      <point x="707" y="901"/>
      <point x="788" y="864"/>
      <point x="788" y="864" type="curve"/>
    </contour>
    <contour>
      <point x="937" y="1580" type="move" name="U"/>
    </contour>
    <contour>
      <point x="937" y="-100" type="move" name="L"/>
    </contour>
  </outline>
</glyph>
<glyph name="LtnSmFengDigraph" format="1">
  <advance width="1940"/>
  <unicode hex="02A9"/>
  <outline>
    <contour>
      <point x="1776" y="-23" type="curve" name="hr01"/>
      <point x="1776" y="668" type="line" smooth="yes"/>
      <point x="1776" y="846"/>
      <point x="1713" y="1024"/>
      <point x="1477" y="1024" type="curve" smooth="yes" name="hr02"/>
      <point x="1301" y="1024"/>
      <point x="1119" y="899"/>
      <point x="1119" y="899" type="curve"/>
      <point x="1119" y="1024" type="line"/>
      <point x="1012" y="1024" type="line"/>
      <point x="866" y="975" type="line" name="hr03"/>
      <point x="465" y="975" type="line"/>
      <point x="465" y="1094" type="line" smooth="yes"/>
      <point x="465" y="1280"/>
      <point x="489" y="1346"/>
      <point x="530" y="1407" type="curve"/>
      <point x="733" y="1217" type="line"/>
      <point x="799" y="1239"/>
      <point x="860" y="1288"/>
      <point x="860" y="1352" type="curve" smooth="yes"/>
      <point x="860" y="1468"/>
      <point x="745" y="1516"/>
      <point x="664" y="1516" type="curve" smooth="yes"/>
      <point x="496" y="1516"/>
      <point x="360" y="1419"/>
      <point x="279" y="1286" type="curve"/>
      <point x="221" y="1196"/>
      <point x="190" y="1100"/>
      <point x="190" y="993" type="curve"/>
      <point x="59" y="926" type="line"/>
      <point x="59" y="844" type="line"/>
      <point x="193" y="844" type="line" name="hr04"/>
      <point x="193" y="150" type="line" smooth="yes"/>
      <point x="193" y="125"/>
      <point x="172" y="104"/>
      <point x="147" y="102" type="curve" smooth="yes"/>
      <point x="43" y="96" type="line"/>
      <point x="43" y="0" type="line"/>
      <point x="637" y="0" type="line"/>
      <point x="637" y="96" type="line" name="hr05"/>
      <point x="512" y="102" type="line"/>
      <point x="485" y="102"/>
      <point x="467" y="125"/>
      <point x="467" y="150" type="curve" smooth="yes"/>
      <point x="467" y="844" type="line"/>
      <point x="844" y="844" type="line"/>
      <point x="844" y="150" type="line" smooth="yes" name="hr06"/>
      <point x="844" y="125"/>
      <point x="824" y="104"/>
      <point x="799" y="102" type="curve" smooth="yes"/>
      <point x="726" y="96" type="line"/>
      <point x="726" y="0" type="line"/>
      <point x="1227" y="0" type="line"/>
      <point x="1227" y="96" type="line"/>
      <point x="1166" y="102" type="line" smooth="yes"/>
      <point x="1141" y="104"/>
      <point x="1119" y="125"/>
      <point x="1119" y="150" type="curve" smooth="yes"/>
      <point x="1119" y="809" type="line"/>
      <point x="1119" y="809"/>
      <point x="1203" y="836"/>
      <point x="1315" y="836" type="curve" smooth="yes"/>
      <point x="1438" y="836"/>
      <point x="1504" y="735"/>
      <point x="1504" y="631" type="curve" smooth="yes"/>
      <point x="1504" y="-86" type="line" smooth="yes"/>
      <point x="1504" y="-328"/>
      <point x="1444" y="-371"/>
      <point x="1399" y="-371" type="curve"/>
      <point x="1186" y="-166" type="line"/>
      <point x="1106" y="-166"/>
      <point x="1057" y="-248"/>
      <point x="1057" y="-313" type="curve" smooth="yes"/>
      <point x="1057" y="-418"/>
      <point x="1186" y="-473"/>
      <point x="1278" y="-473" type="curve" smooth="yes"/>
      <point x="1602" y="-473"/>
      <point x="1776" y="-272"/>
    </contour>
    <contour>
      <point x="943" y="1540" type="move" name="U"/>
    </contour>
    <contour>
      <point x="909" y="-500" type="move" name="L"/>
    </contour>
  </outline>
</glyph>
<glyph name="LtnSmLZDigraph" format="1">
  <advance width="1326"/>
  <unicode hex="02AB"/>
  <outline>
    <contour>
      <point x="1260" y="0" type="line" name="hr01"/>
      <point x="1260" y="344" type="line"/>
      <point x="1119" y="344" type="line"/>
      <point x="1092" y="170" type="line"/>
      <point x="1088" y="150"/>
      <point x="1065" y="121"/>
      <point x="1047" y="121" type="curve" smooth="yes"/>
      <point x="695" y="121" type="line"/>
      <point x="1231" y="885" type="line"/>
      <point x="1231" y="999" type="line"/>
      <point x="477" y="999" type="line"/>
      <point x="477" y="1516" type="line"/>
      <point x="373" y="1516" type="line"/>
      <point x="59" y="1413" type="line"/>
      <point x="59" y="1329" type="line"/>
      <point x="205" y="1329" type="line"/>
      <point x="205" y="150" type="line" smooth="yes" name="hr02"/>
      <point x="205" y="123"/>
      <point x="186" y="104"/>
      <point x="160" y="102" type="curve" smooth="yes"/>
      <point x="59" y="96" type="line"/>
      <point x="59" y="0" type="line" name="hr03"/>
    </contour>
    <contour>
      <point x="512" y="840" type="line"/>
      <point x="516" y="858"/>
      <point x="530" y="883"/>
      <point x="551" y="883" type="curve" smooth="yes"/>
      <point x="910" y="883" type="line"/>
      <point x="477" y="263" type="line"/>
      <point x="477" y="682" type="line"/>
    </contour>
    <contour>
      <point x="720" y="1580" type="move" name="U"/>
    </contour>
    <contour>
      <point x="659" y="-100" type="move" name="L"/>
    </contour>
  </outline>
</glyph>
<glyph name="LtnBilabialPercussive" format="1">
  <advance width="1120"/>
  <unicode hex="02AC"/>
  <outline>
    <contour>
      <point x="1108" y="542" type="line" name="hr01"/>
      <point x="1108" y="600" type="line"/>
      <point x="852" y="600" type="line"/>
      <point x="852" y="542" type="line"/>
      <point x="909" y="538" type="line" smooth="yes"/>
      <point x="926" y="537"/>
      <point x="934" y="524"/>
      <point x="930" y="512" type="curve" smooth="yes"/>
      <point x="817" y="172" type="line"/>
      <point x="676" y="600" type="line"/>
      <point x="530" y="600" type="line"/>
      <point x="381" y="174" type="line"/>
      <point x="276" y="512" type="line" smooth="yes"/>
      <point x="272" y="524"/>
      <point x="281" y="536"/>
      <point x="297" y="538" type="curve"/>
      <point x="354" y="542" type="line"/>
      <point x="354" y="600" type="line"/>
      <point x="12" y="600" type="line"/>
      <point x="12" y="542" type="line"/>
      <point x="92" y="534" type="line"/>
      <point x="262" y="0" type="line"/>
      <point x="408" y="0" type="line"/>
      <point x="561" y="436" type="line"/>
      <point x="707" y="0" type="line"/>
      <point x="854" y="0" type="line"/>
      <point x="1032" y="532" type="line"/>
    </contour>
    <contour>
      <point x="1108" y="1317" type="line" name="hr02"/>
      <point x="1108" y="1374" type="line" name="hr03"/>
      <point x="852" y="1374" type="line"/>
      <point x="852" y="1317" type="line"/>
      <point x="909" y="1315" type="line"/>
      <point x="926" y="1313"/>
      <point x="934" y="1301"/>
      <point x="930" y="1286" type="curve"/>
      <point x="817" y="946" type="line"/>
      <point x="676" y="1374" type="line"/>
      <point x="530" y="1374" type="line"/>
      <point x="381" y="948" type="line"/>
      <point x="276" y="1286" type="line" smooth="yes"/>
      <point x="272" y="1301"/>
      <point x="281" y="1313"/>
      <point x="297" y="1315" type="curve"/>
      <point x="354" y="1317" type="line"/>
      <point x="354" y="1374" type="line"/>
      <point x="12" y="1374" type="line"/>
      <point x="12" y="1317" type="line"/>
      <point x="92" y="1311" type="line"/>
      <point x="262" y="776" type="line"/>
      <point x="408" y="776" type="line"/>
      <point x="561" y="1213" type="line"/>
      <point x="707" y="776" type="line"/>
      <point x="854" y="776" type="line"/>
      <point x="1032" y="1309" type="line" name="hr04"/>
    </contour>
    <contour>
      <point x="560" y="1540" type="move" name="U"/>
    </contour>
    <contour>
      <point x="560" y="-100" type="move" name="L"/>
    </contour>
  </outline>
</glyph>
<glyph name="LtnBidentalPercussive" format="1">
  <advance width="966"/>
  <unicode hex="02AD"/>
  <outline>
    <contour>
      <point x="945" y="955" type="line" name="hr01"/>
      <point x="945" y="1410" type="line"/>
      <point x="60" y="1410" type="line"/>
      <point x="60" y="955" type="line"/>
      <point x="159" y="955" type="line"/>
      <point x="159" y="1232" type="line"/>
      <point x="846" y="1232" type="line"/>
      <point x="846" y="955" type="line"/>
    </contour>
    <contour>
      <point x="955" y="0" type="line" name="hr02"/>
      <point x="955" y="455" type="line"/>
      <point x="70" y="455" type="line"/>
      <point x="70" y="0" type="line"/>
      <point x="169" y="0" type="line"/>
      <point x="169" y="277" type="line"/>
      <point x="856" y="277" type="line"/>
      <point x="856" y="0" type="line"/>
    </contour>
    <contour>
      <point x="507" y="1540" type="move" name="U"/>
    </contour>
    <contour>
      <point x="507" y="-100" type="move" name="L"/>
    </contour>
  </outline>
</glyph>
<glyph name="LtnSmTurnedHFishhook" format="1">
  <advance width="1444"/>
  <unicode hex="02AE"/>
  <outline>
    <contour>
      <point x="1407" y="-371" type="line" name="hr01"/>
      <point x="1407" y="-287" type="line"/>
      <point x="1260" y="-287" type="line"/>
      <point x="1260" y="850" type="line" smooth="yes"/>
      <point x="1260" y="874"/>
      <point x="1280" y="895"/>
      <point x="1305" y="897" type="curve" smooth="yes"/>
      <point x="1389" y="903" type="line"/>
      <point x="1389" y="999" type="line"/>
      <point x="868" y="999" type="line"/>
      <point x="868" y="903" type="line"/>
      <point x="940" y="897" type="line" smooth="yes"/>
      <point x="965" y="895"/>
      <point x="985" y="874"/>
      <point x="985" y="850" type="curve" smooth="yes"/>
      <point x="985" y="190" type="line"/>
      <point x="985" y="190"/>
      <point x="874" y="164"/>
      <point x="793" y="164" type="curve" smooth="yes"/>
      <point x="641" y="164"/>
      <point x="621" y="299"/>
      <point x="621" y="367" type="curve" smooth="yes"/>
      <point x="621" y="528" type="line" smooth="yes"/>
      <point x="621" y="825"/>
      <point x="471" y="1024"/>
      <point x="164" y="1024" type="curve" smooth="yes" name="hr02"/>
      <point x="72" y="1024"/>
      <point x="-53" y="977"/>
      <point x="-53" y="870" type="curve" smooth="yes"/>
      <point x="-53" y="803"/>
      <point x="-27" y="713"/>
      <point x="92" y="713" type="curve"/>
      <point x="264" y="915" type="line"/>
      <point x="326" y="926"/>
      <point x="346" y="821"/>
      <point x="346" y="684" type="curve" smooth="yes"/>
      <point x="346" y="297" type="line" smooth="yes"/>
      <point x="346" y="174"/>
      <point x="385" y="-25"/>
      <point x="627" y="-25" type="curve" smooth="yes"/>
      <point x="788" y="-25"/>
      <point x="985" y="102"/>
      <point x="985" y="102" type="curve"/>
      <point x="985" y="-473" type="line"/>
      <point x="1092" y="-473" type="line"/>
    </contour>
    <contour>
      <point x="677" y="1100" type="move" name="U"/>
    </contour>
    <contour>
      <point x="677" y="-500" type="move" name="L"/>
    </contour>
  </outline>
</glyph>
<glyph name="ModSmJ" format="1">
  <advance width="442"/>
  <unicode hex="02B2"/>
  <outline>
    <contour>
      <point x="324" y="1599" type="curve" smooth="yes" name="hr01"/>
      <point x="324" y="1653"/>
      <point x="279" y="1694"/>
      <point x="221" y="1694" type="curve" smooth="yes"/>
      <point x="164" y="1694"/>
      <point x="119" y="1653"/>
      <point x="119" y="1599" type="curve" smooth="yes"/>
      <point x="119" y="1546"/>
      <point x="164" y="1503"/>
      <point x="221" y="1503" type="curve" smooth="yes"/>
      <point x="279" y="1503"/>
      <point x="324" y="1546"/>
    </contour>
    <contour>
      <point x="311" y="842" type="curve" name="hr02"/>
      <point x="311" y="1399" type="line"/>
      <point x="242" y="1399" type="line"/>
      <point x="39" y="1337" type="line"/>
      <point x="39" y="1286" type="line"/>
      <point x="133" y="1286" type="line"/>
      <point x="133" y="778" type="line"/>
      <point x="133" y="778"/>
      <point x="137" y="616"/>
      <point x="96" y="555" type="curve"/>
      <point x="-35" y="676" type="line"/>
      <point x="-80" y="672"/>
      <point x="-121" y="637"/>
      <point x="-121" y="594" type="curve" smooth="yes"/>
      <point x="-121" y="532"/>
      <point x="-57" y="500"/>
      <point x="14" y="500" type="curve" smooth="yes"/>
      <point x="113" y="500"/>
      <point x="184" y="537"/>
      <point x="231" y="594" type="curve" smooth="yes"/>
      <point x="287" y="659"/>
      <point x="311" y="750"/>
    </contour>
    <contour>
      <point x="101" y="1650" type="move" name="U"/>
    </contour>
    <contour>
      <point x="101" y="485" type="move" name="L"/>
    </contour>
  </outline>
</glyph>
<glyph name="ModTurnedComma" format="1">
  <advance width="563"/>
  <unicode hex="02BB"/>
  <outline>
    <contour>
      <point x="442" y="1346" type="curve" name="hr01"/>
      <point x="412" y="1423" type="line"/>
      <point x="412" y="1423"/>
      <point x="76" y="1331"/>
      <point x="76" y="997" type="curve" smooth="yes"/>
      <point x="76" y="879"/>
      <point x="145" y="784"/>
      <point x="260" y="784" type="curve" smooth="yes" name="hr02"/>
      <point x="342" y="784"/>
      <point x="410" y="838"/>
      <point x="410" y="932" type="curve" smooth="yes"/>
      <point x="410" y="993"/>
      <point x="369" y="1044"/>
      <point x="369" y="1044" type="curve"/>
      <point x="248" y="1044" type="line"/>
      <point x="248" y="1044"/>
      <point x="246" y="1057"/>
      <point x="246" y="1067" type="curve" smooth="yes"/>
      <point x="246" y="1257"/>
      <point x="414" y="1337"/>
    </contour>
  </outline>
</glyph>
<glyph name="ModTriangularColon" format="1">
  <advance width="580"/>
  <unicode hex="02D0"/>
  <outline>
    <contour>
      <point x="504" y="1016" type="line" name="hr00"/>
      <point x="76" y="1016" type="line"/>
      <point x="197" y="629" type="line"/>
      <point x="383" y="629" type="line"/>
    </contour>
    <contour>
      <point x="504" y="0" type="line"/>
      <point x="383" y="385" type="line"/>
      <point x="197" y="385" type="line"/>
      <point x="76" y="0" type="line"/>
    </contour>
    <contour>
      <point x="290" y="1100" type="move" name="U"/>
    </contour>
    <contour>
      <point x="290" y="-100" type="move" name="L"/>
    </contour>
  </outline>
</glyph>
<glyph name="ModHalfTriangularColon" format="1">
  <advance width="580"/>
  <unicode hex="02D1"/>
  <outline>
    <contour>
      <point x="504" y="1016" type="line" name="hr00"/>
      <point x="76" y="1016" type="line"/>
      <point x="197" y="629" type="line"/>
      <point x="383" y="629" type="line"/>
    </contour>
  </outline>
</glyph>
<glyph name="ModCntrdRtHalfRing" format="1">
  <advance width="559"/>
  <unicode hex="02D2"/>
  <outline>
    <contour>
      <point x="469" y="369" type="curve" smooth="yes" name="hr00"/>
      <point x="469" y="608"/>
      <point x="330" y="739"/>
      <point x="90" y="739" type="curve"/>
      <point x="90" y="602" type="line"/>
      <point x="250" y="602"/>
      <point x="326" y="535"/>
      <point x="326" y="369" type="curve" smooth="yes"/>
      <point x="326" y="205"/>
      <point x="250" y="137"/>
      <point x="90" y="137" type="curve"/>
      <point x="90" y="0" type="line"/>
      <point x="324" y="0"/>
      <point x="469" y="127"/>
    </contour>
  </outline>
</glyph>
<glyph name="ModUpTack" format="1">
  <advance width="850"/>
  <unicode hex="02D4"/>
  <outline>
    <contour>
      <point x="739" y="207" type="line" name="hr00"/>
      <point x="739" y="346" type="line"/>
      <point x="496" y="346" type="line"/>
      <point x="496" y="758" type="line"/>
      <point x="354" y="758" type="line"/>
      <point x="354" y="346" type="line"/>
      <point x="109" y="346" type="line"/>
      <point x="109" y="207" type="line"/>
    </contour>
  </outline>
</glyph>
<glyph name="ModDwnTack" format="1">
  <advance width="850"/>
  <unicode hex="02D5"/>
  <outline>
    <contour>
      <point x="739" y="614" type="line" name="hr00"/>
      <point x="739" y="758" type="line"/>
      <point x="109" y="758" type="line"/>
      <point x="109" y="614" type="line"/>
      <point x="354" y="614" type="line"/>
      <point x="354" y="207" type="line"/>
      <point x="496" y="207" type="line"/>
      <point x="496" y="614" type="line"/>
    </contour>
  </outline>
</glyph>
<glyph name="ModPlusSgn" format="1">
  <advance width="498"/>
  <unicode hex="02D6"/>
  <outline>
    <contour>
      <point x="498" y="443" type="line" name="hr00"/>
      <point x="498" y="560" type="line"/>
      <point x="307" y="560" type="line"/>
      <point x="307" y="748" type="line"/>
      <point x="190" y="748" type="line"/>
      <point x="190" y="560" type="line"/>
      <point x="0" y="560" type="line"/>
      <point x="0" y="443" type="line"/>
      <point x="190" y="443" type="line"/>
      <point x="190" y="250" type="line"/>
      <point x="307" y="250" type="line"/>
      <point x="307" y="443" type="line"/>
    </contour>
  </outline>
</glyph>
<glyph name="ModCrossAccent" format="1">
  <advance width="498"/>
  <unicode hex="02DF"/>
  <outline>
    <contour>
      <point x="385" y="283" type="line" name="hr00"/>
      <point x="468" y="366" type="line"/>
      <point x="333" y="501" type="line"/>
      <point x="466" y="634" type="line"/>
      <point x="383" y="717" type="line"/>
      <point x="250" y="584" type="line"/>
      <point x="116" y="718" type="line"/>
      <point x="33" y="635" type="line"/>
      <point x="168" y="501" type="line"/>
      <point x="31" y="365" type="line"/>
      <point x="114" y="282" type="line"/>
      <point x="250" y="418" type="line"/>
    </contour>
  </outline>
</glyph>
<glyph name="ModSmL" format="1">
  <advance width="442"/>
  <unicode hex="02E1"/>
  <outline>
    <contour>
      <point x="406" y="784" type="line" name="hr00"/>
      <point x="406" y="842" type="line"/>
      <point x="340" y="846" type="line" smooth="yes"/>
      <point x="322" y="846"/>
      <point x="309" y="858"/>
      <point x="309" y="874" type="curve" smooth="yes"/>
      <point x="309" y="1694" type="line"/>
      <point x="242" y="1694" type="line"/>
      <point x="39" y="1632" type="line"/>
      <point x="39" y="1581" type="line"/>
      <point x="131" y="1581" type="line"/>
      <point x="131" y="874" type="line" smooth="yes"/>
      <point x="131" y="858"/>
      <point x="121" y="846"/>
      <point x="102" y="846" type="curve" smooth="yes"/>
      <point x="39" y="842" type="line"/>
      <point x="39" y="784" type="line"/>
    </contour>
    <contour>
      <point x="222" y="1700" type="move" name="U"/>
    </contour>
    <contour>
      <point x="222" y="725" type="move" name="L"/>
    </contour>
  </outline>
</glyph>
<glyph name="ModSmX" format="1">
  <advance width="727"/>
  <unicode hex="02E3"/>
  <outline>
    <contour>
      <point x="715" y="784" type="line" name="hr01"/>
      <point x="715" y="842" type="line"/>
      <point x="645" y="852" type="line"/>
      <point x="438" y="1116" type="line"/>
      <point x="616" y="1317" type="line" name="hr02"/>
      <point x="690" y="1325" type="line"/>
      <point x="690" y="1382" type="line" name="hr03"/>
      <point x="444" y="1382" type="line"/>
      <point x="444" y="1325" type="line"/>
      <point x="485" y="1323" type="line" smooth="yes"/>
      <point x="500" y="1321"/>
      <point x="504" y="1309"/>
      <point x="496" y="1300" type="curve" smooth="yes"/>
      <point x="387" y="1182" type="line"/>
      <point x="295" y="1300" type="line" smooth="yes"/>
      <point x="289" y="1309"/>
      <point x="291" y="1321"/>
      <point x="303" y="1323" type="curve"/>
      <point x="344" y="1325" type="line"/>
      <point x="344" y="1382" type="line"/>
      <point x="16" y="1382" type="line"/>
      <point x="16" y="1325" type="line" name="hr04"/>
      <point x="86" y="1317" type="line"/>
      <point x="285" y="1065" type="line"/>
      <point x="94" y="852" type="line" name="hr05"/>
      <point x="12" y="842" type="line"/>
      <point x="12" y="784" type="line"/>
      <point x="272" y="784" type="line"/>
      <point x="272" y="842" type="line"/>
      <point x="227" y="846" type="line" smooth="yes"/>
      <point x="213" y="848"/>
      <point x="209" y="858"/>
      <point x="215" y="866" type="curve" smooth="yes"/>
      <point x="336" y="999" type="line"/>
      <point x="438" y="866" type="line" smooth="yes"/>
      <point x="446" y="858"/>
      <point x="442" y="848"/>
      <point x="428" y="846" type="curve" smooth="yes"/>
      <point x="377" y="842" type="line"/>
      <point x="377" y="784" type="line"/>
    </contour>
    <contour>
      <point x="363" y="1450" type="move" name="U"/>
    </contour>
    <contour>
      <point x="363" y="725" type="move" name="L"/>
    </contour>
  </outline>
</glyph>
<glyph name="ModYinDepartingTnMrk" format="1">
  <advance width="910"/>
  <unicode hex="02EA"/>
  <outline>
    <contour>
      <point x="548" y="195" type="line" name="hr00"/>
      <point x="548" y="274" type="line"/>
      <point x="193" y="274" type="line"/>
      <point x="193" y="745" type="line"/>
      <point x="115" y="745" type="line"/>
      <point x="115" y="195" type="line"/>
    </contour>
  </outline>
</glyph>
<glyph name="ModYangDepartingToneMrk" format="1">
  <advance width="727"/>
  <unicode hex="02EB"/>
  <outline>
    <contour>
      <point x="618" y="416" type="line" name="hr00"/>
      <point x="618" y="557" type="line"/>
      <point x="252" y="557" type="line"/>
      <point x="252" y="805" type="line"/>
      <point x="109" y="805" type="line"/>
      <point x="109" y="172" type="line"/>
      <point x="252" y="172" type="line"/>
      <point x="252" y="416" type="line"/>
    </contour>
  </outline>
</glyph>
<glyph name="ModUnaspd" format="1">
  <advance width="940"/>
  <unicode hex="02ED"/>
  <outline>
    <contour>
      <point x="890" y="795" type="line" name="hr00"/>
      <point x="890" y="960" type="line"/>
      <point x="50" y="960" type="line"/>
      <point x="50" y="795" type="line"/>
    </contour>
    <contour>
      <point x="890" y="1070" type="line"/>
      <point x="890" y="1235" type="line"/>
      <point x="50" y="1235" type="line"/>
      <point x="50" y="1070" type="line"/>
    </contour>
  </outline>
</glyph>
<glyph name="ModEndHighTn" format="1">
  <advance width="631"/>
  <unicode hex="02FA"/>
  <outline>
    <contour>
      <point x="51" y="1240" type="line" name="hr00"/>
      <point x="51" y="1153" type="line"/>
      <point x="495" y="1153" type="line"/>
      <point x="495" y="586" type="line"/>
      <point x="582" y="586" type="line"/>
      <point x="582" y="1240" type="line"/>
    </contour>
  </outline>
</glyph>
<glyph name="ModOpnShelf" format="1">
  <advance width="1164"/>
  <unicode hex="02FE"/>
  <outline>
    <contour>
      <point x="168" y="-237" type="line" name="hr00"/>
      <point x="168" y="-50" type="line"/>
      <point x="50" y="-50" type="line"/>
      <point x="50" y="-356" type="line"/>
      <point x="1114" y="-356" type="line"/>
      <point x="1114" y="-237" type="line"/>
    </contour>
  </outline>
</glyph>
<glyph name="CombGrave" format="1">
  <advance width="0"/>
  <unicode hex="0300"/>
  <outline>
    <contour>
      <point x="-397" y="1128" type="line" name="hr00"/>
      <point x="-677" y="1438" type="line" smooth="yes"/>
      <point x="-724" y="1489"/>
      <point x="-751" y="1503"/>
      <point x="-806" y="1503" type="curve" smooth="yes"/>
      <point x="-894" y="1503"/>
      <point x="-923" y="1444"/>
      <point x="-923" y="1395" type="curve" smooth="yes"/>
      <point x="-923" y="1368"/>
      <point x="-900" y="1325"/>
      <point x="-872" y="1309" type="curve" smooth="yes"/>
      <point x="-540" y="1128" type="line"/>
    </contour>
    <contour>
      <point x="-598" y="1500" type="move" name="U"/>
    </contour>
    <contour>
      <point x="-598" y="1100" type="move" name="_U"/>
    </contour>
  </outline>
</glyph>
<glyph name="CombCircum" format="1">
  <advance width="0"/>
  <unicode hex="0302"/>
  <outline>
    <contour>
      <point x="-250" y="1128" type="line" name="hr00"/>
      <point x="-477" y="1479" type="line"/>
      <point x="-719" y="1479" type="line"/>
      <point x="-946" y="1128" type="line"/>
      <point x="-776" y="1128" type="line"/>
      <point x="-598" y="1323" type="line"/>
      <point x="-420" y="1128" type="line"/>
    </contour>
    <contour>
      <point x="-598" y="1500" type="move" name="U"/>
    </contour>
    <contour>
      <point x="-598" y="1100" type="move" name="_U"/>
    </contour>
  </outline>
</glyph>
<glyph name="CombMacron" format="1">
  <advance width="0"/>
  <unicode hex="0304"/>
  <outline>
    <contour>
      <point x="-250" y="1200" type="line" name="hr00"/>
      <point x="-250" y="1365" type="line"/>
      <point x="-946" y="1365" type="line"/>
      <point x="-946" y="1200" type="line"/>
    </contour>
    <contour>
      <point x="-598" y="1470" type="move" name="U"/>
    </contour>
    <contour>
      <point x="-598" y="1100" type="move" name="_U"/>
    </contour>
  </outline>
</glyph>
<glyph name="CombOverline" format="1">
  <advance width="0"/>
  <unicode hex="0305"/>
  <outline>
    <contour>
      <point x="-2" y="1465" type="line" name="hr00"/>
      <point x="-2" y="1630" type="line"/>
      <point x="-1194" y="1630" type="line"/>
      <point x="-1194" y="1465" type="line"/>
    </contour>
    <contour>
      <point x="-598" y="1100" type="move" name="_U"/>
    </contour>
    <contour>
      <point x="-598" y="1580" type="move" name="U"/>
    </contour>
  </outline>
</glyph>
<glyph name="CombHookAbv" format="1">
  <advance width="0"/>
  <unicode hex="0309"/>
  <outline>
    <contour>
      <point x="-432" y="1411" type="curve" smooth="yes" name="hr00"/>
      <point x="-432" y="1499"/>
      <point x="-498" y="1569"/>
      <point x="-602" y="1569" type="curve" smooth="yes"/>
      <point x="-696" y="1569"/>
      <point x="-764" y="1507"/>
      <point x="-764" y="1464" type="curve" smooth="yes"/>
      <point x="-764" y="1440"/>
      <point x="-752" y="1405"/>
      <point x="-709" y="1405" type="curve" smooth="yes"/>
      <point x="-686" y="1405"/>
      <point x="-664" y="1417"/>
      <point x="-664" y="1417" type="curve"/>
      <point x="-639" y="1495" type="line"/>
      <point x="-631" y="1507"/>
      <point x="-617" y="1511"/>
      <point x="-600" y="1511" type="curve" smooth="yes"/>
      <point x="-569" y="1511"/>
      <point x="-537" y="1466"/>
      <point x="-537" y="1405" type="curve" smooth="yes"/>
      <point x="-537" y="1337"/>
      <point x="-590" y="1305"/>
      <point x="-651" y="1288" type="curve"/>
      <point x="-651" y="1128" type="line"/>
      <point x="-588" y="1128" type="line"/>
      <point x="-588" y="1247" type="line"/>
      <point x="-539" y="1268"/>
      <point x="-432" y="1313"/>
    </contour>
    <contour>
      <point x="-598" y="1500" type="move" name="U"/>
    </contour>
    <contour>
      <point x="-598" y="1100" type="move" name="_U"/>
    </contour>
  </outline>
</glyph>
<glyph name="CombCaron" format="1">
  <advance width="0"/>
  <unicode hex="030C"/>
  <outline>
    <contour>
      <point x="-250" y="1479" type="line" name="hr00"/>
      <point x="-420" y="1479" type="line"/>
      <point x="-598" y="1286" type="line"/>
      <point x="-776" y="1479" type="line"/>
      <point x="-946" y="1479" type="line"/>
      <point x="-719" y="1128" type="line"/>
      <point x="-477" y="1128" type="line"/>
    </contour>
    <contour>
      <point x="-598" y="1500" type="move" name="U"/>
    </contour>
    <contour>
      <point x="-598" y="1100" type="move" name="_U"/>
    </contour>
  </outline>
</glyph>
<glyph name="CombVertLineAbv" format="1">
  <advance width="0"/>
  <unicode hex="030D"/>
  <outline>
    <contour>
      <point x="-534" y="1128" type="line" name="hr00"/>
      <point x="-534" y="1505" type="line"/>
      <point x="-661" y="1505" type="line"/>
      <point x="-661" y="1128" type="line"/>
    </contour>
    <contour>
      <point x="-598" y="1500" type="move" name="U"/>
    </contour>
    <contour>
      <point x="-598" y="1100" type="move" name="_U"/>
    </contour>
  </outline>
</glyph>
<glyph name="CombDblVertLineAbv" format="1">
  <advance width="0"/>
  <unicode hex="030E"/>
  <outline>
    <contour>
      <point x="-395" y="1128" type="line" name="hr00"/>
      <point x="-395" y="1505" type="line"/>
      <point x="-520" y="1505" type="line"/>
      <point x="-520" y="1128" type="line"/>
    </contour>
    <contour>
      <point x="-674" y="1128" type="line"/>
      <point x="-674" y="1505" type="line"/>
      <point x="-801" y="1505" type="line"/>
      <point x="-801" y="1128" type="line"/>
    </contour>
    <contour>
      <point x="-598" y="1500" type="move" name="U"/>
    </contour>
    <contour>
      <point x="-598" y="1100" type="move" name="_U"/>
    </contour>
  </outline>
</glyph>
<glyph name="CombDblGrave" format="1">
  <advance width="0"/>
  <unicode hex="030F"/>
  <outline>
    <contour>
      <point x="-203" y="1128" type="line" name="hr00"/>
      <point x="-484" y="1438" type="line" smooth="yes"/>
      <point x="-529" y="1489"/>
      <point x="-558" y="1503"/>
      <point x="-613" y="1503" type="curve" smooth="yes"/>
      <point x="-701" y="1503"/>
      <point x="-730" y="1444"/>
      <point x="-730" y="1395" type="curve" smooth="yes"/>
      <point x="-730" y="1368"/>
      <point x="-707" y="1325"/>
      <point x="-676" y="1309" type="curve" smooth="yes"/>
      <point x="-347" y="1128" type="line"/>
    </contour>
    <contour>
      <point x="-644" y="1128" type="line"/>
      <point x="-922" y="1438" type="line" smooth="yes"/>
      <point x="-969" y="1489"/>
      <point x="-998" y="1503"/>
      <point x="-1053" y="1503" type="curve" smooth="yes"/>
      <point x="-1141" y="1503"/>
      <point x="-1170" y="1444"/>
      <point x="-1170" y="1395" type="curve" smooth="yes"/>
      <point x="-1170" y="1368"/>
      <point x="-1145" y="1325"/>
      <point x="-1117" y="1309" type="curve" smooth="yes"/>
      <point x="-785" y="1128" type="line"/>
    </contour>
    <contour>
      <point x="-598" y="1500" type="move" name="U"/>
    </contour>
    <contour>
      <point x="-598" y="1100" type="move" name="_U"/>
    </contour>
  </outline>
</glyph>
<glyph name="CombCommaAbvRt" format="1">
  <advance width="315"/>
  <unicode hex="0315"/>
  <outline>
    <contour>
      <point x="315" y="1599" type="curve" smooth="yes" name="hr00"/>
      <point x="315" y="1695"/>
      <point x="244" y="1771"/>
      <point x="139" y="1771" type="curve" smooth="yes"/>
      <point x="68" y="1771"/>
      <point x="0" y="1734"/>
      <point x="0" y="1652" type="curve" smooth="yes"/>
      <point x="0" y="1619"/>
      <point x="14" y="1586"/>
      <point x="41" y="1562" type="curve"/>
      <point x="170" y="1562" type="line"/>
      <point x="170" y="1496"/>
      <point x="104" y="1433"/>
      <point x="25" y="1410" type="curve"/>
      <point x="25" y="1328" type="line"/>
      <point x="182" y="1359"/>
      <point x="315" y="1457"/>
    </contour>
    <contour>
      <point x="0" y="1200" type="move" name="_R"/>
    </contour>
  </outline>
</glyph>
<glyph name="CombLftTackBlw" format="1">
  <advance width="0"/>
  <unicode hex="0318"/>
  <outline>
    <contour>
      <point x="-454" y="-522" type="line" name="hr00"/>
      <point x="-454" y="-125" type="line"/>
      <point x="-567" y="-125" type="line"/>
      <point x="-567" y="-268" type="line"/>
      <point x="-741" y="-268" type="line"/>
      <point x="-741" y="-381" type="line"/>
      <point x="-567" y="-381" type="line"/>
      <point x="-567" y="-522" type="line"/>
    </contour>
    <contour>
      <point x="-598" y="-500" type="move" name="L"/>
    </contour>
    <contour>
      <point x="-598" y="-100" type="move" name="_L"/>
    </contour>
  </outline>
</glyph>
<glyph name="CombRtTackBlw" format="1">
  <advance width="0"/>
  <unicode hex="0319"/>
  <outline>
    <contour>
      <point x="-454" y="-381" type="line" name="hr00"/>
      <point x="-454" y="-268" type="line"/>
      <point x="-628" y="-268" type="line"/>
      <point x="-628" y="-125" type="line"/>
      <point x="-741" y="-125" type="line"/>
      <point x="-741" y="-522" type="line"/>
      <point x="-628" y="-522" type="line"/>
      <point x="-628" y="-381" type="line"/>
    </contour>
    <contour>
      <point x="-598" y="-500" type="move" name="L"/>
    </contour>
    <contour>
      <point x="-598" y="-100" type="move" name="_L"/>
    </contour>
  </outline>
</glyph>
<glyph name="CombHorn" format="1">
  <advance width="414"/>
  <unicode hex="031B"/>
  <outline>
    <contour>
      <point x="417" y="1480" type="curve" smooth="yes" name="hr01"/>
      <point x="417" y="1637"/>
      <point x="340" y="1723"/>
      <point x="213" y="1723" type="curve" smooth="yes" name="hr02"/>
      <point x="111" y="1723"/>
      <point x="34" y="1662"/>
      <point x="34" y="1544" type="curve" smooth="yes"/>
      <point x="34" y="1480"/>
      <point x="75" y="1431"/>
      <point x="75" y="1431" type="curve"/>
      <point x="245" y="1431" type="line"/>
      <point x="245" y="1431"/>
      <point x="247" y="1415"/>
      <point x="247" y="1411" type="curve" smooth="yes"/>
      <point x="260" y="1310"/>
      <point x="211" y="1220"/>
      <point x="51" y="1132" type="curve"/>
      <point x="51" y="1050" type="line"/>
      <point x="51" y="1050"/>
      <point x="417" y="1144"/>
    </contour>
    <contour>
      <point x="0" y="1200" type="move" name="_R"/>
    </contour>
  </outline>
</glyph>
<glyph name="CombUpTackBlw" format="1">
  <advance width="0"/>
  <unicode hex="031D"/>
  <outline>
    <contour>
      <point x="-408" y="-399" type="line" name="hr00"/>
      <point x="-408" y="-289" type="line"/>
      <point x="-541" y="-289" type="line"/>
      <point x="-541" y="-125" type="line"/>
      <point x="-654" y="-125" type="line"/>
      <point x="-654" y="-289" type="line"/>
      <point x="-787" y="-289" type="line"/>
      <point x="-787" y="-399" type="line"/>
    </contour>
    <contour>
      <point x="-598" y="-500" type="move" name="L"/>
    </contour>
    <contour>
      <point x="-598" y="-100" type="move" name="_L"/>
    </contour>
  </outline>
</glyph>
<glyph name="CombDwnTackBlw" format="1">
  <advance width="0"/>
  <unicode hex="031E"/>
  <outline>
    <contour>
      <point x="-408" y="-238" type="line" name="hr00"/>
      <point x="-408" y="-125" type="line"/>
      <point x="-787" y="-125" type="line"/>
      <point x="-787" y="-238" type="line"/>
      <point x="-654" y="-238" type="line"/>
      <point x="-654" y="-399" type="line"/>
      <point x="-541" y="-399" type="line"/>
      <point x="-541" y="-238" type="line"/>
    </contour>
    <contour>
      <point x="-598" y="-500" type="move" name="L"/>
    </contour>
    <contour>
      <point x="-598" y="-100" type="move" name="_L"/>
    </contour>
  </outline>
</glyph>
<glyph name="CombMinusSgnBlw" format="1">
  <advance width="0"/>
  <unicode hex="0320"/>
  <outline>
    <contour>
      <point x="-368" y="-238" type="line" name="hr00"/>
      <point x="-368" y="-125" type="line"/>
      <point x="-827" y="-125" type="line"/>
      <point x="-827" y="-238" type="line"/>
    </contour>
    <contour>
      <point x="-598" y="-100" type="move" name="_L"/>
    </contour>
    <contour>
      <point x="-598" y="-500" type="move" name="L"/>
    </contour>
  </outline>
</glyph>
<glyph name="CombDotBlw" format="1">
  <advance width="0"/>
  <unicode hex="0323"/>
  <outline>
    <contour>
      <point x="-458" y="-324" type="curve" smooth="yes" name="hr00"/>
      <point x="-458" y="-240"/>
      <point x="-520" y="-174"/>
      <point x="-598" y="-174" type="curve" smooth="yes"/>
      <point x="-680" y="-174"/>
      <point x="-737" y="-242"/>
      <point x="-737" y="-324" type="curve" smooth="yes"/>
      <point x="-737" y="-403"/>
      <point x="-678" y="-463"/>
      <point x="-598" y="-463" type="curve" smooth="yes"/>
      <point x="-518" y="-463"/>
      <point x="-458" y="-399"/>
    </contour>
    <contour>
      <point x="-598" y="-500" type="move" name="L"/>
    </contour>
    <contour>
      <point x="-598" y="-100" type="move" name="_L"/>
    </contour>
  </outline>
</glyph>
<glyph name="CombDiaerBlw" format="1">
  <advance width="0"/>
  <unicode hex="0324"/>
  <outline>
    <contour>
      <point x="-241" y="-315" type="curve" smooth="yes" name="hr01"/>
      <point x="-241" y="-238"/>
      <point x="-305" y="-174"/>
      <point x="-383" y="-174" type="curve" smooth="yes" name="hr02"/>
      <point x="-460" y="-174"/>
      <point x="-524" y="-238"/>
      <point x="-524" y="-315" type="curve" smooth="yes"/>
      <point x="-524" y="-393"/>
      <point x="-460" y="-457"/>
      <point x="-383" y="-457" type="curve" smooth="yes"/>
      <point x="-305" y="-457"/>
      <point x="-241" y="-393"/>
    </contour>
    <contour>
      <point x="-671" y="-315" type="curve" smooth="yes"/>
      <point x="-671" y="-238"/>
      <point x="-735" y="-174"/>
      <point x="-813" y="-174" type="curve" smooth="yes" name="hr04"/>
      <point x="-891" y="-174"/>
      <point x="-954" y="-238"/>
      <point x="-954" y="-315" type="curve" smooth="yes"/>
      <point x="-954" y="-393"/>
      <point x="-891" y="-457"/>
      <point x="-813" y="-457" type="curve" smooth="yes"/>
      <point x="-735" y="-457"/>
      <point x="-671" y="-393"/>
    </contour>
    <contour>
      <point x="-598" y="-500" type="move" name="L"/>
    </contour>
    <contour>
      <point x="-598" y="-100" type="move" name="_L"/>
    </contour>
  </outline>
</glyph>
<glyph name="CombCommaBlw" format="1">
  <advance width="0"/>
  <unicode hex="0326"/>
  <outline>
    <contour>
      <point x="-440" y="-299" type="curve" smooth="yes" name="hr00"/>
      <point x="-440" y="-203"/>
      <point x="-511" y="-125"/>
      <point x="-616" y="-125" type="curve" smooth="yes"/>
      <point x="-687" y="-125"/>
      <point x="-755" y="-164"/>
      <point x="-755" y="-244" type="curve" smooth="yes"/>
      <point x="-755" y="-276"/>
      <point x="-741" y="-309"/>
      <point x="-714" y="-334" type="curve"/>
      <point x="-585" y="-334" type="line"/>
      <point x="-585" y="-399"/>
      <point x="-651" y="-463"/>
      <point x="-730" y="-485" type="curve"/>
      <point x="-730" y="-567" type="line"/>
      <point x="-573" y="-537"/>
      <point x="-440" y="-438"/>
    </contour>
    <contour>
      <point x="-598" y="-500" type="move" name="L"/>
    </contour>
    <contour>
      <point x="-598" y="-100" type="move" name="_L"/>
    </contour>
  </outline>
</glyph>
<glyph name="CombCedilla" format="1">
  <advance width="0"/>
  <unicode hex="0327"/>
  <outline>
    <contour>
      <point x="-344" y="-268" type="curve" smooth="yes" name="hr01"/>
      <point x="-344" y="-160"/>
      <point x="-422" y="-113"/>
      <point x="-516" y="-113" type="curve" smooth="yes"/>
      <point x="-537" y="-113"/>
      <point x="-545" y="-111"/>
      <point x="-545" y="-111" type="curve"/>
      <point x="-545" y="52" type="line"/>
      <point x="-647" y="52" type="line"/>
      <point x="-647" y="-229" type="line"/>
      <point x="-647" y="-229"/>
      <point x="-617" y="-225"/>
      <point x="-602" y="-225" type="curve" smooth="yes"/>
      <point x="-555" y="-225"/>
      <point x="-512" y="-246"/>
      <point x="-512" y="-295" type="curve" smooth="yes"/>
      <point x="-512" y="-352"/>
      <point x="-580" y="-365"/>
      <point x="-633" y="-365" type="curve" smooth="yes"/>
      <point x="-682" y="-365"/>
      <point x="-762" y="-348"/>
      <point x="-762" y="-348" type="curve"/>
      <point x="-762" y="-451" type="line" name="hr02"/>
      <point x="-762" y="-451"/>
      <point x="-680" y="-473"/>
      <point x="-596" y="-473" type="curve" smooth="yes" name="hr03"/>
      <point x="-451" y="-473"/>
      <point x="-344" y="-401"/>
    </contour>
    <contour>
      <point x="-598" y="-600" type="move" name="L"/>
    </contour>
    <contour>
      <point x="-598" y="0" type="move" name="_H"/>
    </contour>
  </outline>
</glyph>
<glyph name="CombOgonek" format="1">
  <advance width="0"/>
  <unicode hex="0328"/>
  <outline>
    <contour>
      <point x="-299" y="-362" type="curve" name="hr00"/>
      <point x="-363" y="-256" type="line"/>
      <point x="-375" y="-264"/>
      <point x="-426" y="-307"/>
      <point x="-453" y="-307" type="curve" smooth="yes"/>
      <point x="-520" y="-307"/>
      <point x="-555" y="-260"/>
      <point x="-555" y="-201" type="curve" smooth="yes"/>
      <point x="-555" y="-121"/>
      <point x="-502" y="-55"/>
      <point x="-426" y="2" type="curve"/>
      <point x="-555" y="2" type="line"/>
      <point x="-617" y="-41"/>
      <point x="-721" y="-133"/>
      <point x="-721" y="-254" type="curve" smooth="yes"/>
      <point x="-721" y="-362"/>
      <point x="-623" y="-426"/>
      <point x="-494" y="-426" type="curve" smooth="yes"/>
      <point x="-432" y="-426"/>
      <point x="-299" y="-362"/>
    </contour>
    <contour>
      <point x="-662" y="-500" type="move" name="L"/>
    </contour>
    <contour>
      <point x="-350" y="0" type="move" name="_O"/>
    </contour>
  </outline>
</glyph>
<glyph name="CombVertLineBlw" format="1">
  <advance width="0"/>
  <unicode hex="0329"/>
  <outline>
    <contour>
      <point x="-534" y="-502" type="line" name="hr00"/>
      <point x="-534" y="-125" type="line"/>
      <point x="-661" y="-125" type="line"/>
      <point x="-661" y="-502" type="line"/>
    </contour>
    <contour>
      <point x="-598" y="-500" type="move" name="L"/>
    </contour>
    <contour>
      <point x="-598" y="-100" type="move" name="_L"/>
    </contour>
  </outline>
</glyph>
<glyph name="CombBridgeBlw" format="1">
  <advance width="0"/>
  <unicode hex="032A"/>
  <outline>
    <contour>
      <point x="-346" y="-434" type="line" name="hr00"/>
      <point x="-346" y="-125" type="line"/>
      <point x="-850" y="-125" type="line"/>
      <point x="-850" y="-434" type="line"/>
      <point x="-737" y="-434" type="line"/>
      <point x="-737" y="-238" type="line"/>
      <point x="-459" y="-238" type="line"/>
      <point x="-459" y="-434" type="line"/>
    </contour>
    <contour>
      <point x="-598" y="-500" type="move" name="L"/>
    </contour>
    <contour>
      <point x="-598" y="-100" type="move" name="_L"/>
    </contour>
  </outline>
</glyph>
<glyph name="CombCaronBlw" format="1">
  <advance width="0"/>
  <unicode hex="032C"/>
  <outline>
    <contour>
      <point x="-250" y="-125" type="line" name="hr00"/>
      <point x="-420" y="-125" type="line"/>
      <point x="-598" y="-317" type="line"/>
      <point x="-776" y="-125" type="line"/>
      <point x="-946" y="-125" type="line"/>
      <point x="-719" y="-475" type="line"/>
      <point x="-477" y="-475" type="line"/>
    </contour>
    <contour>
      <point x="-598" y="-500" type="move" name="L"/>
    </contour>
    <contour>
      <point x="-598" y="-100" type="move" name="_L"/>
    </contour>
  </outline>
</glyph>
<glyph name="CombInvBreveBlw" format="1">
  <advance width="0"/>
  <unicode hex="032F"/>
  <outline>
    <contour>
      <point x="-277" y="-459" type="line" name="hr00"/>
      <point x="-277" y="-274"/>
      <point x="-383" y="-125"/>
      <point x="-599" y="-125" type="curve" smooth="yes"/>
      <point x="-814" y="-125"/>
      <point x="-918" y="-274"/>
      <point x="-918" y="-459" type="curve"/>
      <point x="-812" y="-459" type="line"/>
      <point x="-785" y="-336"/>
      <point x="-689" y="-293"/>
      <point x="-599" y="-293" type="curve" smooth="yes"/>
      <point x="-506" y="-293"/>
      <point x="-412" y="-336"/>
      <point x="-386" y="-459" type="curve"/>
    </contour>
    <contour>
      <point x="-598" y="-500" type="move" name="L"/>
    </contour>
    <contour>
      <point x="-598" y="-100" type="move" name="_L"/>
    </contour>
  </outline>
</glyph>
<glyph name="CombTildeBlw" format="1">
  <advance width="0"/>
  <unicode hex="0330"/>
  <outline>
    <contour>
      <point x="-238" y="-174" type="curve" name="hr01"/>
      <point x="-349" y="-174" type="line"/>
      <point x="-355" y="-229"/>
      <point x="-396" y="-272"/>
      <point x="-439" y="-272" type="curve" smooth="yes"/>
      <point x="-560" y="-272"/>
      <point x="-603" y="-174"/>
      <point x="-711" y="-174" type="curve" smooth="yes"/>
      <point x="-848" y="-174"/>
      <point x="-922" y="-287"/>
      <point x="-957" y="-428" type="curve" name="hr02"/>
      <point x="-846" y="-428" type="line"/>
      <point x="-840" y="-375"/>
      <point x="-801" y="-332"/>
      <point x="-756" y="-332" type="curve" smooth="yes"/>
      <point x="-635" y="-332"/>
      <point x="-592" y="-428"/>
      <point x="-486" y="-428" type="curve" smooth="yes"/>
      <point x="-347" y="-428"/>
      <point x="-273" y="-317"/>
    </contour>
    <contour>
      <point x="-598" y="-500" type="move" name="L"/>
    </contour>
    <contour>
      <point x="-598" y="-100" type="move" name="_L"/>
    </contour>
  </outline>
</glyph>
<glyph name="CombLowLine" format="1">
  <advance width="0"/>
  <unicode hex="0332"/>
  <outline>
    <contour>
      <point x="98" y="-340" type="line" name="hr00"/>
      <point x="98" y="-175" type="line"/>
      <point x="-1294" y="-175" type="line"/>
      <point x="-1294" y="-340" type="line"/>
    </contour>
    <contour>
      <point x="-598" y="-100" type="move" name="_L"/>
    </contour>
    <contour>
      <point x="-598" y="-500" type="move" name="L"/>
    </contour>
  </outline>
</glyph>
<glyph name="CombDblLowLine" format="1">
  <advance width="0"/>
  <unicode hex="0333"/>
  <outline>
    <contour>
      <point x="98" y="-340" type="line" name="hr00"/>
      <point x="98" y="-175" type="line"/>
      <point x="-1294" y="-175" type="line"/>
      <point x="-1294" y="-340" type="line"/>
    </contour>
    <contour>
      <point x="98" y="-605" type="line"/>
      <point x="98" y="-440" type="line"/>
      <point x="-1294" y="-440" type="line"/>
      <point x="-1294" y="-605" type="line"/>
    </contour>
    <contour>
      <point x="-598" y="-500" type="move" name="L"/>
    </contour>
    <contour>
      <point x="-598" y="-100" type="move" name="_L"/>
    </contour>
  </outline>
</glyph>
<glyph name="CombShortStrkOverlay" format="1">
  <advance width="0"/>
  <unicode hex="0335"/>
  <outline>
    <contour>
      <point x="-250" y="445" type="line" name="hr00"/>
      <point x="-250" y="575" type="line"/>
      <point x="-947" y="575" type="line"/>
      <point x="-947" y="445" type="line"/>
    </contour>
  </outline>
</glyph>
<glyph name="CombLngStrkOverlay" format="1">
  <advance width="0"/>
  <unicode hex="0336"/>
  <outline>
    <contour>
      <point x="0" y="445" type="line" name="hr00"/>
      <point x="0" y="575" type="line"/>
      <point x="-1237" y="575" type="line"/>
      <point x="-1237" y="445" type="line"/>
    </contour>
  </outline>
</glyph>
<glyph name="CombShortSolidusOverlay" format="1">
  <advance width="0"/>
  <unicode hex="0337"/>
  <outline>
    <contour>
      <point x="-201" y="1124" type="line" name="hr00"/>
      <point x="-291" y="1176" type="line"/>
      <point x="-1012" y="-113" type="line"/>
      <point x="-922" y="-170" type="line"/>
    </contour>
  </outline>
</glyph>
<glyph name="CombLngSolidusOverlay" format="1">
  <advance width="0"/>
  <unicode hex="0338"/>
  <outline>
    <contour>
      <point x="-201" y="1274" type="line" name="hr00"/>
      <point x="-291" y="1326" type="line"/>
      <point x="-1012" y="-263" type="line"/>
      <point x="-922" y="-320" type="line"/>
    </contour>
  </outline>
</glyph>
<glyph name="CombInvBridgeBlw" format="1">
  <advance width="0"/>
  <unicode hex="033A"/>
  <outline>
    <contour>
      <point x="-346" y="-434" type="line" name="hr00"/>
      <point x="-346" y="-125" type="line"/>
      <point x="-459" y="-125" type="line"/>
      <point x="-459" y="-322" type="line"/>
      <point x="-737" y="-322" type="line"/>
      <point x="-737" y="-125" type="line"/>
      <point x="-850" y="-125" type="line"/>
      <point x="-850" y="-434" type="line"/>
    </contour>
    <contour>
      <point x="-598" y="-500" type="move" name="L"/>
    </contour>
    <contour>
      <point x="-598" y="-100" type="move" name="_L"/>
    </contour>
  </outline>
</glyph>
<glyph name="CombSqrBlw" format="1">
  <advance width="0"/>
  <unicode hex="033B"/>
  <outline>
    <contour>
      <point x="-373" y="-573" type="line" name="hr00"/>
      <point x="-373" y="-125" type="line"/>
      <point x="-822" y="-125" type="line"/>
      <point x="-822" y="-573" type="line"/>
    </contour>
    <contour>
      <point x="-472" y="-475" type="line"/>
      <point x="-724" y="-475" type="line"/>
      <point x="-724" y="-223" type="line"/>
      <point x="-472" y="-223" type="line"/>
    </contour>
    <contour>
      <point x="-598" y="-500" type="move" name="L"/>
    </contour>
    <contour>
      <point x="-598" y="-100" type="move" name="_L"/>
    </contour>
  </outline>
</glyph>
<glyph name="CombXAbv" format="1">
  <advance width="0"/>
  <unicode hex="033D"/>
  <outline>
    <contour>
      <point x="-301" y="1128" type="line" name="hr00"/>
      <point x="-506" y="1329" type="line"/>
      <point x="-305" y="1532" type="line"/>
      <point x="-489" y="1532" type="line"/>
      <point x="-600" y="1421" type="line"/>
      <point x="-709" y="1532" type="line"/>
      <point x="-895" y="1532" type="line"/>
      <point x="-692" y="1329" type="line"/>
      <point x="-893" y="1128" type="line"/>
      <point x="-711" y="1128" type="line"/>
      <point x="-600" y="1237" type="line"/>
      <point x="-489" y="1128" type="line"/>
    </contour>
    <contour>
      <point x="-598" y="1500" type="move" name="U"/>
    </contour>
    <contour>
      <point x="-598" y="1100" type="move" name="_U"/>
    </contour>
  </outline>
</glyph>
<glyph name="CombVertTilde" format="1">
  <advance width="0"/>
  <unicode hex="033E"/>
  <outline>
    <contour>
      <point x="-471" y="1795" type="line" name="hr01"/>
      <point x="-612" y="1760"/>
      <point x="-725" y="1686"/>
      <point x="-725" y="1547" type="curve" smooth="yes" name="hr02"/>
      <point x="-725" y="1441"/>
      <point x="-627" y="1398"/>
      <point x="-627" y="1277" type="curve" smooth="yes" name="hr03"/>
      <point x="-627" y="1232"/>
      <point x="-670" y="1193"/>
      <point x="-725" y="1187" type="curve"/>
      <point x="-725" y="1076" type="line"/>
      <point x="-584" y="1111"/>
      <point x="-471" y="1185"/>
      <point x="-471" y="1322" type="curve" smooth="yes"/>
      <point x="-471" y="1430"/>
      <point x="-567" y="1473"/>
      <point x="-567" y="1594" type="curve" smooth="yes" name="hr04"/>
      <point x="-567" y="1637"/>
      <point x="-524" y="1678"/>
      <point x="-471" y="1684" type="curve"/>
    </contour>
    <contour>
      <point x="-598" y="1980" type="move" name="U"/>
    </contour>
    <contour>
      <point x="-598" y="1100" type="move" name="_U"/>
    </contour>
  </outline>
</glyph>
<glyph name="CombDblOverline" format="1">
  <advance width="0"/>
  <unicode hex="033F"/>
  <outline>
    <contour>
      <point x="98" y="1200" type="line" name="hr00"/>
      <point x="98" y="1365" type="line"/>
      <point x="-1294" y="1365" type="line"/>
      <point x="-1294" y="1200" type="line"/>
    </contour>
    <contour>
      <point x="98" y="1465" type="line"/>
      <point x="98" y="1630" type="line"/>
      <point x="-1294" y="1630" type="line"/>
      <point x="-1294" y="1465" type="line"/>
    </contour>
    <contour>
      <point x="-598" y="1580" type="move" name="U"/>
    </contour>
    <contour>
      <point x="-598" y="1100" type="move" name="_U"/>
    </contour>
  </outline>
</glyph>
<glyph name="CombEqSgnBlw" format="1">
  <advance width="0"/>
  <unicode hex="0347"/>
  <outline>
    <contour>
      <point x="-202" y="-340" type="line" name="hr00"/>
      <point x="-202" y="-175" type="line"/>
      <point x="-994" y="-175" type="line"/>
      <point x="-994" y="-340" type="line"/>
    </contour>
    <contour>
      <point x="-202" y="-605" type="line"/>
      <point x="-202" y="-440" type="line"/>
      <point x="-994" y="-440" type="line"/>
      <point x="-994" y="-605" type="line"/>
    </contour>
    <contour>
      <point x="-598" y="-500" type="move" name="L"/>
    </contour>
    <contour>
      <point x="-598" y="-100" type="move" name="_L"/>
    </contour>
  </outline>
</glyph>
<glyph name="CombDblVertLineBlw" format="1">
  <advance width="0"/>
  <unicode hex="0348"/>
  <outline>
    <contour>
      <point x="-395" y="-502" type="line" name="hr00"/>
      <point x="-395" y="-125" type="line"/>
      <point x="-520" y="-125" type="line"/>
      <point x="-520" y="-502" type="line"/>
    </contour>
    <contour>
      <point x="-674" y="-502" type="line"/>
      <point x="-674" y="-125" type="line"/>
      <point x="-801" y="-125" type="line"/>
      <point x="-801" y="-502" type="line"/>
    </contour>
    <contour>
      <point x="-598" y="-500" type="move" name="L"/>
    </contour>
    <contour>
      <point x="-598" y="-100" type="move" name="_L"/>
    </contour>
  </outline>
</glyph>
<glyph name="CombNotTildeAbv" format="1">
  <advance width="0"/>
  <unicode hex="034A"/>
  <outline>
    <contour>
      <point x="-168" y="1452" type="curve" name="hr01"/>
      <point x="-279" y="1452" type="line"/>
      <point x="-285" y="1399"/>
      <point x="-356" y="1356"/>
      <point x="-399" y="1356" type="curve" smooth="yes"/>
      <point x="-563" y="1356"/>
      <point x="-621" y="1452"/>
      <point x="-761" y="1452" type="curve" smooth="yes"/>
      <point x="-898" y="1452"/>
      <point x="-992" y="1339"/>
      <point x="-1027" y="1198" type="curve" name="hr02"/>
      <point x="-916" y="1198" type="line"/>
      <point x="-910" y="1253"/>
      <point x="-841" y="1296"/>
      <point x="-796" y="1296" type="curve" smooth="yes"/>
      <point x="-639" y="1296"/>
      <point x="-587" y="1198"/>
      <point x="-436" y="1198" type="curve" smooth="yes"/>
      <point x="-297" y="1198"/>
      <point x="-203" y="1311"/>
    </contour>
    <contour>
      <point x="-699" y="1106" type="line"/>
      <point x="-414" y="1478" type="line"/>
      <point x="-498" y="1540" type="line"/>
      <point x="-783" y="1168" type="line"/>
    </contour>
    <contour>
      <point x="-598" y="1580" type="move" name="U"/>
    </contour>
    <contour>
      <point x="-598" y="1100" type="move" name="_U"/>
    </contour>
  </outline>
</glyph>
